%TF.GenerationSoftware,KiCad,Pcbnew,(7.0.0)*%
%TF.CreationDate,2023-04-25T20:48:09-05:00*%
%TF.ProjectId,GP2040-CE Planter,47503230-3430-42d4-9345-20506c616e74,rev?*%
%TF.SameCoordinates,Original*%
%TF.FileFunction,Soldermask,Top*%
%TF.FilePolarity,Negative*%
%FSLAX46Y46*%
G04 Gerber Fmt 4.6, Leading zero omitted, Abs format (unit mm)*
G04 Created by KiCad (PCBNEW (7.0.0)) date 2023-04-25 20:48:09*
%MOMM*%
%LPD*%
G01*
G04 APERTURE LIST*
G04 Aperture macros list*
%AMRoundRect*
0 Rectangle with rounded corners*
0 $1 Rounding radius*
0 $2 $3 $4 $5 $6 $7 $8 $9 X,Y pos of 4 corners*
0 Add a 4 corners polygon primitive as box body*
4,1,4,$2,$3,$4,$5,$6,$7,$8,$9,$2,$3,0*
0 Add four circle primitives for the rounded corners*
1,1,$1+$1,$2,$3*
1,1,$1+$1,$4,$5*
1,1,$1+$1,$6,$7*
1,1,$1+$1,$8,$9*
0 Add four rect primitives between the rounded corners*
20,1,$1+$1,$2,$3,$4,$5,0*
20,1,$1+$1,$4,$5,$6,$7,0*
20,1,$1+$1,$6,$7,$8,$9,0*
20,1,$1+$1,$8,$9,$2,$3,0*%
G04 Aperture macros list end*
%ADD10RoundRect,0.050800X-0.400000X0.274999X-0.400000X-0.274999X0.400000X-0.274999X0.400000X0.274999X0*%
%ADD11RoundRect,0.050800X-0.714000X-0.714000X0.714000X-0.714000X0.714000X0.714000X-0.714000X0.714000X0*%
%ADD12C,1.529600*%
%ADD13C,3.417600*%
%ADD14C,2.601600*%
%ADD15RoundRect,0.050800X-0.140000X0.425000X-0.140000X-0.425000X0.140000X-0.425000X0.140000X0.425000X0*%
%ADD16RoundRect,0.250800X-0.275000X0.200000X-0.275000X-0.200000X0.275000X-0.200000X0.275000X0.200000X0*%
%ADD17RoundRect,0.250800X0.275000X-0.200000X0.275000X0.200000X-0.275000X0.200000X-0.275000X-0.200000X0*%
%ADD18RoundRect,0.050800X-1.701800X-0.749300X1.701800X-0.749300X1.701800X0.749300X-1.701800X0.749300X0*%
%ADD19RoundRect,0.050800X1.701800X0.749300X-1.701800X0.749300X-1.701800X-0.749300X1.701800X-0.749300X0*%
%ADD20RoundRect,0.275800X-0.225000X-0.250000X0.225000X-0.250000X0.225000X0.250000X-0.225000X0.250000X0*%
%ADD21RoundRect,0.050800X-0.850000X0.850000X-0.850000X-0.850000X0.850000X-0.850000X0.850000X0.850000X0*%
%ADD22O,1.801600X1.801600*%
%ADD23RoundRect,0.275800X0.225000X0.250000X-0.225000X0.250000X-0.225000X-0.250000X0.225000X-0.250000X0*%
%ADD24RoundRect,0.185800X-0.135000X-0.185000X0.135000X-0.185000X0.135000X0.185000X-0.135000X0.185000X0*%
%ADD25RoundRect,0.050800X-0.704000X-0.704000X0.704000X-0.704000X0.704000X0.704000X-0.704000X0.704000X0*%
%ADD26C,1.509600*%
%ADD27RoundRect,0.050800X0.800000X-0.750000X0.800000X0.750000X-0.800000X0.750000X-0.800000X-0.750000X0*%
%ADD28RoundRect,0.050800X0.331500X0.112500X-0.331500X0.112500X-0.331500X-0.112500X0.331500X-0.112500X0*%
%ADD29RoundRect,0.050800X0.112500X0.281500X-0.112500X0.281500X-0.112500X-0.281500X0.112500X-0.281500X0*%
%ADD30RoundRect,0.050800X0.281500X0.112500X-0.281500X0.112500X-0.281500X-0.112500X0.281500X-0.112500X0*%
%ADD31RoundRect,0.050800X0.425000X-0.140000X0.425000X0.140000X-0.425000X0.140000X-0.425000X-0.140000X0*%
%ADD32RoundRect,0.050800X-0.140000X-0.425000X0.140000X-0.425000X0.140000X0.425000X-0.140000X0.425000X0*%
%ADD33C,0.609600*%
%ADD34RoundRect,0.050800X-0.736600X-0.177800X0.736600X-0.177800X0.736600X0.177800X-0.736600X0.177800X0*%
%ADD35RoundRect,0.050800X0.714000X0.714000X-0.714000X0.714000X-0.714000X-0.714000X0.714000X-0.714000X0*%
%ADD36RoundRect,0.050800X0.736600X0.177800X-0.736600X0.177800X-0.736600X-0.177800X0.736600X-0.177800X0*%
%ADD37RoundRect,0.275800X-0.250000X0.225000X-0.250000X-0.225000X0.250000X-0.225000X0.250000X0.225000X0*%
G04 APERTURE END LIST*
%TO.C,U6*%
G36*
X127600000Y-48075000D02*
G01*
X127100000Y-48075000D01*
X127100000Y-47825000D01*
X127600000Y-47825000D01*
X127600000Y-48075000D01*
G37*
G36*
X124700000Y-48075000D02*
G01*
X124200000Y-48075000D01*
X124200000Y-47825000D01*
X124700000Y-47825000D01*
X124700000Y-48075000D01*
G37*
G36*
X127600000Y-48575000D02*
G01*
X127100000Y-48575000D01*
X127100000Y-48325000D01*
X127600000Y-48325000D01*
X127600000Y-48575000D01*
G37*
G36*
X124700000Y-48575000D02*
G01*
X124200000Y-48575000D01*
X124200000Y-48325000D01*
X124700000Y-48325000D01*
X124700000Y-48575000D01*
G37*
G36*
X127170000Y-47755000D02*
G01*
X127670000Y-47755000D01*
X127670000Y-48145000D01*
X127170000Y-48145000D01*
X127170000Y-48255000D01*
X127233500Y-48255000D01*
X127670000Y-48255000D01*
X127670000Y-48645000D01*
X127170000Y-48645000D01*
X127170000Y-49095000D01*
X124630000Y-49095000D01*
X124630000Y-48645000D01*
X124130000Y-48645000D01*
X124130000Y-48255000D01*
X124630000Y-48255000D01*
X124630000Y-48145000D01*
X124130000Y-48145000D01*
X124130000Y-47755000D01*
X124630000Y-47755000D01*
X124630000Y-47305000D01*
X127170000Y-47305000D01*
X127170000Y-47755000D01*
G37*
%TO.C,U2*%
G36*
X136418900Y-41688500D02*
G01*
X136011500Y-41688500D01*
X136011500Y-38111500D01*
X136418900Y-38111500D01*
X136418900Y-41688500D01*
G37*
G36*
X139588500Y-38518900D02*
G01*
X136011500Y-38518900D01*
X136011500Y-38111500D01*
X139588500Y-38111500D01*
X139588500Y-38518900D01*
G37*
G36*
X139588500Y-39306300D02*
G01*
X136011500Y-39306300D01*
X136011500Y-38918900D01*
X139588500Y-38918900D01*
X139588500Y-39306300D01*
G37*
G36*
X139588500Y-40093700D02*
G01*
X136011500Y-40093700D01*
X136011500Y-39706300D01*
X139588500Y-39706300D01*
X139588500Y-40093700D01*
G37*
G36*
X139588500Y-40881100D02*
G01*
X136011500Y-40881100D01*
X136011500Y-40493700D01*
X139588500Y-40493700D01*
X139588500Y-40881100D01*
G37*
G36*
X139588500Y-41688500D02*
G01*
X136011500Y-41688500D01*
X136011500Y-41281100D01*
X139588500Y-41281100D01*
X139588500Y-41688500D01*
G37*
G36*
X137206300Y-41688500D02*
G01*
X136818900Y-41688500D01*
X136818900Y-38111500D01*
X137206300Y-38111500D01*
X137206300Y-41688500D01*
G37*
G36*
X137993700Y-41688500D02*
G01*
X137606300Y-41688500D01*
X137606300Y-38111500D01*
X137993700Y-38111500D01*
X137993700Y-41688500D01*
G37*
G36*
X138781100Y-41688500D02*
G01*
X138393700Y-41688500D01*
X138393700Y-38111500D01*
X138781100Y-38111500D01*
X138781100Y-41688500D01*
G37*
G36*
X139588500Y-41688500D02*
G01*
X139181100Y-41688500D01*
X139181100Y-38111500D01*
X139588500Y-38111500D01*
X139588500Y-41688500D01*
G37*
%TD*%
D10*
%TO.C,U7*%
X152875001Y-39550001D03*
X152875001Y-38600000D03*
X152875001Y-37650002D03*
X150325001Y-37650002D03*
X150325001Y-39550001D03*
%TD*%
D11*
%TO.C,J3*%
X139290750Y-67630000D03*
D12*
X136790750Y-67630000D03*
X136790750Y-69630000D03*
X139290750Y-69630000D03*
D13*
X132020750Y-72340000D03*
X144060750Y-72340000D03*
%TD*%
D14*
%TO.C,H4*%
X110800000Y-75200000D03*
%TD*%
%TO.C,H3*%
X165200000Y-75200000D03*
%TD*%
%TO.C,H2*%
X165200000Y-20800000D03*
%TD*%
%TO.C,H1*%
X110800000Y-20800000D03*
%TD*%
D15*
%TO.C,U6*%
X126900001Y-46724999D03*
X126399999Y-46724999D03*
X125900000Y-46724999D03*
X125400001Y-46724999D03*
X124899999Y-46724999D03*
X124899999Y-49675001D03*
X125400001Y-49675001D03*
X125900000Y-49675001D03*
X126399999Y-49675001D03*
X126900001Y-49675001D03*
%TD*%
D16*
%TO.C,R7*%
X125400000Y-51475000D03*
X125400000Y-53125000D03*
%TD*%
D17*
%TO.C,R6*%
X123200000Y-51325000D03*
X123200000Y-49675000D03*
%TD*%
D16*
%TO.C,R5*%
X128600000Y-49675000D03*
X128600000Y-51325000D03*
%TD*%
D18*
%TO.C,C17*%
X151496400Y-56400000D03*
X158303600Y-56400000D03*
%TD*%
D19*
%TO.C,C14*%
X122003600Y-57100000D03*
X115196400Y-57100000D03*
%TD*%
D20*
%TO.C,C11*%
X125125000Y-44100000D03*
X126675000Y-44100000D03*
%TD*%
%TO.C,C15*%
X153075000Y-62100000D03*
X151525000Y-62100000D03*
%TD*%
D21*
%TO.C,J4*%
X148825000Y-45100000D03*
D22*
X146284999Y-45099999D03*
X143744999Y-45099999D03*
%TD*%
D23*
%TO.C,C16*%
X152775000Y-36200000D03*
X151225000Y-36200000D03*
%TD*%
D24*
%TO.C,R4*%
X159890000Y-63400000D03*
X160910000Y-63400000D03*
%TD*%
%TO.C,R2*%
X111215000Y-65200000D03*
X112235000Y-65200000D03*
%TD*%
D25*
%TO.C,J5*%
X151487500Y-69330000D03*
D26*
X153987500Y-69330000D03*
X155987500Y-69330000D03*
X158487500Y-69330000D03*
D13*
X149987500Y-72000000D03*
X159987500Y-72000000D03*
%TD*%
D20*
%TO.C,C3*%
X145100000Y-51500000D03*
X146650000Y-51500000D03*
%TD*%
D27*
%TO.C,XTAL1*%
X145900000Y-39840000D03*
X145900000Y-37300000D03*
X143700000Y-37300000D03*
X143700000Y-39840000D03*
%TD*%
D28*
%TO.C,U1*%
X140718500Y-49500000D03*
X140720000Y-49100000D03*
D29*
X140600000Y-48531500D03*
X140200000Y-48531500D03*
X139800000Y-48531500D03*
D30*
X139631500Y-49100000D03*
X139631500Y-49500000D03*
D29*
X139800000Y-50068500D03*
X140200000Y-50068500D03*
X140600000Y-50068500D03*
%TD*%
D31*
%TO.C,U2*%
X135325001Y-38150001D03*
X135325001Y-38650000D03*
X135325001Y-39149999D03*
X135325001Y-39650000D03*
X135325001Y-40150000D03*
X135325001Y-40650001D03*
X135325001Y-41150000D03*
X135325001Y-41649999D03*
D32*
X136049559Y-42374999D03*
X136549685Y-42374999D03*
X137049811Y-42374999D03*
X137549937Y-42374999D03*
X138050063Y-42374999D03*
X138550189Y-42374999D03*
X139050315Y-42374999D03*
X139550441Y-42374999D03*
D31*
X140274999Y-41649999D03*
X140274999Y-41150000D03*
X140274999Y-40650001D03*
X140274999Y-40150000D03*
X140274999Y-39650000D03*
X140274999Y-39149999D03*
X140274999Y-38650000D03*
X140274999Y-38150001D03*
D32*
X139550441Y-37425001D03*
X139050315Y-37425001D03*
X138550189Y-37425001D03*
X138050063Y-37425001D03*
X137549937Y-37425001D03*
X137049811Y-37425001D03*
X136549685Y-37425001D03*
X136049559Y-37425001D03*
D33*
X136618900Y-38718900D03*
X136618900Y-39506300D03*
X136618900Y-40293700D03*
X136618900Y-41081100D03*
X137406300Y-38718900D03*
X137406300Y-39506300D03*
X137406300Y-40293700D03*
X137406300Y-41081100D03*
X138193700Y-38718900D03*
X138193700Y-39506300D03*
X138193700Y-40293700D03*
X138193700Y-41081100D03*
X138981100Y-38718900D03*
X138981100Y-39506300D03*
X138981100Y-40293700D03*
X138981100Y-41081100D03*
%TD*%
D24*
%TO.C,R3*%
X132435000Y-62200000D03*
X131415000Y-62200000D03*
%TD*%
D20*
%TO.C,C7*%
X110950000Y-66400000D03*
X112500000Y-66400000D03*
%TD*%
D34*
%TO.C,U4*%
X135879000Y-32625001D03*
X135879000Y-33274999D03*
X135879000Y-33925001D03*
X135879000Y-34574999D03*
X141721000Y-34574999D03*
X141721000Y-33925001D03*
X141721000Y-33274999D03*
X141721000Y-32625001D03*
%TD*%
D20*
%TO.C,C1*%
X127200000Y-21550000D03*
X128750000Y-21550000D03*
%TD*%
D13*
%TO.C,J1*%
X131930000Y-22690000D03*
X143970000Y-22690000D03*
D12*
X136700000Y-25400000D03*
X139200000Y-25400000D03*
X139200000Y-27400000D03*
D35*
X136700000Y-27400000D03*
%TD*%
D20*
%TO.C,C10*%
X161175000Y-66150000D03*
X159625000Y-66150000D03*
%TD*%
%TO.C,C6*%
X132700000Y-64900000D03*
X131150000Y-64900000D03*
%TD*%
%TO.C,C4*%
X145100000Y-53000000D03*
X146650000Y-53000000D03*
%TD*%
%TO.C,C2*%
X127200000Y-23070000D03*
X128750000Y-23070000D03*
%TD*%
%TO.C,C9*%
X159625000Y-64640000D03*
X161175000Y-64640000D03*
%TD*%
D13*
%TO.C,J2*%
X125987500Y-72000000D03*
X115987500Y-72000000D03*
D26*
X124487500Y-69330000D03*
X121987500Y-69330000D03*
X119987500Y-69330000D03*
D25*
X117487500Y-69330000D03*
%TD*%
D36*
%TO.C,U5*%
X134759000Y-58144999D03*
X134759000Y-57495001D03*
X134759000Y-56844999D03*
X134759000Y-56195001D03*
X140601000Y-56195001D03*
X140601000Y-56844999D03*
X140601000Y-57495001D03*
X140601000Y-58144999D03*
%TD*%
D24*
%TO.C,R1*%
X127465000Y-24280000D03*
X128485000Y-24280000D03*
%TD*%
D23*
%TO.C,C13*%
X117325000Y-62400000D03*
X118875000Y-62400000D03*
%TD*%
D37*
%TO.C,C12*%
X148300000Y-41075000D03*
X148300000Y-39525000D03*
%TD*%
D20*
%TO.C,C5*%
X110950000Y-67900000D03*
X112500000Y-67900000D03*
%TD*%
%TO.C,C8*%
X132700000Y-63400000D03*
X131150000Y-63400000D03*
%TD*%
D36*
%TO.C,U3*%
X140521000Y-54374999D03*
X140521000Y-53725001D03*
X140521000Y-53074999D03*
X140521000Y-52425001D03*
X134679000Y-52425001D03*
X134679000Y-53074999D03*
X134679000Y-53725001D03*
X134679000Y-54374999D03*
%TD*%
M02*
