%TF.GenerationSoftware,KiCad,Pcbnew,(7.0.0)*%
%TF.CreationDate,2023-04-25T20:48:09-05:00*%
%TF.ProjectId,GP2040-CE Planter,47503230-3430-42d4-9345-20506c616e74,rev?*%
%TF.SameCoordinates,Original*%
%TF.FileFunction,Paste,Top*%
%TF.FilePolarity,Positive*%
%FSLAX46Y46*%
G04 Gerber Fmt 4.6, Leading zero omitted, Abs format (unit mm)*
G04 Created by KiCad (PCBNEW (7.0.0)) date 2023-04-25 20:48:09*
%MOMM*%
%LPD*%
G01*
G04 APERTURE LIST*
G04 Aperture macros list*
%AMRoundRect*
0 Rectangle with rounded corners*
0 $1 Rounding radius*
0 $2 $3 $4 $5 $6 $7 $8 $9 X,Y pos of 4 corners*
0 Add a 4 corners polygon primitive as box body*
4,1,4,$2,$3,$4,$5,$6,$7,$8,$9,$2,$3,0*
0 Add four circle primitives for the rounded corners*
1,1,$1+$1,$2,$3*
1,1,$1+$1,$4,$5*
1,1,$1+$1,$6,$7*
1,1,$1+$1,$8,$9*
0 Add four rect primitives between the rounded corners*
20,1,$1+$1,$2,$3,$4,$5,0*
20,1,$1+$1,$4,$5,$6,$7,0*
20,1,$1+$1,$6,$7,$8,$9,0*
20,1,$1+$1,$8,$9,$2,$3,0*%
G04 Aperture macros list end*
%ADD10R,0.800001X0.549999*%
%ADD11R,0.280000X0.850000*%
%ADD12RoundRect,0.200000X-0.275000X0.200000X-0.275000X-0.200000X0.275000X-0.200000X0.275000X0.200000X0*%
%ADD13RoundRect,0.200000X0.275000X-0.200000X0.275000X0.200000X-0.275000X0.200000X-0.275000X-0.200000X0*%
%ADD14R,3.403600X1.498600*%
%ADD15RoundRect,0.225000X-0.225000X-0.250000X0.225000X-0.250000X0.225000X0.250000X-0.225000X0.250000X0*%
%ADD16RoundRect,0.225000X0.225000X0.250000X-0.225000X0.250000X-0.225000X-0.250000X0.225000X-0.250000X0*%
%ADD17RoundRect,0.135000X-0.135000X-0.185000X0.135000X-0.185000X0.135000X0.185000X-0.135000X0.185000X0*%
%ADD18R,1.600000X1.500000*%
%ADD19R,0.663000X0.225000*%
%ADD20R,0.225000X0.563000*%
%ADD21R,0.563000X0.225000*%
%ADD22R,0.850000X0.280000*%
%ADD23R,1.473200X0.355600*%
%ADD24RoundRect,0.225000X-0.250000X0.225000X-0.250000X-0.225000X0.250000X-0.225000X0.250000X0.225000X0*%
G04 APERTURE END LIST*
%TO.C,U6*%
G36*
X127100000Y-47825000D02*
G01*
X127600000Y-47825000D01*
X127600000Y-48075000D01*
X127100000Y-48075000D01*
X127100000Y-48325000D01*
X127600000Y-48325000D01*
X127600000Y-48575000D01*
X127100000Y-48575000D01*
X127100000Y-49025000D01*
X124700000Y-49025000D01*
X124700000Y-48575000D01*
X124200000Y-48575000D01*
X124200000Y-48325000D01*
X124700000Y-48325000D01*
X124700000Y-48075000D01*
X124200000Y-48075000D01*
X124200000Y-47825000D01*
X124700000Y-47825000D01*
X124700000Y-47375000D01*
X127100000Y-47375000D01*
X127100000Y-47825000D01*
G37*
%TO.C,U2*%
G36*
X136518900Y-38477479D02*
G01*
X136377479Y-38618900D01*
X136149930Y-38618900D01*
X136149930Y-38249930D01*
X136518900Y-38249930D01*
X136518900Y-38477479D01*
G37*
G36*
X136518900Y-41322521D02*
G01*
X136518900Y-41550070D01*
X136149930Y-41550070D01*
X136149930Y-41181100D01*
X136377479Y-41181100D01*
X136518900Y-41322521D01*
G37*
G36*
X139450070Y-38618900D02*
G01*
X139222521Y-38618900D01*
X139081100Y-38477479D01*
X139081100Y-38249930D01*
X139450070Y-38249930D01*
X139450070Y-38618900D01*
G37*
G36*
X139450070Y-41550070D02*
G01*
X139081100Y-41550070D01*
X139081100Y-41322521D01*
X139222521Y-41181100D01*
X139450070Y-41181100D01*
X139450070Y-41550070D01*
G37*
G36*
X136518900Y-38960321D02*
G01*
X136518900Y-39264879D01*
X136377479Y-39406300D01*
X136149930Y-39406300D01*
X136149930Y-38818900D01*
X136377479Y-38818900D01*
X136518900Y-38960321D01*
G37*
G36*
X136518900Y-39747721D02*
G01*
X136518900Y-40052279D01*
X136377479Y-40193700D01*
X136149930Y-40193700D01*
X136149930Y-39606300D01*
X136377479Y-39606300D01*
X136518900Y-39747721D01*
G37*
G36*
X136518900Y-40535121D02*
G01*
X136518900Y-40839679D01*
X136377479Y-40981100D01*
X136149930Y-40981100D01*
X136149930Y-40393700D01*
X136377479Y-40393700D01*
X136518900Y-40535121D01*
G37*
G36*
X137306300Y-38477479D02*
G01*
X137164879Y-38618900D01*
X136860321Y-38618900D01*
X136718900Y-38477479D01*
X136718900Y-38249930D01*
X137306300Y-38249930D01*
X137306300Y-38477479D01*
G37*
G36*
X137306300Y-41322521D02*
G01*
X137306300Y-41550070D01*
X136718900Y-41550070D01*
X136718900Y-41322521D01*
X136860321Y-41181100D01*
X137164879Y-41181100D01*
X137306300Y-41322521D01*
G37*
G36*
X138093700Y-38477479D02*
G01*
X137952279Y-38618900D01*
X137647721Y-38618900D01*
X137506300Y-38477479D01*
X137506300Y-38249930D01*
X138093700Y-38249930D01*
X138093700Y-38477479D01*
G37*
G36*
X138093700Y-41322521D02*
G01*
X138093700Y-41550070D01*
X137506300Y-41550070D01*
X137506300Y-41322521D01*
X137647721Y-41181100D01*
X137952279Y-41181100D01*
X138093700Y-41322521D01*
G37*
G36*
X138881100Y-38477479D02*
G01*
X138739679Y-38618900D01*
X138435121Y-38618900D01*
X138293700Y-38477479D01*
X138293700Y-38249930D01*
X138881100Y-38249930D01*
X138881100Y-38477479D01*
G37*
G36*
X138881100Y-41322521D02*
G01*
X138881100Y-41550070D01*
X138293700Y-41550070D01*
X138293700Y-41322521D01*
X138435121Y-41181100D01*
X138739679Y-41181100D01*
X138881100Y-41322521D01*
G37*
G36*
X139450070Y-39406300D02*
G01*
X139222521Y-39406300D01*
X139081100Y-39264879D01*
X139081100Y-38960321D01*
X139222521Y-38818900D01*
X139450070Y-38818900D01*
X139450070Y-39406300D01*
G37*
G36*
X139450070Y-40193700D02*
G01*
X139222521Y-40193700D01*
X139081100Y-40052279D01*
X139081100Y-39747721D01*
X139222521Y-39606300D01*
X139450070Y-39606300D01*
X139450070Y-40193700D01*
G37*
G36*
X139450070Y-40981100D02*
G01*
X139222521Y-40981100D01*
X139081100Y-40839679D01*
X139081100Y-40535121D01*
X139222521Y-40393700D01*
X139450070Y-40393700D01*
X139450070Y-40981100D01*
G37*
G36*
X137306300Y-38960321D02*
G01*
X137306300Y-39264879D01*
X137164879Y-39406300D01*
X136860321Y-39406300D01*
X136718900Y-39264879D01*
X136718900Y-38960321D01*
X136860321Y-38818900D01*
X137164879Y-38818900D01*
X137306300Y-38960321D01*
G37*
G36*
X137306300Y-39747721D02*
G01*
X137306300Y-40052279D01*
X137164879Y-40193700D01*
X136860321Y-40193700D01*
X136718900Y-40052279D01*
X136718900Y-39747721D01*
X136860321Y-39606300D01*
X137164879Y-39606300D01*
X137306300Y-39747721D01*
G37*
G36*
X137306300Y-40535121D02*
G01*
X137306300Y-40839679D01*
X137164879Y-40981100D01*
X136860321Y-40981100D01*
X136718900Y-40839679D01*
X136718900Y-40535121D01*
X136860321Y-40393700D01*
X137164879Y-40393700D01*
X137306300Y-40535121D01*
G37*
G36*
X138093700Y-38960321D02*
G01*
X138093700Y-39264879D01*
X137952279Y-39406300D01*
X137647721Y-39406300D01*
X137506300Y-39264879D01*
X137506300Y-38960321D01*
X137647721Y-38818900D01*
X137952279Y-38818900D01*
X138093700Y-38960321D01*
G37*
G36*
X138093700Y-39747721D02*
G01*
X138093700Y-40052279D01*
X137952279Y-40193700D01*
X137647721Y-40193700D01*
X137506300Y-40052279D01*
X137506300Y-39747721D01*
X137647721Y-39606300D01*
X137952279Y-39606300D01*
X138093700Y-39747721D01*
G37*
G36*
X138093700Y-40535121D02*
G01*
X138093700Y-40839679D01*
X137952279Y-40981100D01*
X137647721Y-40981100D01*
X137506300Y-40839679D01*
X137506300Y-40535121D01*
X137647721Y-40393700D01*
X137952279Y-40393700D01*
X138093700Y-40535121D01*
G37*
G36*
X138881100Y-38960321D02*
G01*
X138881100Y-39264879D01*
X138739679Y-39406300D01*
X138435121Y-39406300D01*
X138293700Y-39264879D01*
X138293700Y-38960321D01*
X138435121Y-38818900D01*
X138739679Y-38818900D01*
X138881100Y-38960321D01*
G37*
G36*
X138881100Y-39747721D02*
G01*
X138881100Y-40052279D01*
X138739679Y-40193700D01*
X138435121Y-40193700D01*
X138293700Y-40052279D01*
X138293700Y-39747721D01*
X138435121Y-39606300D01*
X138739679Y-39606300D01*
X138881100Y-39747721D01*
G37*
G36*
X138881100Y-40535121D02*
G01*
X138881100Y-40839679D01*
X138739679Y-40981100D01*
X138435121Y-40981100D01*
X138293700Y-40839679D01*
X138293700Y-40535121D01*
X138435121Y-40393700D01*
X138739679Y-40393700D01*
X138881100Y-40535121D01*
G37*
%TD*%
D10*
%TO.C,U7*%
X152875000Y-39550000D03*
X152875000Y-38599999D03*
X152875000Y-37650001D03*
X150325000Y-37650001D03*
X150325000Y-39550000D03*
%TD*%
D11*
%TO.C,U6*%
X126900000Y-46724998D03*
X126399998Y-46724998D03*
X125899999Y-46724998D03*
X125400000Y-46724998D03*
X124899998Y-46724998D03*
X124899998Y-49675000D03*
X125400000Y-49675000D03*
X125899999Y-49675000D03*
X126399998Y-49675000D03*
X126900000Y-49675000D03*
%TD*%
D12*
%TO.C,R7*%
X125400000Y-51475000D03*
X125400000Y-53125000D03*
%TD*%
D13*
%TO.C,R6*%
X123200000Y-51325000D03*
X123200000Y-49675000D03*
%TD*%
D12*
%TO.C,R5*%
X128600000Y-49675000D03*
X128600000Y-51325000D03*
%TD*%
D14*
%TO.C,C17*%
X151496399Y-56399999D03*
X158303599Y-56399999D03*
%TD*%
%TO.C,C14*%
X122003599Y-57099999D03*
X115196399Y-57099999D03*
%TD*%
D15*
%TO.C,C11*%
X125125000Y-44100000D03*
X126675000Y-44100000D03*
%TD*%
%TO.C,C15*%
X153075000Y-62100000D03*
X151525000Y-62100000D03*
%TD*%
D16*
%TO.C,C16*%
X152775000Y-36200000D03*
X151225000Y-36200000D03*
%TD*%
D17*
%TO.C,R4*%
X159890000Y-63400000D03*
X160910000Y-63400000D03*
%TD*%
%TO.C,R2*%
X111215000Y-65200000D03*
X112235000Y-65200000D03*
%TD*%
D15*
%TO.C,C3*%
X145100000Y-51500000D03*
X146650000Y-51500000D03*
%TD*%
D18*
%TO.C,XTAL1*%
X145899999Y-39839999D03*
X145899999Y-37299999D03*
X143699999Y-37299999D03*
X143699999Y-39839999D03*
%TD*%
D19*
%TO.C,U1*%
X140718499Y-49499999D03*
X140719999Y-49099999D03*
D20*
X140599999Y-48531499D03*
X140199999Y-48531499D03*
X139799999Y-48531499D03*
D21*
X139631499Y-49099999D03*
X139631499Y-49499999D03*
D20*
X139799999Y-50068499D03*
X140199999Y-50068499D03*
X140599999Y-50068499D03*
%TD*%
D22*
%TO.C,U2*%
X135325000Y-38150000D03*
X135325000Y-38649999D03*
X135325000Y-39149998D03*
X135325000Y-39649999D03*
X135325000Y-40149999D03*
X135325000Y-40650000D03*
X135325000Y-41149999D03*
X135325000Y-41649998D03*
D11*
X136049558Y-42374998D03*
X136549684Y-42374998D03*
X137049810Y-42374998D03*
X137549936Y-42374998D03*
X138050062Y-42374998D03*
X138550188Y-42374998D03*
X139050314Y-42374998D03*
X139550440Y-42374998D03*
D22*
X140274998Y-41649998D03*
X140274998Y-41149999D03*
X140274998Y-40650000D03*
X140274998Y-40149999D03*
X140274998Y-39649999D03*
X140274998Y-39149998D03*
X140274998Y-38649999D03*
X140274998Y-38150000D03*
D11*
X139550440Y-37425000D03*
X139050314Y-37425000D03*
X138550188Y-37425000D03*
X138050062Y-37425000D03*
X137549936Y-37425000D03*
X137049810Y-37425000D03*
X136549684Y-37425000D03*
X136049558Y-37425000D03*
%TD*%
D17*
%TO.C,R3*%
X132435000Y-62200000D03*
X131415000Y-62200000D03*
%TD*%
D15*
%TO.C,C7*%
X110950000Y-66400000D03*
X112500000Y-66400000D03*
%TD*%
D23*
%TO.C,U4*%
X135878999Y-32625000D03*
X135878999Y-33274998D03*
X135878999Y-33925000D03*
X135878999Y-34574998D03*
X141720999Y-34574998D03*
X141720999Y-33925000D03*
X141720999Y-33274998D03*
X141720999Y-32625000D03*
%TD*%
D15*
%TO.C,C1*%
X127200000Y-21550000D03*
X128750000Y-21550000D03*
%TD*%
%TO.C,C10*%
X161175000Y-66150000D03*
X159625000Y-66150000D03*
%TD*%
%TO.C,C6*%
X132700000Y-64900000D03*
X131150000Y-64900000D03*
%TD*%
%TO.C,C4*%
X145100000Y-53000000D03*
X146650000Y-53000000D03*
%TD*%
%TO.C,C2*%
X127200000Y-23070000D03*
X128750000Y-23070000D03*
%TD*%
%TO.C,C9*%
X159625000Y-64640000D03*
X161175000Y-64640000D03*
%TD*%
D23*
%TO.C,U5*%
X134758999Y-58144998D03*
X134758999Y-57495000D03*
X134758999Y-56844998D03*
X134758999Y-56195000D03*
X140600999Y-56195000D03*
X140600999Y-56844998D03*
X140600999Y-57495000D03*
X140600999Y-58144998D03*
%TD*%
D17*
%TO.C,R1*%
X127465000Y-24280000D03*
X128485000Y-24280000D03*
%TD*%
D16*
%TO.C,C13*%
X117325000Y-62400000D03*
X118875000Y-62400000D03*
%TD*%
D24*
%TO.C,C12*%
X148300000Y-41075000D03*
X148300000Y-39525000D03*
%TD*%
D15*
%TO.C,C5*%
X110950000Y-67900000D03*
X112500000Y-67900000D03*
%TD*%
%TO.C,C8*%
X132700000Y-63400000D03*
X131150000Y-63400000D03*
%TD*%
D23*
%TO.C,U3*%
X140520999Y-54374998D03*
X140520999Y-53725000D03*
X140520999Y-53074998D03*
X140520999Y-52425000D03*
X134678999Y-52425000D03*
X134678999Y-53074998D03*
X134678999Y-53725000D03*
X134678999Y-54374998D03*
%TD*%
M02*
