M48
; DRILL file {KiCad (7.0.0)} date Tue Apr 25 20:48:11 2023
; FORMAT={-:-/ absolute / inch / decimal}
; #@! TF.CreationDate,2023-04-25T20:48:11-05:00
; #@! TF.GenerationSoftware,Kicad,Pcbnew,(7.0.0)
; #@! TF.FileFunction,Plated,1,4,PTH
FMAT,2
INCH
; #@! TA.AperFunction,Plated,PTH,ComponentDrill
T1C0.0100
; #@! TA.AperFunction,Plated,PTH,ViaDrill
T2C0.0130
; #@! TA.AperFunction,Plated,PTH,ComponentDrill
T3C0.0354
; #@! TA.AperFunction,Plated,PTH,ComponentDrill
T4C0.0362
; #@! TA.AperFunction,Plated,PTH,ComponentDrill
T5C0.0394
; #@! TA.AperFunction,Plated,PTH,ComponentDrill
T6C0.0906
%
G90
G05
T1
X5.3787Y-1.5244
X5.3787Y-1.5554
X5.3787Y-1.5864
X5.3787Y-1.6174
X5.4097Y-1.5244
X5.4097Y-1.5554
X5.4097Y-1.5864
X5.4097Y-1.6174
X5.4407Y-1.5244
X5.4407Y-1.5554
X5.4407Y-1.5864
X5.4407Y-1.6174
X5.4717Y-1.5244
X5.4717Y-1.5554
X5.4717Y-1.5864
X5.4717Y-1.6174
T2
X4.7953Y-1.9528
X4.8504Y-2.063
X4.874Y-2.122
X4.8898Y-1.8386
X4.9409Y-1.7874
X4.9961Y-2.1102
X5.0097Y-1.6417
X5.0276Y-1.7835
X5.0827Y-1.7992
X5.1102Y-2.0354
X5.2598Y-2.1142
X5.2953Y-1.3346
X5.4173Y-1.2835
X5.4361Y-1.7021
X5.4625Y-1.7219
X5.4803Y-1.9882
X5.4921Y-2.1457
X5.5207Y-1.9988
X5.5551Y-1.9764
X5.5709Y-2.0906
X5.7126Y-2.126
X5.8661Y-2.2165
T3
X4.6255Y-2.7295
X4.7239Y-2.7295
X4.8027Y-2.7295
X4.9011Y-2.7295
X5.9641Y-2.7295
X6.0625Y-2.7295
X6.1412Y-2.7295
X6.2397Y-2.7295
T4
X5.3819Y-1.0
X5.3819Y-1.0787
X5.3855Y-2.6626
X5.3855Y-2.7413
X5.4803Y-1.0
X5.4803Y-1.0787
X5.4839Y-2.6626
X5.4839Y-2.7413
T5
X5.6593Y-1.7756
X5.7593Y-1.7756
X5.8593Y-1.7756
T6
X4.5664Y-2.8346
X4.9601Y-2.8346
X5.1941Y-0.8933
X5.1977Y-2.848
X5.6681Y-0.8933
X5.6717Y-2.848
X5.905Y-2.8346
X6.2987Y-2.8346
T0
M30
