%TF.GenerationSoftware,KiCad,Pcbnew,(7.0.0)*%
%TF.CreationDate,2023-04-25T20:48:09-05:00*%
%TF.ProjectId,GP2040-CE Planter,47503230-3430-42d4-9345-20506c616e74,rev?*%
%TF.SameCoordinates,Original*%
%TF.FileFunction,Copper,L1,Top*%
%TF.FilePolarity,Positive*%
%FSLAX46Y46*%
G04 Gerber Fmt 4.6, Leading zero omitted, Abs format (unit mm)*
G04 Created by KiCad (PCBNEW (7.0.0)) date 2023-04-25 20:48:09*
%MOMM*%
%LPD*%
G01*
G04 APERTURE LIST*
G04 Aperture macros list*
%AMRoundRect*
0 Rectangle with rounded corners*
0 $1 Rounding radius*
0 $2 $3 $4 $5 $6 $7 $8 $9 X,Y pos of 4 corners*
0 Add a 4 corners polygon primitive as box body*
4,1,4,$2,$3,$4,$5,$6,$7,$8,$9,$2,$3,0*
0 Add four circle primitives for the rounded corners*
1,1,$1+$1,$2,$3*
1,1,$1+$1,$4,$5*
1,1,$1+$1,$6,$7*
1,1,$1+$1,$8,$9*
0 Add four rect primitives between the rounded corners*
20,1,$1+$1,$2,$3,$4,$5,0*
20,1,$1+$1,$4,$5,$6,$7,0*
20,1,$1+$1,$6,$7,$8,$9,0*
20,1,$1+$1,$8,$9,$2,$3,0*%
G04 Aperture macros list end*
%TA.AperFunction,SMDPad,CuDef*%
%ADD10R,0.800001X0.549999*%
%TD*%
%TA.AperFunction,ComponentPad*%
%ADD11R,1.428000X1.428000*%
%TD*%
%TA.AperFunction,ComponentPad*%
%ADD12C,1.428000*%
%TD*%
%TA.AperFunction,ComponentPad*%
%ADD13C,3.316000*%
%TD*%
%TA.AperFunction,SMDPad,CuDef*%
%ADD14R,0.280000X0.850000*%
%TD*%
%TA.AperFunction,SMDPad,CuDef*%
%ADD15R,2.400000X1.650000*%
%TD*%
%TA.AperFunction,SMDPad,CuDef*%
%ADD16RoundRect,0.200000X-0.275000X0.200000X-0.275000X-0.200000X0.275000X-0.200000X0.275000X0.200000X0*%
%TD*%
%TA.AperFunction,SMDPad,CuDef*%
%ADD17RoundRect,0.200000X0.275000X-0.200000X0.275000X0.200000X-0.275000X0.200000X-0.275000X-0.200000X0*%
%TD*%
%TA.AperFunction,SMDPad,CuDef*%
%ADD18R,3.403600X1.498600*%
%TD*%
%TA.AperFunction,SMDPad,CuDef*%
%ADD19RoundRect,0.225000X-0.225000X-0.250000X0.225000X-0.250000X0.225000X0.250000X-0.225000X0.250000X0*%
%TD*%
%TA.AperFunction,ComponentPad*%
%ADD20R,1.700000X1.700000*%
%TD*%
%TA.AperFunction,ComponentPad*%
%ADD21O,1.700000X1.700000*%
%TD*%
%TA.AperFunction,SMDPad,CuDef*%
%ADD22RoundRect,0.225000X0.225000X0.250000X-0.225000X0.250000X-0.225000X-0.250000X0.225000X-0.250000X0*%
%TD*%
%TA.AperFunction,SMDPad,CuDef*%
%ADD23RoundRect,0.135000X-0.135000X-0.185000X0.135000X-0.185000X0.135000X0.185000X-0.135000X0.185000X0*%
%TD*%
%TA.AperFunction,ComponentPad*%
%ADD24R,1.408000X1.408000*%
%TD*%
%TA.AperFunction,ComponentPad*%
%ADD25C,1.408000*%
%TD*%
%TA.AperFunction,SMDPad,CuDef*%
%ADD26R,1.600000X1.500000*%
%TD*%
%TA.AperFunction,SMDPad,CuDef*%
%ADD27R,0.663000X0.225000*%
%TD*%
%TA.AperFunction,SMDPad,CuDef*%
%ADD28R,0.225000X0.563000*%
%TD*%
%TA.AperFunction,SMDPad,CuDef*%
%ADD29R,0.563000X0.225000*%
%TD*%
%TA.AperFunction,SMDPad,CuDef*%
%ADD30R,0.850000X0.280000*%
%TD*%
%TA.AperFunction,SMDPad,CuDef*%
%ADD31R,3.450001X3.450001*%
%TD*%
%TA.AperFunction,ComponentPad*%
%ADD32C,0.508000*%
%TD*%
%TA.AperFunction,SMDPad,CuDef*%
%ADD33R,1.473200X0.355600*%
%TD*%
%TA.AperFunction,SMDPad,CuDef*%
%ADD34RoundRect,0.225000X-0.250000X0.225000X-0.250000X-0.225000X0.250000X-0.225000X0.250000X0.225000X0*%
%TD*%
%TA.AperFunction,ViaPad*%
%ADD35C,0.685800*%
%TD*%
%TA.AperFunction,Conductor*%
%ADD36C,0.152400*%
%TD*%
G04 APERTURE END LIST*
%TO.C,U6*%
G36*
X127600000Y-48075000D02*
G01*
X127100000Y-48075000D01*
X127100000Y-47825000D01*
X127600000Y-47825000D01*
X127600000Y-48075000D01*
G37*
G36*
X124700000Y-48075000D02*
G01*
X124200000Y-48075000D01*
X124200000Y-47825000D01*
X124700000Y-47825000D01*
X124700000Y-48075000D01*
G37*
G36*
X127600000Y-48575000D02*
G01*
X127100000Y-48575000D01*
X127100000Y-48325000D01*
X127600000Y-48325000D01*
X127600000Y-48575000D01*
G37*
G36*
X124700000Y-48575000D02*
G01*
X124200000Y-48575000D01*
X124200000Y-48325000D01*
X124700000Y-48325000D01*
X124700000Y-48575000D01*
G37*
%TD*%
D10*
%TO.P,U7,1,IN*%
%TO.N,VBUS*%
X152875000Y-39550000D03*
%TO.P,U7,2,GND*%
%TO.N,GND*%
X152875000Y-38599999D03*
%TO.P,U7,3,EN*%
%TO.N,VBUS*%
X152875000Y-37650001D03*
%TO.P,U7,4,NC*%
%TO.N,unconnected-(U7-NC-Pad4)*%
X150325000Y-37650001D03*
%TO.P,U7,5,OUT*%
%TO.N,+3.3V*%
X150325000Y-39550000D03*
%TD*%
D11*
%TO.P,J3,1,VBUS*%
%TO.N,/DN_2_VBUS*%
X139290749Y-67629999D03*
D12*
%TO.P,J3,2,D-*%
%TO.N,/DB-*%
X136790750Y-67630000D03*
%TO.P,J3,3,D+*%
%TO.N,/DB+*%
X136790750Y-69630000D03*
%TO.P,J3,4,GND*%
%TO.N,GND*%
X139290750Y-69630000D03*
D13*
%TO.P,J3,SH1,SHIELD*%
%TO.N,Earth*%
X132020750Y-72340000D03*
%TO.P,J3,SH2,SHIELD__1*%
X144060750Y-72340000D03*
%TD*%
D14*
%TO.P,U6,1,GND*%
%TO.N,GND*%
X126900000Y-46724998D03*
%TO.P,U6,2,IN*%
%TO.N,VBUS*%
X126399998Y-46724998D03*
%TO.P,U6,3,IN*%
X125899999Y-46724998D03*
%TO.P,U6,4,EN1*%
%TO.N,/PWRCTL1_BATEN1*%
X125400000Y-46724998D03*
%TO.P,U6,5,EN2*%
%TO.N,/PWRCTL2_BATEN2*%
X124899998Y-46724998D03*
%TO.P,U6,6,\u002AFAULT2*%
%TO.N,/OVERCUR2_N*%
X124899998Y-49675000D03*
%TO.P,U6,7,ILIM*%
%TO.N,Net-(U6-ILIM)*%
X125400000Y-49675000D03*
%TO.P,U6,8,OUT2*%
%TO.N,/DN_1_VBUS*%
X125899999Y-49675000D03*
%TO.P,U6,9,OUT1*%
%TO.N,/DN_2_VBUS*%
X126399998Y-49675000D03*
%TO.P,U6,10,\u002AFAULT1*%
%TO.N,/OVERCUR1_N*%
X126900000Y-49675000D03*
D15*
%TO.P,U6,11*%
%TO.N,N/C*%
X125899999Y-48199999D03*
%TD*%
D16*
%TO.P,R7,1*%
%TO.N,Net-(U6-ILIM)*%
X125400000Y-51475000D03*
%TO.P,R7,2*%
%TO.N,GND*%
X125400000Y-53125000D03*
%TD*%
D17*
%TO.P,R6,1*%
%TO.N,+3.3V*%
X123200000Y-51325000D03*
%TO.P,R6,2*%
%TO.N,/OVERCUR2_N*%
X123200000Y-49675000D03*
%TD*%
D16*
%TO.P,R5,1*%
%TO.N,/OVERCUR1_N*%
X128600000Y-49675000D03*
%TO.P,R5,2*%
%TO.N,+3.3V*%
X128600000Y-51325000D03*
%TD*%
D18*
%TO.P,C17,1*%
%TO.N,/DN_2_VBUS*%
X151496399Y-56399999D03*
%TO.P,C17,2*%
%TO.N,GND*%
X158303599Y-56399999D03*
%TD*%
%TO.P,C14,1*%
%TO.N,/DN_1_VBUS*%
X122003599Y-57099999D03*
%TO.P,C14,2*%
%TO.N,GND*%
X115196399Y-57099999D03*
%TD*%
D19*
%TO.P,C11,1*%
%TO.N,GND*%
X125125000Y-44100000D03*
%TO.P,C11,2*%
%TO.N,VBUS*%
X126675000Y-44100000D03*
%TD*%
%TO.P,C15,2*%
%TO.N,GND*%
X153075000Y-62100000D03*
%TO.P,C15,1*%
%TO.N,/DN_2_VBUS*%
X151525000Y-62100000D03*
%TD*%
D20*
%TO.P,J4,1,Pin_1*%
%TO.N,/SEL*%
X148824999Y-45099999D03*
D21*
%TO.P,J4,2,Pin_2*%
%TO.N,GND*%
X146284999Y-45099999D03*
%TO.P,J4,3,Pin_3*%
%TO.N,/OEN*%
X143744999Y-45099999D03*
%TD*%
D22*
%TO.P,C16,1*%
%TO.N,VBUS*%
X152775000Y-36200000D03*
%TO.P,C16,2*%
%TO.N,GND*%
X151225000Y-36200000D03*
%TD*%
D23*
%TO.P,R4,1*%
%TO.N,GND*%
X159890000Y-63400000D03*
%TO.P,R4,2*%
%TO.N,Earth*%
X160910000Y-63400000D03*
%TD*%
%TO.P,R2,1*%
%TO.N,GND*%
X111215000Y-65200000D03*
%TO.P,R2,2*%
%TO.N,Earth*%
X112235000Y-65200000D03*
%TD*%
D24*
%TO.P,J5,1,VBUS*%
%TO.N,/DN_2_VBUS*%
X151487499Y-69329999D03*
D25*
%TO.P,J5,2,D-*%
%TO.N,/DN_2_D-*%
X153987500Y-69330000D03*
%TO.P,J5,3,D+*%
%TO.N,/DN_2_D+*%
X155987500Y-69330000D03*
%TO.P,J5,4,GND*%
%TO.N,GND*%
X158487500Y-69330000D03*
D13*
%TO.P,J5,SH1,SHIELD*%
%TO.N,Earth*%
X149987500Y-72000000D03*
%TO.P,J5,SH2,SHIELD__1*%
X159987500Y-72000000D03*
%TD*%
D19*
%TO.P,C3,1*%
%TO.N,+3.3V*%
X145100000Y-51500000D03*
%TO.P,C3,2*%
%TO.N,GND*%
X146650000Y-51500000D03*
%TD*%
D26*
%TO.P,XTAL1,1,OE/ST/NC*%
%TO.N,unconnected-(XTAL1-OE{slash}ST{slash}NC-Pad1)*%
X145899999Y-39839999D03*
%TO.P,XTAL1,2,GND*%
%TO.N,GND*%
X145899999Y-37299999D03*
%TO.P,XTAL1,3,OUT*%
%TO.N,/XI*%
X143699999Y-37299999D03*
%TO.P,XTAL1,4,VDD*%
%TO.N,+3.3V*%
X143699999Y-39839999D03*
%TD*%
D27*
%TO.P,U1,1,D+*%
%TO.N,/DN_2_D+*%
X140718499Y-49499999D03*
%TO.P,U1,2,D-*%
%TO.N,/DN_2_D-*%
X140719999Y-49099999D03*
D28*
%TO.P,U1,3,GND*%
%TO.N,GND*%
X140599999Y-48531499D03*
%TO.P,U1,4,DA-*%
%TO.N,/DA+*%
X140199999Y-48531499D03*
%TO.P,U1,5,DA+*%
%TO.N,/DA-*%
X139799999Y-48531499D03*
D29*
%TO.P,U1,6,DB-*%
%TO.N,/DB-*%
X139631499Y-49099999D03*
%TO.P,U1,7,DB+*%
%TO.N,/DB+*%
X139631499Y-49499999D03*
D28*
%TO.P,U1,8,OEN*%
%TO.N,/OEN*%
X139799999Y-50068499D03*
%TO.P,U1,9,VCC*%
%TO.N,+3.3V*%
X140199999Y-50068499D03*
%TO.P,U1,10,SEL*%
%TO.N,/SEL*%
X140599999Y-50068499D03*
%TD*%
D30*
%TO.P,U2,1,DP0*%
%TO.N,/UP_D+*%
X135325000Y-38150000D03*
%TO.P,U2,2,DM0*%
%TO.N,/UP_D-*%
X135325000Y-38649999D03*
%TO.P,U2,3,VCC*%
%TO.N,+3.3V*%
X135325000Y-39149998D03*
%TO.P,U2,4,\u002ARESET*%
%TO.N,GND*%
X135325000Y-39649999D03*
%TO.P,U2,5,EECLK*%
%TO.N,unconnected-(U2-EECLK-Pad5)*%
X135325000Y-40149999D03*
%TO.P,U2,6,EEDATA/GANGED*%
%TO.N,GND*%
X135325000Y-40650000D03*
%TO.P,U2,7,GND*%
X135325000Y-41149999D03*
%TO.P,U2,8,BUSPWR*%
%TO.N,+3.3V*%
X135325000Y-41649998D03*
D14*
%TO.P,U2,9,\u002APWRON1*%
%TO.N,/PWRCTL1_BATEN1*%
X136049558Y-42374998D03*
%TO.P,U2,10,\u002AOVRCUR1*%
%TO.N,/OVERCUR1_N*%
X136549684Y-42374998D03*
%TO.P,U2,11,DM1*%
%TO.N,/DN_1_D-*%
X137049810Y-42374998D03*
%TO.P,U2,12,DP1*%
%TO.N,/DN_1_D+*%
X137549936Y-42374998D03*
%TO.P,U2,13,\u002APWRON2*%
%TO.N,/PWRCTL2_BATEN2*%
X138050062Y-42374998D03*
%TO.P,U2,14,\u002AOVRCUR2*%
%TO.N,/OVERCUR2_N*%
X138550188Y-42374998D03*
%TO.P,U2,15,DM2*%
%TO.N,/DA-*%
X139050314Y-42374998D03*
%TO.P,U2,16,DP2*%
%TO.N,/DA+*%
X139550440Y-42374998D03*
D30*
%TO.P,U2,17,\u002APWRON3*%
%TO.N,unconnected-(U2-\u002APWRON3-Pad17)*%
X140274998Y-41649998D03*
%TO.P,U2,18,\u002AOVRCUR3*%
%TO.N,unconnected-(U2-\u002AOVRCUR3-Pad18)*%
X140274998Y-41149999D03*
%TO.P,U2,19,DM3*%
%TO.N,unconnected-(U2-DM3-Pad19)*%
X140274998Y-40650000D03*
%TO.P,U2,20,DP3*%
%TO.N,unconnected-(U2-DP3-Pad20)*%
X140274998Y-40149999D03*
%TO.P,U2,21,\u002APWRON4*%
%TO.N,unconnected-(U2-\u002APWRON4-Pad21)*%
X140274998Y-39649999D03*
%TO.P,U2,22,\u002AOVRCUR4*%
%TO.N,unconnected-(U2-\u002AOVRCUR4-Pad22)*%
X140274998Y-39149998D03*
%TO.P,U2,23,DM4*%
%TO.N,unconnected-(U2-DM4-Pad23)*%
X140274998Y-38649999D03*
%TO.P,U2,24,DP4*%
%TO.N,unconnected-(U2-DP4-Pad24)*%
X140274998Y-38150000D03*
D14*
%TO.P,U2,25,VCC*%
%TO.N,+3.3V*%
X139550440Y-37425000D03*
%TO.P,U2,26,\u002AEXTMEM*%
X139050314Y-37425000D03*
%TO.P,U2,27,TSTPLL/48MCLK*%
%TO.N,unconnected-(U2-TSTPLL{slash}48MCLK-Pad27)*%
X138550188Y-37425000D03*
%TO.P,U2,28,GND*%
%TO.N,GND*%
X138050062Y-37425000D03*
%TO.P,U2,29,XTAL2*%
%TO.N,unconnected-(U2-XTAL2-Pad29)*%
X137549936Y-37425000D03*
%TO.P,U2,30,XTAL1*%
%TO.N,/XI*%
X137049810Y-37425000D03*
%TO.P,U2,31,TSTMODE*%
%TO.N,GND*%
X136549684Y-37425000D03*
%TO.P,U2,32,SUSPND*%
%TO.N,unconnected-(U2-SUSPND-Pad32)*%
X136049558Y-37425000D03*
D31*
%TO.P,U2,33,EPAD*%
%TO.N,GND*%
X137799999Y-39899999D03*
D32*
%TO.P,U2,V*%
%TO.N,N/C*%
X136618900Y-38718900D03*
X136618900Y-39506300D03*
X136618900Y-40293700D03*
X136618900Y-41081100D03*
X137406300Y-38718900D03*
X137406300Y-39506300D03*
X137406300Y-40293700D03*
X137406300Y-41081100D03*
X138193700Y-38718900D03*
X138193700Y-39506300D03*
X138193700Y-40293700D03*
X138193700Y-41081100D03*
X138981100Y-38718900D03*
X138981100Y-39506300D03*
X138981100Y-40293700D03*
X138981100Y-41081100D03*
%TD*%
D23*
%TO.P,R3,2*%
%TO.N,Earth*%
X132435000Y-62200000D03*
%TO.P,R3,1*%
%TO.N,GND*%
X131415000Y-62200000D03*
%TD*%
D19*
%TO.P,C7,1*%
%TO.N,GND*%
X110950000Y-66400000D03*
%TO.P,C7,2*%
%TO.N,Earth*%
X112500000Y-66400000D03*
%TD*%
D33*
%TO.P,U4,1,GND*%
%TO.N,GND*%
X135878999Y-32625000D03*
%TO.P,U4,2,C*%
%TO.N,/UP_D+*%
X135878999Y-33274998D03*
%TO.P,U4,3,GND*%
%TO.N,GND*%
X135878999Y-33925000D03*
%TO.P,U4,4,D*%
%TO.N,/UP_D-*%
X135878999Y-34574998D03*
%TO.P,U4,5,GND*%
%TO.N,GND*%
X141720999Y-34574998D03*
%TO.P,U4,6,B*%
%TO.N,unconnected-(U4-B-Pad6)*%
X141720999Y-33925000D03*
%TO.P,U4,7,GND*%
%TO.N,GND*%
X141720999Y-33274998D03*
%TO.P,U4,8,A*%
%TO.N,unconnected-(U4-A-Pad8)*%
X141720999Y-32625000D03*
%TD*%
D19*
%TO.P,C1,1*%
%TO.N,GND*%
X127200000Y-21550000D03*
%TO.P,C1,2*%
%TO.N,Earth*%
X128750000Y-21550000D03*
%TD*%
D13*
%TO.P,J1,SH2,SHIELD__1*%
%TO.N,Earth*%
X131930000Y-22690000D03*
%TO.P,J1,SH1,SHIELD*%
X143970000Y-22690000D03*
D12*
%TO.P,J1,4,GND*%
%TO.N,GND*%
X136700000Y-25400000D03*
%TO.P,J1,3,D+*%
%TO.N,/UP_D+*%
X139200000Y-25400000D03*
%TO.P,J1,2,D-*%
%TO.N,/UP_D-*%
X139200000Y-27400000D03*
D11*
%TO.P,J1,1,VBUS*%
%TO.N,VBUS*%
X136699999Y-27399999D03*
%TD*%
D19*
%TO.P,C10,2*%
%TO.N,Earth*%
X161175000Y-66150000D03*
%TO.P,C10,1*%
%TO.N,GND*%
X159625000Y-66150000D03*
%TD*%
%TO.P,C6,2*%
%TO.N,Earth*%
X132700000Y-64900000D03*
%TO.P,C6,1*%
%TO.N,GND*%
X131150000Y-64900000D03*
%TD*%
%TO.P,C4,1*%
%TO.N,+3.3V*%
X145100000Y-53000000D03*
%TO.P,C4,2*%
%TO.N,GND*%
X146650000Y-53000000D03*
%TD*%
%TO.P,C2,1*%
%TO.N,GND*%
X127200000Y-23070000D03*
%TO.P,C2,2*%
%TO.N,Earth*%
X128750000Y-23070000D03*
%TD*%
%TO.P,C9,1*%
%TO.N,GND*%
X159625000Y-64640000D03*
%TO.P,C9,2*%
%TO.N,Earth*%
X161175000Y-64640000D03*
%TD*%
D13*
%TO.P,J2,SH2,SHIELD__1*%
%TO.N,Earth*%
X125987500Y-72000000D03*
%TO.P,J2,SH1,SHIELD*%
X115987500Y-72000000D03*
D25*
%TO.P,J2,4,GND*%
%TO.N,GND*%
X124487500Y-69330000D03*
%TO.P,J2,3,D+*%
%TO.N,/DN_1_D+*%
X121987500Y-69330000D03*
%TO.P,J2,2,D-*%
%TO.N,/DN_1_D-*%
X119987500Y-69330000D03*
D24*
%TO.P,J2,1,VBUS*%
%TO.N,/DN_1_VBUS*%
X117487499Y-69329999D03*
%TD*%
D33*
%TO.P,U5,8,A*%
%TO.N,unconnected-(U5-A-Pad8)*%
X134758999Y-58144998D03*
%TO.P,U5,7,GND*%
%TO.N,GND*%
X134758999Y-57495000D03*
%TO.P,U5,6,B*%
%TO.N,unconnected-(U5-B-Pad6)*%
X134758999Y-56844998D03*
%TO.P,U5,5,GND*%
%TO.N,GND*%
X134758999Y-56195000D03*
%TO.P,U5,4,D*%
%TO.N,/DB-*%
X140600999Y-56195000D03*
%TO.P,U5,3,GND*%
%TO.N,GND*%
X140600999Y-56844998D03*
%TO.P,U5,2,C*%
%TO.N,/DB+*%
X140600999Y-57495000D03*
%TO.P,U5,1,GND*%
%TO.N,GND*%
X140600999Y-58144998D03*
%TD*%
D23*
%TO.P,R1,1*%
%TO.N,GND*%
X127465000Y-24280000D03*
%TO.P,R1,2*%
%TO.N,Earth*%
X128485000Y-24280000D03*
%TD*%
D22*
%TO.P,C13,2*%
%TO.N,GND*%
X117325000Y-62400000D03*
%TO.P,C13,1*%
%TO.N,/DN_1_VBUS*%
X118875000Y-62400000D03*
%TD*%
D34*
%TO.P,C12,2*%
%TO.N,GND*%
X148300000Y-41075000D03*
%TO.P,C12,1*%
%TO.N,+3.3V*%
X148300000Y-39525000D03*
%TD*%
D19*
%TO.P,C5,1*%
%TO.N,GND*%
X110950000Y-67900000D03*
%TO.P,C5,2*%
%TO.N,Earth*%
X112500000Y-67900000D03*
%TD*%
%TO.P,C8,2*%
%TO.N,Earth*%
X132700000Y-63400000D03*
%TO.P,C8,1*%
%TO.N,GND*%
X131150000Y-63400000D03*
%TD*%
D33*
%TO.P,U3,1,GND*%
%TO.N,GND*%
X140520999Y-54374998D03*
%TO.P,U3,2,C*%
%TO.N,/DN_2_D+*%
X140520999Y-53725000D03*
%TO.P,U3,3,GND*%
%TO.N,GND*%
X140520999Y-53074998D03*
%TO.P,U3,4,D*%
%TO.N,/DN_2_D-*%
X140520999Y-52425000D03*
%TO.P,U3,5,GND*%
%TO.N,GND*%
X134678999Y-52425000D03*
%TO.P,U3,6,B*%
%TO.N,/DN_1_D-*%
X134678999Y-53074998D03*
%TO.P,U3,7,GND*%
%TO.N,GND*%
X134678999Y-53725000D03*
%TO.P,U3,8,A*%
%TO.N,/DN_1_D+*%
X134678999Y-54374998D03*
%TD*%
D35*
%TO.N,GND*%
X141500000Y-53100000D03*
X133600000Y-53700000D03*
X134500000Y-33900000D03*
X137600000Y-32600000D03*
X123800000Y-53900000D03*
X129100000Y-45700000D03*
%TO.N,+3.3V*%
X127246000Y-41700000D03*
X123200000Y-52400000D03*
X129800000Y-51700000D03*
X145100000Y-54000000D03*
X140226471Y-50770348D03*
%TO.N,/OVERCUR2_N*%
X138746836Y-43735178D03*
X121800000Y-49600000D03*
%TO.N,/PWRCTL2_BATEN2*%
X124200000Y-46700000D03*
X138077025Y-43232089D03*
%TO.N,/PWRCTL1_BATEN1*%
X125500000Y-45400000D03*
X127700000Y-45300000D03*
%TO.N,/DN_2_VBUS*%
X149000000Y-56300000D03*
X126900000Y-53600000D03*
%TO.N,GND*%
X139500000Y-54500000D03*
%TO.N,/SEL*%
X141100000Y-50200000D03*
%TO.N,/OEN*%
X139200000Y-50500000D03*
%TD*%
D36*
%TO.N,/DN_2_D+*%
X155139901Y-70177599D02*
X155987500Y-69330000D01*
X152863128Y-75152400D02*
X155139901Y-72875627D01*
X149236872Y-75152400D02*
X152863128Y-75152400D01*
X148247600Y-74163128D02*
X149236872Y-75152400D01*
X148247600Y-73359182D02*
X148247600Y-74163128D01*
X147796119Y-72907701D02*
X148247600Y-73359182D01*
X147796119Y-71092300D02*
X147796119Y-72907701D01*
X148247600Y-70640818D02*
X147796119Y-71092300D01*
X148247600Y-60582654D02*
X148247600Y-70640818D01*
X145474759Y-57809811D02*
X145474759Y-57809812D01*
X145056736Y-57809813D02*
X145056736Y-57809812D01*
X145056735Y-57809814D02*
X145056736Y-57809813D01*
X144632472Y-57803573D02*
X144638712Y-57809813D01*
X144632471Y-57803573D02*
X144632472Y-57803573D01*
X141389947Y-53725001D02*
X144632473Y-56967527D01*
X145474710Y-57809859D02*
G75*
G03*
X145056736Y-57809812I-209010J-208941D01*
G01*
X145474759Y-57809812D02*
X148247600Y-60582654D01*
X155139901Y-72875627D02*
X155139901Y-70177599D01*
X144632472Y-57385550D02*
X144632473Y-57385550D01*
X144638688Y-57809837D02*
G75*
G03*
X145056735Y-57809814I209012J209037D01*
G01*
X144632510Y-57385588D02*
G75*
G03*
X144632471Y-57803573I208990J-209012D01*
G01*
X144632434Y-57385512D02*
G75*
G03*
X144632473Y-56967527I-208934J209012D01*
G01*
X140521000Y-53725001D02*
X141389947Y-53725001D01*
%TO.N,/DN_2_D-*%
X154835099Y-72749373D02*
X154835099Y-70177599D01*
X152736872Y-74847600D02*
X154835099Y-72749373D01*
X149363128Y-74847600D02*
X152736872Y-74847600D01*
X148552400Y-74036872D02*
X149363128Y-74847600D01*
X148552400Y-73232956D02*
X148552400Y-74036872D01*
X154835099Y-70177599D02*
X153987500Y-69330000D01*
X148100900Y-72781456D02*
X148552400Y-73232956D01*
X148100900Y-71218544D02*
X148100900Y-72781456D01*
X148552400Y-70767044D02*
X148100900Y-71218544D01*
X148552400Y-60456401D02*
X148552400Y-70767044D01*
X142071500Y-53975501D02*
X148552400Y-60456401D01*
X142071500Y-52863276D02*
X142071500Y-53975501D01*
X141736724Y-52528500D02*
X142071500Y-52863276D01*
X141263276Y-52528500D02*
X141736724Y-52528500D01*
X141123177Y-52668599D02*
X141263276Y-52528500D01*
X140764598Y-52668599D02*
X141123177Y-52668599D01*
X140521000Y-52425001D02*
X140764598Y-52668599D01*
%TO.N,GND*%
X141474999Y-53074999D02*
X141500000Y-53100000D01*
X140521000Y-53074999D02*
X141474999Y-53074999D01*
%TO.N,/DN_1_D+*%
X131495467Y-56689586D02*
X121139901Y-67045151D01*
X131495469Y-56689587D02*
X131495467Y-56689586D01*
X131998233Y-56768087D02*
X131919733Y-56689587D01*
X132422496Y-56768087D02*
X132422497Y-56768087D01*
X132343995Y-56265322D02*
X132422496Y-56343823D01*
X132343996Y-56265322D02*
X132343995Y-56265322D01*
X132343997Y-55841056D02*
X132343996Y-55841056D01*
X132343999Y-55841057D02*
X132343997Y-55841056D01*
X121139901Y-67045151D02*
X121139901Y-68482401D01*
X132846788Y-55919582D02*
X132768263Y-55841057D01*
X133271051Y-55919582D02*
X133271052Y-55919582D01*
X133192525Y-55416792D02*
X133271051Y-55495318D01*
X133192526Y-55416792D02*
X133192525Y-55416792D01*
X121139901Y-68482401D02*
X121987500Y-69330000D01*
X133810053Y-54374999D02*
X133192526Y-54992526D01*
X134679000Y-54374999D02*
X133810053Y-54374999D01*
X131998234Y-56768086D02*
G75*
G03*
X132422496Y-56768086I212131J212131D01*
G01*
X132344007Y-55841067D02*
G75*
G03*
X132343996Y-56265322I212093J-212133D01*
G01*
X132422541Y-56768132D02*
G75*
G03*
X132422496Y-56343823I-212141J212132D01*
G01*
X132768262Y-55841058D02*
G75*
G03*
X132344000Y-55841058I-212131J-212131D01*
G01*
X132846789Y-55919581D02*
G75*
G03*
X133271051Y-55919581I212131J212131D01*
G01*
X131919732Y-56689588D02*
G75*
G03*
X131495470Y-56689588I-212131J-212131D01*
G01*
X133271001Y-55919532D02*
G75*
G03*
X133271051Y-55495318I-212101J212132D01*
G01*
X133192567Y-54992567D02*
G75*
G03*
X133192526Y-55416792I212133J-212133D01*
G01*
%TO.N,/DN_1_D-*%
X120835099Y-68482401D02*
X119987500Y-69330000D01*
X120835099Y-66918900D02*
X120835099Y-68482401D01*
X133028500Y-54725499D02*
X120835099Y-66918900D01*
X133028500Y-53463276D02*
X133028500Y-54725499D01*
X133363276Y-53128500D02*
X133028500Y-53463276D01*
X134679000Y-53074999D02*
X134435398Y-53318601D01*
X133836724Y-53128500D02*
X133363276Y-53128500D01*
X134435398Y-53318601D02*
X134026825Y-53318601D01*
X134026825Y-53318601D02*
X133836724Y-53128500D01*
%TO.N,GND*%
X133625001Y-53725001D02*
X133600000Y-53700000D01*
X134679000Y-53725001D02*
X133625001Y-53725001D01*
%TO.N,/UP_D-*%
X135320200Y-34574999D02*
X135879000Y-34574999D01*
X135216701Y-34471500D02*
X135320200Y-34574999D01*
X133928500Y-34136724D02*
X134263276Y-34471500D01*
X133928500Y-33663276D02*
X133928500Y-34136724D01*
X134263276Y-34471500D02*
X135216701Y-34471500D01*
X134088124Y-33503652D02*
X133928500Y-33663276D01*
X133347600Y-32018913D02*
X133347600Y-32763128D01*
X133347600Y-32763128D02*
X134088124Y-33503652D01*
X135618913Y-29747600D02*
X133347600Y-32018913D01*
X137279191Y-29747600D02*
X135618913Y-29747600D01*
X137536872Y-29747600D02*
X137279191Y-29747600D01*
X137836872Y-29218684D02*
X137836872Y-29447600D01*
X138436872Y-29447600D02*
X138436872Y-29218684D01*
X139200000Y-27400000D02*
X139200000Y-29284472D01*
X138136872Y-28918672D02*
G75*
G03*
X137836872Y-29218684I28J-300028D01*
G01*
X138436916Y-29218684D02*
G75*
G03*
X138136872Y-28918684I-300016J-16D01*
G01*
X137536872Y-29747572D02*
G75*
G03*
X137836872Y-29447600I28J299972D01*
G01*
X138436900Y-29447600D02*
G75*
G03*
X138736872Y-29747600I300000J0D01*
G01*
X139200000Y-29284472D02*
X138736872Y-29747600D01*
%TO.N,/UP_D+*%
X139504800Y-25704800D02*
X139200000Y-25400000D01*
X139504800Y-26371762D02*
X139504800Y-25704800D01*
X140142600Y-27009562D02*
X139504800Y-26371762D01*
X140142600Y-27790438D02*
X140142600Y-27009562D01*
X139504800Y-28428238D02*
X140142600Y-27790438D01*
X139504800Y-29410728D02*
X139504800Y-28428238D01*
X138863128Y-30052400D02*
X139504800Y-29410728D01*
X135745169Y-30052400D02*
X138863128Y-30052400D01*
X133652400Y-32145169D02*
X135745169Y-30052400D01*
X133652400Y-32636872D02*
X133652400Y-32145169D01*
X134344028Y-33328500D02*
X133652400Y-32636872D01*
X135266699Y-33328500D02*
X134344028Y-33328500D01*
X135320200Y-33274999D02*
X135266699Y-33328500D01*
X135879000Y-33274999D02*
X135320200Y-33274999D01*
%TO.N,GND*%
X134525001Y-33925001D02*
X134500000Y-33900000D01*
X135879000Y-33925001D02*
X134525001Y-33925001D01*
X138274999Y-33274999D02*
X137600000Y-32600000D01*
X141721000Y-33274999D02*
X138274999Y-33274999D01*
X138314064Y-36357200D02*
X138314064Y-33314064D01*
X137211748Y-36357200D02*
X138314064Y-36357200D01*
X136549685Y-37019263D02*
X137211748Y-36357200D01*
X138314064Y-33314064D02*
X137600000Y-32600000D01*
X136549685Y-37425001D02*
X136549685Y-37019263D01*
X137600000Y-32600000D02*
X137574999Y-32625001D01*
X137574999Y-32625001D02*
X135879000Y-32625001D01*
%TO.N,Earth*%
X125987500Y-72000000D02*
X115987500Y-72000000D01*
%TO.N,GND*%
X128075001Y-46724999D02*
X129100000Y-45700000D01*
X126900001Y-46724999D02*
X128075001Y-46724999D01*
%TO.N,+3.3V*%
X127296001Y-41649999D02*
X127246000Y-41700000D01*
X135325001Y-41649999D02*
X127296001Y-41649999D01*
X123200000Y-52400000D02*
X123200000Y-51325000D01*
X129800000Y-51700000D02*
X128975000Y-51700000D01*
X128975000Y-51700000D02*
X128600000Y-51325000D01*
X150325001Y-46274999D02*
X150325001Y-39550001D01*
X145100000Y-51500000D02*
X150325001Y-46274999D01*
X145100000Y-53000000D02*
X145100000Y-51500000D01*
X140200000Y-50743877D02*
X140226471Y-50770348D01*
X145100000Y-54000000D02*
X145100000Y-53000000D01*
X140200000Y-50662535D02*
X140200000Y-50743877D01*
%TO.N,/OVERCUR2_N*%
X123125000Y-49600000D02*
X123200000Y-49675000D01*
X121800000Y-49600000D02*
X123125000Y-49600000D01*
X138648525Y-42473335D02*
X138648525Y-43636867D01*
X138550189Y-42374999D02*
X138648525Y-42473335D01*
X138648525Y-43636867D02*
X138746836Y-43735178D01*
%TO.N,/OVERCUR1_N*%
X129827084Y-49675000D02*
X128600000Y-49675000D01*
X136549685Y-42374999D02*
X136549685Y-42952399D01*
X136549685Y-42952399D02*
X129827084Y-49675000D01*
%TO.N,/PWRCTL2_BATEN2*%
X124875000Y-46700000D02*
X124899999Y-46724999D01*
X124200000Y-46700000D02*
X124875000Y-46700000D01*
X138050063Y-42374999D02*
X138050063Y-43205127D01*
X138050063Y-43205127D02*
X138077025Y-43232089D01*
%TO.N,/PWRCTL1_BATEN1*%
X125500000Y-46625000D02*
X125400001Y-46724999D01*
X136049559Y-42374999D02*
X130625001Y-42374999D01*
X130625001Y-42374999D02*
X127700000Y-45300000D01*
X125500000Y-45400000D02*
X125500000Y-46625000D01*
%TO.N,VBUS*%
X126675000Y-37425000D02*
X136700000Y-27400000D01*
X126675000Y-44100000D02*
X126675000Y-37425000D01*
X125900000Y-46724999D02*
X126399999Y-46724999D01*
X126399999Y-44375001D02*
X126399999Y-46724999D01*
X126675000Y-44100000D02*
X126399999Y-44375001D01*
%TO.N,/DN_2_VBUS*%
X151487500Y-62137500D02*
X151487500Y-69330000D01*
X151525000Y-62100000D02*
X151487500Y-62137500D01*
X151310632Y-56400000D02*
X150594700Y-57115932D01*
X151496400Y-56400000D02*
X151310632Y-56400000D01*
X150594700Y-57115932D02*
X150594700Y-61169700D01*
X150594700Y-61169700D02*
X151525000Y-62100000D01*
%TO.N,/DN_1_VBUS*%
X122956100Y-57100000D02*
X122003600Y-57100000D01*
X123857800Y-60333768D02*
X123857800Y-58001700D01*
X123857800Y-58001700D02*
X122956100Y-57100000D01*
X121791568Y-62400000D02*
X123857800Y-60333768D01*
X118875000Y-62400000D02*
X121791568Y-62400000D01*
X117487500Y-63787500D02*
X118875000Y-62400000D01*
X117487500Y-69330000D02*
X117487500Y-63787500D01*
%TO.N,Earth*%
X112500000Y-68512500D02*
X115987500Y-72000000D01*
X112500000Y-67900000D02*
X112500000Y-68512500D01*
X112235000Y-67635000D02*
X112500000Y-67900000D01*
X112235000Y-65200000D02*
X112235000Y-67635000D01*
X160910000Y-71077500D02*
X159987500Y-72000000D01*
X160910000Y-63400000D02*
X160910000Y-71077500D01*
X132020750Y-72340000D02*
X144060750Y-72340000D01*
X132020750Y-65579250D02*
X132020750Y-72340000D01*
X132700000Y-64900000D02*
X132020750Y-65579250D01*
X132700000Y-62465000D02*
X132700000Y-64900000D01*
X132435000Y-62200000D02*
X132700000Y-62465000D01*
%TO.N,/DN_2_VBUS*%
X149100000Y-56400000D02*
X151496400Y-56400000D01*
X149000000Y-56300000D02*
X149100000Y-56400000D01*
X126900000Y-50752402D02*
X126900000Y-53600000D01*
X126399999Y-50252401D02*
X126900000Y-50752402D01*
X126399999Y-49675001D02*
X126399999Y-50252401D01*
%TO.N,/DN_1_VBUS*%
X126103600Y-54396400D02*
X123400000Y-57100000D01*
X123400000Y-57100000D02*
X122003600Y-57100000D01*
X125900000Y-50893868D02*
X126103600Y-51097468D01*
X126103600Y-51097468D02*
X126103600Y-54396400D01*
X125900000Y-49675001D02*
X125900000Y-50893868D01*
%TO.N,Net-(U6-ILIM)*%
X125400001Y-49675001D02*
X125400000Y-51475000D01*
%TO.N,/OVERCUR1_N*%
X128600000Y-49675000D02*
X126900001Y-49675001D01*
%TO.N,/OVERCUR2_N*%
X123200000Y-49675000D02*
X124899999Y-49675001D01*
%TO.N,GND*%
X135480602Y-56195001D02*
X134759000Y-56195001D01*
X135724200Y-56438599D02*
X135480602Y-56195001D01*
X135724200Y-57251399D02*
X135724200Y-56438599D01*
X135480598Y-57495001D02*
X135724200Y-57251399D01*
X134759000Y-57495001D02*
X135480598Y-57495001D01*
X139625001Y-54374999D02*
X139500000Y-54500000D01*
X140521000Y-54374999D02*
X139625001Y-54374999D01*
X142853500Y-48531500D02*
X146285000Y-45100000D01*
X140600000Y-48531500D02*
X142853500Y-48531500D01*
%TO.N,+3.3V*%
X140200000Y-50068500D02*
X140200000Y-50662535D01*
%TO.N,/SEL*%
X140968500Y-50068500D02*
X141100000Y-50200000D01*
X140600000Y-50068500D02*
X140968500Y-50068500D01*
%TO.N,/OEN*%
X139200000Y-50500000D02*
X139368500Y-50500000D01*
X139368500Y-50500000D02*
X139800000Y-50068500D01*
%TO.N,+3.3V*%
X134768601Y-39149999D02*
X135325001Y-39149999D01*
X134300000Y-39618600D02*
X134768601Y-39149999D01*
X134300000Y-41202398D02*
X134300000Y-39618600D01*
X134747601Y-41649999D02*
X134300000Y-41202398D01*
X135325001Y-41649999D02*
X134747601Y-41649999D01*
%TO.N,GND*%
X138050063Y-38180037D02*
X137800000Y-38430100D01*
X138050063Y-37425001D02*
X138050063Y-38180037D01*
X136500000Y-38100000D02*
X136500000Y-38200000D01*
X136549685Y-38050315D02*
X136500000Y-38100000D01*
X136549685Y-37425001D02*
X136549685Y-38050315D01*
X136080100Y-39650000D02*
X136330100Y-39900000D01*
X135325001Y-39650000D02*
X136080100Y-39650000D01*
X134671401Y-39726200D02*
X134747601Y-39650000D01*
X134671401Y-40496400D02*
X134671401Y-39726200D01*
X134747601Y-39650000D02*
X135325001Y-39650000D01*
X135325001Y-41150000D02*
X134671401Y-40496400D01*
%TO.N,VBUS*%
X135700000Y-26400000D02*
X136700000Y-27400000D01*
X136600000Y-23300000D02*
X135700000Y-24200000D01*
X135700000Y-24200000D02*
X135700000Y-26400000D01*
X139875000Y-23300000D02*
X136600000Y-23300000D01*
X152775000Y-36200000D02*
X139875000Y-23300000D01*
X152875001Y-37650002D02*
X152875001Y-36300001D01*
X152875001Y-36300001D02*
X152775000Y-36200000D01*
X153000002Y-37650002D02*
X152875001Y-37650002D01*
X153503601Y-38153601D02*
X153000002Y-37650002D01*
X153000002Y-39550001D02*
X153503601Y-39046402D01*
X152875001Y-39550001D02*
X153000002Y-39550001D01*
X153503601Y-39046402D02*
X153503601Y-38153601D01*
%TO.N,+3.3V*%
X144678600Y-38861400D02*
X143700000Y-39840000D01*
X147636400Y-38861400D02*
X144678600Y-38861400D01*
X148300000Y-39525000D02*
X147636400Y-38861400D01*
X148325001Y-39550001D02*
X148300000Y-39525000D01*
X150325001Y-39550001D02*
X148325001Y-39550001D01*
X141285001Y-37425001D02*
X143700000Y-39840000D01*
X139050315Y-37425001D02*
X141285001Y-37425001D01*
%TO.N,/XI*%
X137228599Y-36771401D02*
X137049811Y-36950189D01*
X143171401Y-36771401D02*
X137228599Y-36771401D01*
X137049811Y-36950189D02*
X137049811Y-37425001D01*
X143700000Y-37300000D02*
X143171401Y-36771401D01*
%TO.N,/UP_D-*%
X136437800Y-34574999D02*
X135879000Y-34574999D01*
X136681398Y-34331401D02*
X136437800Y-34574999D01*
X136844200Y-34331401D02*
X136681398Y-34331401D01*
X136844200Y-34168599D02*
X136844200Y-34331401D01*
X136935400Y-34077399D02*
X136844200Y-34168599D01*
X137038751Y-34077399D02*
X136935400Y-34077399D01*
X137704464Y-35080008D02*
X137704464Y-34743112D01*
X134536872Y-35747600D02*
X137036872Y-35747600D01*
X134942401Y-38552400D02*
X134736872Y-38552400D01*
X135040001Y-38650000D02*
X134942401Y-38552400D01*
%TO.N,/UP_D+*%
X136437800Y-33274999D02*
X135879000Y-33274999D01*
X136681402Y-33518601D02*
X136437800Y-33274999D01*
X136844200Y-33518601D02*
X136681402Y-33518601D01*
X136844200Y-33681399D02*
X136844200Y-33518601D01*
%TO.N,/UP_D-*%
X133563451Y-37378979D02*
X133563451Y-36721021D01*
X133563451Y-36721021D02*
X134536872Y-35747600D01*
%TO.N,/UP_D+*%
X136935400Y-33772599D02*
X136844200Y-33681399D01*
X137165007Y-33772599D02*
X136935400Y-33772599D01*
%TO.N,/UP_D-*%
X137704464Y-34743112D02*
X137038751Y-34077399D01*
%TO.N,/UP_D+*%
X138009264Y-34616856D02*
X137165007Y-33772599D01*
X137163128Y-36052400D02*
X138009264Y-35206264D01*
%TO.N,/UP_D-*%
X134736872Y-38552400D02*
X133563451Y-37378979D01*
%TO.N,/UP_D+*%
X134663128Y-36052400D02*
X137163128Y-36052400D01*
%TO.N,/UP_D-*%
X135325001Y-38650000D02*
X135040001Y-38650000D01*
X137036872Y-35747600D02*
X137704464Y-35080008D01*
%TO.N,/UP_D+*%
X133868251Y-36847277D02*
X134663128Y-36052400D01*
X133868251Y-37252723D02*
X133868251Y-36847277D01*
X134863129Y-38247601D02*
X133868251Y-37252723D01*
X134942401Y-38247601D02*
X134863129Y-38247601D01*
X135040001Y-38150001D02*
X134942401Y-38247601D01*
X135325001Y-38150001D02*
X135040001Y-38150001D01*
X138009264Y-35206264D02*
X138009264Y-34616856D01*
%TO.N,/DA-*%
X139181841Y-42506525D02*
X139050315Y-42374999D01*
X139181841Y-43028599D02*
X139181841Y-42506525D01*
X139703915Y-43028599D02*
X139181841Y-43028599D01*
X139847600Y-43172284D02*
X139703915Y-43028599D01*
X139800000Y-48109249D02*
X139847600Y-48061649D01*
X139800000Y-48531500D02*
X139800000Y-48109249D01*
%TO.N,/DA+*%
X139550441Y-42444072D02*
X139550441Y-42374999D01*
X140152400Y-48061649D02*
X140152400Y-43046031D01*
X140152400Y-43046031D02*
X139550441Y-42444072D01*
X140200000Y-48109249D02*
X140152400Y-48061649D01*
X140200000Y-48531500D02*
X140200000Y-48109249D01*
%TO.N,/DA-*%
X139847600Y-48061649D02*
X139847600Y-43172284D01*
%TO.N,/DB-*%
X140844598Y-56438599D02*
X140601000Y-56195001D01*
X141566200Y-56692600D02*
X141566200Y-56438599D01*
X141782110Y-56692600D02*
X141566200Y-56692600D01*
X142051970Y-56962460D02*
X141782110Y-56692600D01*
X142539971Y-56962460D02*
X142051970Y-56962460D01*
X141566200Y-56438599D02*
X140844598Y-56438599D01*
X142847600Y-56654831D02*
X142539971Y-56962460D01*
X142847600Y-56163128D02*
X142847600Y-56654831D01*
X142236872Y-55552400D02*
X142847600Y-56163128D01*
X138836872Y-55552400D02*
X142236872Y-55552400D01*
X138147600Y-54863128D02*
X138836872Y-55552400D01*
X138147600Y-49736872D02*
X138147600Y-54863128D01*
X138736872Y-49147600D02*
X138147600Y-49736872D01*
X139161649Y-49147600D02*
X138736872Y-49147600D01*
X139209249Y-49100000D02*
X139161649Y-49147600D01*
X139631500Y-49100000D02*
X139209249Y-49100000D01*
%TO.N,/DB+*%
X140844602Y-57251399D02*
X140601000Y-57495001D01*
X141566200Y-57251399D02*
X140844602Y-57251399D01*
X141566200Y-56997402D02*
X141566200Y-57251399D01*
X141655856Y-56997402D02*
X141566200Y-56997402D01*
X141925714Y-57267260D02*
X141655856Y-56997402D01*
X143152400Y-56781087D02*
X142666227Y-57267260D01*
X138963128Y-55247600D02*
X142363128Y-55247600D01*
X138452400Y-54736872D02*
X138963128Y-55247600D01*
X138452400Y-49863128D02*
X138452400Y-54736872D01*
X138863128Y-49452400D02*
X138452400Y-49863128D01*
X139161649Y-49452400D02*
X138863128Y-49452400D01*
X142666227Y-57267260D02*
X141925714Y-57267260D01*
X139209249Y-49500000D02*
X139161649Y-49452400D01*
X139631500Y-49500000D02*
X139209249Y-49500000D01*
X142363128Y-55247600D02*
X143152400Y-56036872D01*
X143152400Y-56036872D02*
X143152400Y-56781087D01*
%TO.N,/DN_2_D-*%
X140766849Y-49146849D02*
X140720000Y-49100000D01*
X142162377Y-49146849D02*
X140766849Y-49146849D01*
X143355753Y-50340225D02*
X142162377Y-49146849D01*
X142881087Y-51552400D02*
X143355753Y-51077734D01*
X141063128Y-51552400D02*
X142881087Y-51552400D01*
X140521000Y-52425001D02*
X140521000Y-52094528D01*
%TO.N,/DN_2_D+*%
X140766849Y-49451651D02*
X140718500Y-49500000D01*
X142036123Y-49451651D02*
X140766849Y-49451651D01*
X143050953Y-50466481D02*
X142036123Y-49451651D01*
X143050953Y-50951478D02*
X143050953Y-50466481D01*
X142754831Y-51247600D02*
X143050953Y-50951478D01*
X140936872Y-51247600D02*
X142754831Y-51247600D01*
%TO.N,/DN_2_D-*%
X143355753Y-51077734D02*
X143355753Y-50340225D01*
%TO.N,/DN_2_D+*%
X140216200Y-51968272D02*
X140936872Y-51247600D01*
X139555800Y-52018601D02*
X140216200Y-52018601D01*
X139555800Y-53481399D02*
X139555800Y-52018601D01*
%TO.N,/DN_2_D-*%
X140521000Y-52094528D02*
X141063128Y-51552400D01*
%TO.N,/DN_2_D+*%
X140521000Y-53725001D02*
X140277398Y-53481399D01*
X140216200Y-52018601D02*
X140216200Y-51968272D01*
X140277398Y-53481399D02*
X139555800Y-53481399D01*
%TO.N,/DB-*%
X140357402Y-56438599D02*
X140601000Y-56195001D01*
X139635800Y-56438599D02*
X140357402Y-56438599D01*
X139635800Y-57160201D02*
X139635800Y-56438599D01*
X136790750Y-60005251D02*
X139635800Y-57160201D01*
X136790750Y-67630000D02*
X136790750Y-60005251D01*
%TO.N,/DB+*%
X139732053Y-57495001D02*
X140601000Y-57495001D01*
X137733350Y-68020438D02*
X137733350Y-67239562D01*
X137733350Y-67239562D02*
X137095550Y-66601762D01*
X137095550Y-66601762D02*
X137095550Y-60131504D01*
X137095550Y-60131504D02*
X139732053Y-57495001D01*
X137095550Y-68658238D02*
X137733350Y-68020438D01*
X137095550Y-69325200D02*
X137095550Y-68658238D01*
X136790750Y-69630000D02*
X137095550Y-69325200D01*
%TO.N,/DN_1_D-*%
X137049811Y-43012500D02*
X137049811Y-42374999D01*
X137147474Y-43110163D02*
X137049811Y-43012500D01*
X137147474Y-51475472D02*
X137147474Y-43110163D01*
%TO.N,/DN_1_D+*%
X135644200Y-53409799D02*
X137452274Y-51601725D01*
X137452274Y-43110163D02*
X137549937Y-43012500D01*
X135644200Y-54131401D02*
X135644200Y-53409799D01*
%TO.N,/DN_1_D-*%
X135547947Y-53074999D02*
X137147474Y-51475472D01*
%TO.N,/DN_1_D+*%
X137452274Y-51601725D02*
X137452274Y-43110163D01*
X134922598Y-54131401D02*
X135644200Y-54131401D01*
%TO.N,/DN_1_D-*%
X134679000Y-53074999D02*
X135547947Y-53074999D01*
%TO.N,/DN_1_D+*%
X137549937Y-43012500D02*
X137549937Y-42374999D01*
X134679000Y-54374999D02*
X134922598Y-54131401D01*
%TO.N,Earth*%
X131930000Y-22690000D02*
X143970000Y-22690000D01*
X130790000Y-21550000D02*
X131930000Y-22690000D01*
X128750000Y-21550000D02*
X130790000Y-21550000D01*
X128485000Y-21815000D02*
X128750000Y-21550000D01*
X128485000Y-24280000D02*
X128485000Y-21815000D01*
%TD*%
%TA.AperFunction,Conductor*%
%TO.N,GND*%
G36*
X136519659Y-43945931D02*
G01*
X136557259Y-43989954D01*
X136570774Y-44046249D01*
X136570774Y-51185233D01*
X136561335Y-51232686D01*
X136534455Y-51272914D01*
X135931441Y-51875926D01*
X135881516Y-51906357D01*
X135823196Y-51910528D01*
X135769449Y-51887511D01*
X135664794Y-51809165D01*
X135649377Y-51800748D01*
X135530241Y-51756312D01*
X135515267Y-51752774D01*
X135466714Y-51747554D01*
X135460118Y-51747201D01*
X134873126Y-51747201D01*
X134860250Y-51750651D01*
X134856800Y-51763527D01*
X134856800Y-52272699D01*
X134840187Y-52334699D01*
X134794800Y-52380086D01*
X134732800Y-52396699D01*
X134618367Y-52396699D01*
X134563522Y-52383911D01*
X134519990Y-52348184D01*
X134496749Y-52296887D01*
X134498593Y-52240602D01*
X134501200Y-52230874D01*
X134501200Y-51763527D01*
X134497749Y-51750651D01*
X134484874Y-51747201D01*
X133897882Y-51747201D01*
X133891285Y-51747554D01*
X133842732Y-51752774D01*
X133827758Y-51756312D01*
X133708622Y-51800748D01*
X133693210Y-51809163D01*
X133592307Y-51884699D01*
X133579898Y-51897108D01*
X133504362Y-51998011D01*
X133495947Y-52013423D01*
X133451511Y-52132559D01*
X133447973Y-52147533D01*
X133442753Y-52196086D01*
X133442400Y-52202683D01*
X133442400Y-52230875D01*
X133445850Y-52243750D01*
X133458726Y-52247201D01*
X133602962Y-52247201D01*
X133662389Y-52262369D01*
X133707277Y-52304161D01*
X133726646Y-52362354D01*
X133715757Y-52422712D01*
X133677273Y-52470467D01*
X133601667Y-52527066D01*
X133566516Y-52545454D01*
X133527356Y-52551800D01*
X133409199Y-52551800D01*
X133393014Y-52550739D01*
X133371335Y-52547885D01*
X133363276Y-52546824D01*
X133355217Y-52547885D01*
X133220788Y-52565582D01*
X133220782Y-52565583D01*
X133212727Y-52566644D01*
X133205220Y-52569753D01*
X133205214Y-52569755D01*
X133079948Y-52621642D01*
X133079946Y-52621643D01*
X133072438Y-52624753D01*
X133065995Y-52629696D01*
X133065988Y-52629701D01*
X132982277Y-52693937D01*
X132982276Y-52693938D01*
X132958415Y-52712246D01*
X132958411Y-52712249D01*
X132951969Y-52717193D01*
X132947024Y-52723636D01*
X132947021Y-52723640D01*
X132933706Y-52740992D01*
X132923015Y-52753182D01*
X132653182Y-53023015D01*
X132640992Y-53033706D01*
X132623640Y-53047021D01*
X132623636Y-53047024D01*
X132617193Y-53051969D01*
X132612248Y-53058412D01*
X132612245Y-53058416D01*
X132594050Y-53082127D01*
X132594013Y-53082176D01*
X132593985Y-53082213D01*
X132593985Y-53082214D01*
X132577725Y-53103405D01*
X132529701Y-53165990D01*
X132529698Y-53165993D01*
X132524754Y-53172438D01*
X132521645Y-53179943D01*
X132521643Y-53179947D01*
X132469754Y-53305217D01*
X132469752Y-53305222D01*
X132466644Y-53312727D01*
X132452609Y-53419338D01*
X132446824Y-53463276D01*
X132447885Y-53471335D01*
X132450739Y-53493014D01*
X132451800Y-53509199D01*
X132451800Y-54435260D01*
X132442361Y-54482713D01*
X132415481Y-54522941D01*
X120459781Y-66478639D01*
X120447591Y-66489330D01*
X120430239Y-66502645D01*
X120430235Y-66502648D01*
X120423792Y-66507593D01*
X120418847Y-66514036D01*
X120418844Y-66514040D01*
X120400594Y-66537823D01*
X120400589Y-66537830D01*
X120400584Y-66537837D01*
X120400584Y-66537838D01*
X120336300Y-66621614D01*
X120336297Y-66621617D01*
X120331353Y-66628062D01*
X120328244Y-66635566D01*
X120328243Y-66635569D01*
X120276353Y-66760841D01*
X120276351Y-66760846D01*
X120273243Y-66768351D01*
X120272183Y-66776402D01*
X120272181Y-66776410D01*
X120262390Y-66850788D01*
X120253423Y-66918900D01*
X120254484Y-66926959D01*
X120257338Y-66948638D01*
X120258399Y-66964823D01*
X120258399Y-68005948D01*
X120246646Y-68058641D01*
X120213615Y-68101346D01*
X120165568Y-68125967D01*
X120111613Y-68127836D01*
X120104750Y-68126553D01*
X120104742Y-68126552D01*
X120099113Y-68125500D01*
X119875887Y-68125500D01*
X119870261Y-68126551D01*
X119870257Y-68126552D01*
X119662098Y-68165464D01*
X119662095Y-68165464D01*
X119656461Y-68166518D01*
X119651121Y-68168586D01*
X119651113Y-68168589D01*
X119453650Y-68245087D01*
X119453645Y-68245089D01*
X119448308Y-68247157D01*
X119443436Y-68250173D01*
X119443433Y-68250175D01*
X119263388Y-68361653D01*
X119263380Y-68361658D01*
X119258517Y-68364670D01*
X119254286Y-68368526D01*
X119254282Y-68368530D01*
X119097790Y-68511190D01*
X119097780Y-68511200D01*
X119093550Y-68515057D01*
X119090101Y-68519623D01*
X119090092Y-68519634D01*
X118962478Y-68688624D01*
X118962475Y-68688628D01*
X118959026Y-68693196D01*
X118956471Y-68698326D01*
X118956471Y-68698327D01*
X118926999Y-68757515D01*
X118883214Y-68806447D01*
X118820581Y-68826159D01*
X118756664Y-68811126D01*
X118709384Y-68765562D01*
X118691999Y-68702244D01*
X118691999Y-68581439D01*
X118691999Y-68578128D01*
X118685591Y-68518517D01*
X118635296Y-68383669D01*
X118549046Y-68268454D01*
X118524628Y-68250175D01*
X118440931Y-68187519D01*
X118440930Y-68187518D01*
X118433831Y-68182204D01*
X118361633Y-68155276D01*
X118306252Y-68134620D01*
X118306250Y-68134619D01*
X118298983Y-68131909D01*
X118291270Y-68131079D01*
X118291267Y-68131079D01*
X118242680Y-68125855D01*
X118242669Y-68125854D01*
X118239373Y-68125500D01*
X118236051Y-68125500D01*
X118188200Y-68125500D01*
X118126200Y-68108887D01*
X118080813Y-68063500D01*
X118064200Y-68001500D01*
X118064200Y-64077739D01*
X118073639Y-64030286D01*
X118100519Y-63990058D01*
X118678758Y-63411818D01*
X118718986Y-63384938D01*
X118766439Y-63375499D01*
X119145195Y-63375499D01*
X119148344Y-63375499D01*
X119247708Y-63365349D01*
X119408697Y-63312003D01*
X119553044Y-63222968D01*
X119672968Y-63103044D01*
X119714566Y-63035603D01*
X119759673Y-62992422D01*
X119820105Y-62976700D01*
X121745645Y-62976700D01*
X121761830Y-62977761D01*
X121791568Y-62981676D01*
X121942117Y-62961856D01*
X122082406Y-62903746D01*
X122172630Y-62834515D01*
X122172630Y-62834514D01*
X122202875Y-62811307D01*
X122221138Y-62787504D01*
X122231823Y-62775320D01*
X124233120Y-60774023D01*
X124245304Y-60763338D01*
X124269107Y-60745075D01*
X124361546Y-60624606D01*
X124419656Y-60484317D01*
X124434500Y-60371565D01*
X124439476Y-60333768D01*
X124435561Y-60304030D01*
X124434500Y-60287845D01*
X124434500Y-58047622D01*
X124435561Y-58031436D01*
X124438415Y-58009759D01*
X124439476Y-58001700D01*
X124434034Y-57960362D01*
X124419656Y-57851151D01*
X124361546Y-57710862D01*
X124336765Y-57678567D01*
X124336765Y-57678566D01*
X124292315Y-57620638D01*
X124292314Y-57620636D01*
X124274054Y-57596840D01*
X124274053Y-57596839D01*
X124269107Y-57590393D01*
X124262660Y-57585446D01*
X124262658Y-57585444D01*
X124254412Y-57579116D01*
X124218687Y-57535584D01*
X124205899Y-57480741D01*
X124205899Y-57161039D01*
X124215338Y-57113586D01*
X124242218Y-57073358D01*
X125360507Y-55955069D01*
X126478920Y-54836655D01*
X126491104Y-54825970D01*
X126514907Y-54807707D01*
X126548985Y-54763296D01*
X126607347Y-54687238D01*
X126665456Y-54546949D01*
X126666517Y-54538882D01*
X126668135Y-54532847D01*
X126695760Y-54481964D01*
X126743475Y-54449171D01*
X126800877Y-54441615D01*
X126804993Y-54442047D01*
X126811355Y-54443400D01*
X126982142Y-54443400D01*
X126988645Y-54443400D01*
X127162061Y-54406540D01*
X127324023Y-54334429D01*
X127467454Y-54230221D01*
X127586084Y-54098469D01*
X127674729Y-53944931D01*
X127729514Y-53776319D01*
X127748046Y-53600000D01*
X127729514Y-53423681D01*
X127674729Y-53255069D01*
X127586084Y-53101531D01*
X127508549Y-53015420D01*
X127484936Y-52976887D01*
X127476700Y-52932449D01*
X127476700Y-51920599D01*
X127493064Y-51859032D01*
X127537837Y-51813715D01*
X127599202Y-51796608D01*
X127660962Y-51812227D01*
X127706817Y-51856449D01*
X127765647Y-51953766D01*
X127769528Y-51960185D01*
X127889815Y-52080472D01*
X128035394Y-52168478D01*
X128147131Y-52203296D01*
X128191542Y-52217135D01*
X128191544Y-52217135D01*
X128197804Y-52219086D01*
X128268384Y-52225500D01*
X128712015Y-52225500D01*
X128759467Y-52234938D01*
X128824451Y-52261856D01*
X128975000Y-52281676D01*
X128983059Y-52280615D01*
X129004738Y-52277761D01*
X129020923Y-52276700D01*
X129129146Y-52276700D01*
X129179580Y-52287420D01*
X129221295Y-52317726D01*
X129232546Y-52330221D01*
X129375977Y-52434429D01*
X129537939Y-52506540D01*
X129711355Y-52543400D01*
X129882142Y-52543400D01*
X129888645Y-52543400D01*
X130062061Y-52506540D01*
X130224023Y-52434429D01*
X130367454Y-52330221D01*
X130486084Y-52198469D01*
X130574729Y-52044931D01*
X130629514Y-51876319D01*
X130648046Y-51700000D01*
X130629514Y-51523681D01*
X130574729Y-51355069D01*
X130486084Y-51201531D01*
X130367454Y-51069779D01*
X130362196Y-51065959D01*
X130362194Y-51065957D01*
X130229281Y-50969391D01*
X130229280Y-50969390D01*
X130224023Y-50965571D01*
X130218085Y-50962927D01*
X130068003Y-50896105D01*
X130067998Y-50896103D01*
X130062061Y-50893460D01*
X130055705Y-50892109D01*
X130055699Y-50892107D01*
X129895008Y-50857952D01*
X129895003Y-50857951D01*
X129888645Y-50856600D01*
X129711355Y-50856600D01*
X129677574Y-50863780D01*
X129638067Y-50872177D01*
X129587320Y-50872346D01*
X129540755Y-50852173D01*
X129506171Y-50815036D01*
X129492340Y-50792157D01*
X129430472Y-50689815D01*
X129328338Y-50587680D01*
X129296244Y-50532094D01*
X129296244Y-50467906D01*
X129328338Y-50412319D01*
X129370694Y-50369963D01*
X129430472Y-50310185D01*
X129434355Y-50303761D01*
X129437908Y-50299227D01*
X129481236Y-50264213D01*
X129535519Y-50251700D01*
X129781161Y-50251700D01*
X129797346Y-50252761D01*
X129827084Y-50256676D01*
X129888003Y-50248656D01*
X129977633Y-50236856D01*
X130117922Y-50178746D01*
X130168251Y-50140127D01*
X130208146Y-50109515D01*
X130208146Y-50109514D01*
X130238391Y-50086307D01*
X130256654Y-50062504D01*
X130267339Y-50050320D01*
X136359092Y-43958568D01*
X136408456Y-43928318D01*
X136466172Y-43923776D01*
X136519659Y-43945931D01*
G37*
%TD.AperFunction*%
%TA.AperFunction,Conductor*%
G36*
X124245117Y-50261712D02*
G01*
X124286048Y-50290131D01*
X124308700Y-50326321D01*
X124308853Y-50326238D01*
X124310247Y-50328791D01*
X124312486Y-50332368D01*
X124313101Y-50334018D01*
X124313104Y-50334023D01*
X124316203Y-50342332D01*
X124321517Y-50349431D01*
X124321518Y-50349432D01*
X124391862Y-50443400D01*
X124402453Y-50457547D01*
X124517668Y-50543797D01*
X124569133Y-50562992D01*
X124590259Y-50570872D01*
X124640639Y-50605851D01*
X124668092Y-50660695D01*
X124665903Y-50721988D01*
X124634607Y-50774735D01*
X124569528Y-50839815D01*
X124565651Y-50846227D01*
X124565648Y-50846232D01*
X124485400Y-50978978D01*
X124485398Y-50978982D01*
X124481522Y-50985394D01*
X124479292Y-50992548D01*
X124479292Y-50992550D01*
X124432864Y-51141542D01*
X124432861Y-51141553D01*
X124430914Y-51147804D01*
X124430320Y-51154335D01*
X124430320Y-51154338D01*
X124426032Y-51201531D01*
X124424500Y-51218384D01*
X124424500Y-51731616D01*
X124424754Y-51734419D01*
X124424755Y-51734425D01*
X124426230Y-51750651D01*
X124430914Y-51802196D01*
X124432862Y-51808448D01*
X124432864Y-51808457D01*
X124463371Y-51906357D01*
X124481522Y-51964606D01*
X124485399Y-51971020D01*
X124485400Y-51971021D01*
X124538739Y-52059255D01*
X124569528Y-52110185D01*
X124574831Y-52115488D01*
X124672016Y-52212673D01*
X124704110Y-52268260D01*
X124704110Y-52332448D01*
X124672016Y-52388035D01*
X124575228Y-52484822D01*
X124566045Y-52496543D01*
X124485864Y-52629179D01*
X124479748Y-52642767D01*
X124433361Y-52791627D01*
X124430815Y-52804431D01*
X124425661Y-52861143D01*
X124428450Y-52871549D01*
X124441326Y-52875000D01*
X125402900Y-52875000D01*
X125464900Y-52891613D01*
X125510287Y-52937000D01*
X125526900Y-52999000D01*
X125526900Y-54106161D01*
X125517461Y-54153614D01*
X125490581Y-54193842D01*
X123868313Y-55816108D01*
X123821886Y-55845363D01*
X123767380Y-55851716D01*
X123761207Y-55851053D01*
X123756569Y-55850554D01*
X123756562Y-55850553D01*
X123753273Y-55850200D01*
X123749951Y-55850200D01*
X122826100Y-55850200D01*
X122764100Y-55833587D01*
X122718713Y-55788200D01*
X122702100Y-55726200D01*
X122702100Y-53388856D01*
X124425662Y-53388856D01*
X124430815Y-53445570D01*
X124433361Y-53458369D01*
X124479748Y-53607232D01*
X124485864Y-53620820D01*
X124566045Y-53753456D01*
X124575228Y-53765177D01*
X124684822Y-53874771D01*
X124696543Y-53883954D01*
X124829179Y-53964135D01*
X124842767Y-53970251D01*
X124991627Y-54016638D01*
X125004431Y-54019184D01*
X125065615Y-54024744D01*
X125071244Y-54025000D01*
X125133674Y-54025000D01*
X125146549Y-54021549D01*
X125150000Y-54008674D01*
X125150000Y-53391326D01*
X125146549Y-53378450D01*
X125133674Y-53375000D01*
X124441327Y-53375000D01*
X124428451Y-53378450D01*
X124425662Y-53388856D01*
X122702100Y-53388856D01*
X122702100Y-53292480D01*
X122717127Y-53233312D01*
X122758565Y-53188485D01*
X122816372Y-53168862D01*
X122876534Y-53179200D01*
X122937939Y-53206540D01*
X123111355Y-53243400D01*
X123282142Y-53243400D01*
X123288645Y-53243400D01*
X123462061Y-53206540D01*
X123624023Y-53134429D01*
X123767454Y-53030221D01*
X123886084Y-52898469D01*
X123974729Y-52744931D01*
X124029514Y-52576319D01*
X124048046Y-52400000D01*
X124029514Y-52223681D01*
X123988610Y-52097793D01*
X123985969Y-52030527D01*
X124018865Y-51971792D01*
X124025167Y-51965490D01*
X124025169Y-51965488D01*
X124030472Y-51960185D01*
X124118478Y-51814606D01*
X124169086Y-51652196D01*
X124175500Y-51581616D01*
X124175500Y-51068384D01*
X124169086Y-50997804D01*
X124118478Y-50835394D01*
X124030472Y-50689815D01*
X123928338Y-50587680D01*
X123896244Y-50532094D01*
X123896244Y-50467906D01*
X123928338Y-50412319D01*
X123970694Y-50369963D01*
X124030472Y-50310185D01*
X124034354Y-50303761D01*
X124037908Y-50299227D01*
X124081236Y-50264213D01*
X124135519Y-50251700D01*
X124196304Y-50251700D01*
X124245117Y-50261712D01*
G37*
%TD.AperFunction*%
%TA.AperFunction,Conductor*%
G36*
X139228586Y-53957233D02*
G01*
X139244978Y-53969811D01*
X139276258Y-54005123D01*
X139292085Y-54049562D01*
X139290450Y-54089785D01*
X139290802Y-54089823D01*
X139290235Y-54095096D01*
X139290170Y-54096697D01*
X139289973Y-54097528D01*
X139284753Y-54146084D01*
X139284400Y-54152681D01*
X139284400Y-54180873D01*
X139287850Y-54193748D01*
X139300726Y-54197199D01*
X139317513Y-54197199D01*
X139373018Y-54210315D01*
X139416778Y-54246887D01*
X139426854Y-54260347D01*
X139433950Y-54265659D01*
X139433951Y-54265660D01*
X139519273Y-54329532D01*
X139557757Y-54377288D01*
X139568646Y-54437646D01*
X139549277Y-54495839D01*
X139504389Y-54537631D01*
X139444962Y-54552799D01*
X139300726Y-54552799D01*
X139286585Y-54556588D01*
X139274819Y-54568354D01*
X139219231Y-54600447D01*
X139155045Y-54600447D01*
X139099458Y-54568353D01*
X139065419Y-54534314D01*
X139038539Y-54494086D01*
X139029100Y-54446633D01*
X139029100Y-54055609D01*
X139047799Y-53990129D01*
X139098256Y-53944397D01*
X139165254Y-53932206D01*
X139228586Y-53957233D01*
G37*
%TD.AperFunction*%
%TA.AperFunction,Conductor*%
G36*
X141361172Y-38336723D02*
G01*
X141411800Y-38367377D01*
X142363181Y-39318758D01*
X142390061Y-39358986D01*
X142399500Y-39406439D01*
X142399500Y-40634560D01*
X142399500Y-40634578D01*
X142399501Y-40637872D01*
X142399853Y-40641150D01*
X142399854Y-40641161D01*
X142405079Y-40689768D01*
X142405080Y-40689773D01*
X142405909Y-40697483D01*
X142408619Y-40704749D01*
X142408620Y-40704753D01*
X142427654Y-40755785D01*
X142456204Y-40832331D01*
X142461518Y-40839430D01*
X142461519Y-40839431D01*
X142515953Y-40912146D01*
X142542454Y-40947546D01*
X142657669Y-41033796D01*
X142792517Y-41084091D01*
X142852127Y-41090500D01*
X144547872Y-41090499D01*
X144607483Y-41084091D01*
X144742331Y-41033796D01*
X144744208Y-41032390D01*
X144800000Y-41018149D01*
X144855791Y-41032390D01*
X144857669Y-41033796D01*
X144992517Y-41084091D01*
X145052127Y-41090500D01*
X146747872Y-41090499D01*
X146807483Y-41084091D01*
X146942331Y-41033796D01*
X147057546Y-40947546D01*
X147141311Y-40835650D01*
X147197243Y-40793781D01*
X147266934Y-40788797D01*
X147325438Y-40820742D01*
X147341326Y-40825000D01*
X149258673Y-40825000D01*
X149271548Y-40821549D01*
X149274999Y-40808674D01*
X149274999Y-40804835D01*
X149274678Y-40798552D01*
X149265544Y-40709132D01*
X149262725Y-40695963D01*
X149213819Y-40548374D01*
X149207753Y-40535366D01*
X149126367Y-40403419D01*
X149117462Y-40392157D01*
X149113339Y-40388034D01*
X149081244Y-40332442D01*
X149081247Y-40268251D01*
X149113346Y-40212665D01*
X149122968Y-40203044D01*
X149126763Y-40196892D01*
X149133725Y-40185605D01*
X149178832Y-40142424D01*
X149239264Y-40126701D01*
X149463578Y-40126701D01*
X149519083Y-40139817D01*
X149555115Y-40169929D01*
X149555868Y-40169177D01*
X149562141Y-40175450D01*
X149567454Y-40182547D01*
X149682669Y-40268797D01*
X149685846Y-40269982D01*
X149730942Y-40313494D01*
X149748301Y-40376769D01*
X149748301Y-43625500D01*
X149731688Y-43687500D01*
X149686301Y-43732887D01*
X149624301Y-43749500D01*
X147930439Y-43749500D01*
X147930420Y-43749500D01*
X147927128Y-43749501D01*
X147923850Y-43749853D01*
X147923838Y-43749854D01*
X147875231Y-43755079D01*
X147875225Y-43755080D01*
X147867517Y-43755909D01*
X147860252Y-43758618D01*
X147860246Y-43758620D01*
X147740980Y-43803104D01*
X147740978Y-43803104D01*
X147732669Y-43806204D01*
X147725572Y-43811516D01*
X147725568Y-43811519D01*
X147624550Y-43887141D01*
X147624546Y-43887144D01*
X147617454Y-43892454D01*
X147612144Y-43899546D01*
X147612141Y-43899550D01*
X147536519Y-44000568D01*
X147536516Y-44000572D01*
X147531204Y-44007669D01*
X147528104Y-44015978D01*
X147528105Y-44015978D01*
X147481997Y-44139599D01*
X147447018Y-44189978D01*
X147392173Y-44217431D01*
X147330880Y-44215242D01*
X147278134Y-44183946D01*
X147159909Y-44065721D01*
X147151643Y-44058784D01*
X146967008Y-43929501D01*
X146957676Y-43924113D01*
X146753397Y-43828856D01*
X146743263Y-43825168D01*
X146548780Y-43773056D01*
X146537551Y-43772688D01*
X146535000Y-43783631D01*
X146535000Y-46416369D01*
X146537551Y-46427311D01*
X146548780Y-46426943D01*
X146743263Y-46374831D01*
X146753397Y-46371143D01*
X146957676Y-46275886D01*
X146967008Y-46270498D01*
X147151643Y-46141215D01*
X147159902Y-46134284D01*
X147278133Y-46016053D01*
X147330880Y-45984757D01*
X147392173Y-45982568D01*
X147447018Y-46010021D01*
X147481997Y-46060401D01*
X147498219Y-46103894D01*
X147531204Y-46192331D01*
X147536518Y-46199430D01*
X147536519Y-46199431D01*
X147592367Y-46274035D01*
X147617454Y-46307546D01*
X147732669Y-46393796D01*
X147867517Y-46444091D01*
X147927127Y-46450500D01*
X149034560Y-46450499D01*
X149090855Y-46464014D01*
X149134878Y-46501614D01*
X149157033Y-46555101D01*
X149152491Y-46612817D01*
X149122241Y-46662180D01*
X145296240Y-50488181D01*
X145256012Y-50515061D01*
X145208559Y-50524500D01*
X144829805Y-50524500D01*
X144829785Y-50524500D01*
X144826656Y-50524501D01*
X144823524Y-50524820D01*
X144823522Y-50524821D01*
X144734027Y-50533962D01*
X144734017Y-50533963D01*
X144727292Y-50534651D01*
X144720870Y-50536778D01*
X144720865Y-50536780D01*
X144573158Y-50585725D01*
X144573154Y-50585726D01*
X144566303Y-50587997D01*
X144560159Y-50591786D01*
X144560154Y-50591789D01*
X144428107Y-50673237D01*
X144428101Y-50673241D01*
X144421956Y-50677032D01*
X144416849Y-50682138D01*
X144416845Y-50682142D01*
X144307142Y-50791845D01*
X144307138Y-50791849D01*
X144302032Y-50796956D01*
X144298241Y-50803101D01*
X144298237Y-50803107D01*
X144216789Y-50935154D01*
X144216786Y-50935159D01*
X144212997Y-50941303D01*
X144210726Y-50948154D01*
X144210725Y-50948158D01*
X144174159Y-51058509D01*
X144135048Y-51115416D01*
X144071565Y-51142581D01*
X144003395Y-51131580D01*
X143951679Y-51085826D01*
X143932453Y-51019505D01*
X143932453Y-50386148D01*
X143933514Y-50369963D01*
X143936368Y-50348284D01*
X143937429Y-50340225D01*
X143928431Y-50271879D01*
X143917609Y-50189676D01*
X143883194Y-50106591D01*
X143859500Y-50049387D01*
X143790268Y-49959163D01*
X143790267Y-49959162D01*
X143767060Y-49928918D01*
X143760617Y-49923974D01*
X143760611Y-49923968D01*
X143743257Y-49910652D01*
X143731063Y-49899958D01*
X142602639Y-48771534D01*
X142591944Y-48759339D01*
X142578630Y-48741988D01*
X142573684Y-48735542D01*
X142503970Y-48682049D01*
X142503460Y-48681658D01*
X142459661Y-48648049D01*
X142459659Y-48648048D01*
X142453215Y-48643103D01*
X142445706Y-48639992D01*
X142445705Y-48639992D01*
X142320435Y-48588103D01*
X142320432Y-48588102D01*
X142312926Y-48584993D01*
X142304872Y-48583932D01*
X142304866Y-48583931D01*
X142170436Y-48566234D01*
X142162377Y-48565173D01*
X142154318Y-48566234D01*
X142132639Y-48569088D01*
X142116454Y-48570149D01*
X141370429Y-48570149D01*
X141331270Y-48563804D01*
X141309253Y-48552287D01*
X141308717Y-48553270D01*
X141300929Y-48549017D01*
X141293831Y-48543704D01*
X141285520Y-48540604D01*
X141277738Y-48536355D01*
X141278780Y-48534446D01*
X141250953Y-48517040D01*
X141222518Y-48476102D01*
X141212500Y-48427275D01*
X141212500Y-48205482D01*
X141212146Y-48198885D01*
X141206926Y-48150332D01*
X141203388Y-48135358D01*
X141158952Y-48016222D01*
X141150537Y-48000810D01*
X141075001Y-47899907D01*
X141062592Y-47887498D01*
X140961689Y-47811962D01*
X140946277Y-47803547D01*
X140827143Y-47759112D01*
X140824581Y-47758507D01*
X140821575Y-47757035D01*
X140819876Y-47756402D01*
X140819938Y-47756234D01*
X140775293Y-47734382D01*
X140741243Y-47691347D01*
X140729100Y-47637831D01*
X140729100Y-45100000D01*
X142389341Y-45100000D01*
X142389813Y-45105395D01*
X142404268Y-45270619D01*
X142409937Y-45335408D01*
X142411336Y-45340630D01*
X142411337Y-45340634D01*
X142469694Y-45558430D01*
X142469697Y-45558438D01*
X142471097Y-45563663D01*
X142473385Y-45568570D01*
X142473386Y-45568572D01*
X142568678Y-45772927D01*
X142568681Y-45772933D01*
X142570965Y-45777830D01*
X142574064Y-45782257D01*
X142574066Y-45782259D01*
X142703399Y-45966966D01*
X142703402Y-45966970D01*
X142706505Y-45971401D01*
X142873599Y-46138495D01*
X142878031Y-46141598D01*
X142878033Y-46141600D01*
X142969149Y-46205400D01*
X143067170Y-46274035D01*
X143281337Y-46373903D01*
X143509592Y-46435063D01*
X143745000Y-46455659D01*
X143980408Y-46435063D01*
X144208663Y-46373903D01*
X144422830Y-46274035D01*
X144616401Y-46138495D01*
X144783495Y-45971401D01*
X144913730Y-45785405D01*
X144958048Y-45746540D01*
X145015305Y-45732529D01*
X145072562Y-45746540D01*
X145116880Y-45785405D01*
X145243784Y-45966643D01*
X145250721Y-45974909D01*
X145410090Y-46134278D01*
X145418356Y-46141215D01*
X145602991Y-46270498D01*
X145612323Y-46275886D01*
X145816602Y-46371143D01*
X145826736Y-46374831D01*
X146021219Y-46426943D01*
X146032448Y-46427311D01*
X146035000Y-46416369D01*
X146035000Y-43783631D01*
X146032448Y-43772688D01*
X146021219Y-43773056D01*
X145826736Y-43825168D01*
X145816602Y-43828856D01*
X145612332Y-43924110D01*
X145602982Y-43929508D01*
X145418357Y-44058784D01*
X145410092Y-44065719D01*
X145250719Y-44225092D01*
X145243788Y-44233352D01*
X145116880Y-44414596D01*
X145072562Y-44453461D01*
X145015305Y-44467472D01*
X144958048Y-44453461D01*
X144913730Y-44414595D01*
X144890931Y-44382034D01*
X144783495Y-44228599D01*
X144616401Y-44061505D01*
X144611970Y-44058402D01*
X144611966Y-44058399D01*
X144427259Y-43929066D01*
X144427257Y-43929064D01*
X144422830Y-43925965D01*
X144417933Y-43923681D01*
X144417927Y-43923678D01*
X144213572Y-43828386D01*
X144213570Y-43828385D01*
X144208663Y-43826097D01*
X144203438Y-43824697D01*
X144203430Y-43824694D01*
X143985634Y-43766337D01*
X143985630Y-43766336D01*
X143980408Y-43764937D01*
X143975020Y-43764465D01*
X143975017Y-43764465D01*
X143750395Y-43744813D01*
X143745000Y-43744341D01*
X143739605Y-43744813D01*
X143514982Y-43764465D01*
X143514977Y-43764465D01*
X143509592Y-43764937D01*
X143504371Y-43766335D01*
X143504365Y-43766337D01*
X143286569Y-43824694D01*
X143286557Y-43824698D01*
X143281337Y-43826097D01*
X143276432Y-43828383D01*
X143276427Y-43828386D01*
X143072081Y-43923675D01*
X143072077Y-43923677D01*
X143067171Y-43925965D01*
X143062738Y-43929068D01*
X143062731Y-43929073D01*
X142878034Y-44058399D01*
X142878029Y-44058402D01*
X142873599Y-44061505D01*
X142869775Y-44065328D01*
X142869769Y-44065334D01*
X142710334Y-44224769D01*
X142710328Y-44224775D01*
X142706505Y-44228599D01*
X142703402Y-44233029D01*
X142703399Y-44233034D01*
X142574073Y-44417731D01*
X142574068Y-44417738D01*
X142570965Y-44422171D01*
X142568677Y-44427077D01*
X142568675Y-44427081D01*
X142473386Y-44631427D01*
X142473383Y-44631432D01*
X142471097Y-44636337D01*
X142469698Y-44641557D01*
X142469694Y-44641569D01*
X142411337Y-44859365D01*
X142411335Y-44859371D01*
X142409937Y-44864592D01*
X142409465Y-44869977D01*
X142409465Y-44869982D01*
X142393272Y-45055069D01*
X142389341Y-45100000D01*
X140729100Y-45100000D01*
X140729100Y-43091954D01*
X140730161Y-43075769D01*
X140733015Y-43054090D01*
X140734076Y-43046031D01*
X140721146Y-42947818D01*
X140714256Y-42895482D01*
X140682711Y-42819325D01*
X140656147Y-42755193D01*
X140586915Y-42664969D01*
X140586914Y-42664968D01*
X140563707Y-42634724D01*
X140557264Y-42629780D01*
X140557258Y-42629774D01*
X140539904Y-42616458D01*
X140527710Y-42605764D01*
X140424125Y-42502179D01*
X140393875Y-42452816D01*
X140389333Y-42395100D01*
X140411488Y-42341613D01*
X140455511Y-42304013D01*
X140511806Y-42290498D01*
X140744560Y-42290498D01*
X140747871Y-42290498D01*
X140807482Y-42284090D01*
X140942330Y-42233795D01*
X141057545Y-42147545D01*
X141143795Y-42032330D01*
X141194090Y-41897482D01*
X141200499Y-41837872D01*
X141200498Y-41462127D01*
X141195244Y-41413251D01*
X141195244Y-41386750D01*
X141199715Y-41345165D01*
X147325001Y-41345165D01*
X147325321Y-41351447D01*
X147334455Y-41440867D01*
X147337274Y-41454036D01*
X147386180Y-41601625D01*
X147392246Y-41614633D01*
X147473632Y-41746580D01*
X147482537Y-41757842D01*
X147592157Y-41867462D01*
X147603419Y-41876367D01*
X147735366Y-41957753D01*
X147748374Y-41963819D01*
X147895969Y-42012727D01*
X147909125Y-42015543D01*
X147998555Y-42024680D01*
X148004832Y-42025000D01*
X148033674Y-42025000D01*
X148046549Y-42021549D01*
X148050000Y-42008674D01*
X148050000Y-42008673D01*
X148550000Y-42008673D01*
X148553450Y-42021548D01*
X148566326Y-42024999D01*
X148595165Y-42024999D01*
X148601447Y-42024678D01*
X148690867Y-42015544D01*
X148704036Y-42012725D01*
X148851625Y-41963819D01*
X148864633Y-41957753D01*
X148996580Y-41876367D01*
X149007842Y-41867462D01*
X149117462Y-41757842D01*
X149126367Y-41746580D01*
X149207753Y-41614633D01*
X149213819Y-41601625D01*
X149262727Y-41454030D01*
X149265543Y-41440874D01*
X149274680Y-41351444D01*
X149275000Y-41345168D01*
X149275000Y-41341326D01*
X149271549Y-41328450D01*
X149258674Y-41325000D01*
X148566326Y-41325000D01*
X148553450Y-41328450D01*
X148550000Y-41341326D01*
X148550000Y-42008673D01*
X148050000Y-42008673D01*
X148050000Y-41341326D01*
X148046549Y-41328450D01*
X148033674Y-41325000D01*
X147341327Y-41325000D01*
X147328451Y-41328450D01*
X147325001Y-41341326D01*
X147325001Y-41345165D01*
X141199715Y-41345165D01*
X141200499Y-41337873D01*
X141200498Y-40962128D01*
X141198930Y-40947546D01*
X141195244Y-40913253D01*
X141195244Y-40886751D01*
X141200499Y-40837874D01*
X141200498Y-40462129D01*
X141195244Y-40413253D01*
X141195244Y-40386750D01*
X141200499Y-40337873D01*
X141200498Y-39962128D01*
X141195244Y-39913252D01*
X141195244Y-39886750D01*
X141200499Y-39837873D01*
X141200498Y-39462128D01*
X141195244Y-39413252D01*
X141195244Y-39386749D01*
X141200499Y-39337872D01*
X141200498Y-38962127D01*
X141195244Y-38913251D01*
X141195244Y-38886750D01*
X141200499Y-38837873D01*
X141200498Y-38462128D01*
X141200395Y-38461175D01*
X141211324Y-38403547D01*
X141248048Y-38357133D01*
X141302102Y-38333028D01*
X141361172Y-38336723D01*
G37*
%TD.AperFunction*%
%TA.AperFunction,Conductor*%
G36*
X135394679Y-42961711D02*
G01*
X135435610Y-42990131D01*
X135458261Y-43026320D01*
X135458414Y-43026237D01*
X135459809Y-43028792D01*
X135462047Y-43032368D01*
X135465763Y-43042330D01*
X135471079Y-43049431D01*
X135477751Y-43058344D01*
X135500769Y-43112092D01*
X135496598Y-43170412D01*
X135466167Y-43220338D01*
X129624526Y-49061981D01*
X129584298Y-49088861D01*
X129536845Y-49098300D01*
X129535519Y-49098300D01*
X129481236Y-49085787D01*
X129437908Y-49050773D01*
X129434354Y-49046237D01*
X129430472Y-49039815D01*
X129310185Y-48919528D01*
X129164606Y-48831522D01*
X129135500Y-48822452D01*
X129008457Y-48782864D01*
X129008448Y-48782862D01*
X129002196Y-48780914D01*
X128995662Y-48780320D01*
X128995661Y-48780320D01*
X128934425Y-48774755D01*
X128934419Y-48774754D01*
X128931616Y-48774500D01*
X128268384Y-48774500D01*
X128265581Y-48774754D01*
X128265574Y-48774755D01*
X128234699Y-48777561D01*
X128179741Y-48770101D01*
X128133533Y-48739429D01*
X128105318Y-48691680D01*
X128101615Y-48646961D01*
X128100500Y-48646961D01*
X128100500Y-48261910D01*
X128100500Y-48261907D01*
X128100500Y-48253039D01*
X128095183Y-48234929D01*
X128090161Y-48199996D01*
X128095185Y-48165061D01*
X128098001Y-48155471D01*
X128100500Y-48146961D01*
X128100500Y-48003039D01*
X128100500Y-47789201D01*
X128100500Y-47753039D01*
X128092809Y-47726844D01*
X128089050Y-47709565D01*
X128086427Y-47691320D01*
X128086426Y-47691319D01*
X128085165Y-47682543D01*
X128081479Y-47674471D01*
X128073826Y-47657712D01*
X128067643Y-47641135D01*
X128062453Y-47623462D01*
X128059953Y-47614947D01*
X128045192Y-47591978D01*
X128036714Y-47576451D01*
X128036144Y-47575203D01*
X128025377Y-47551627D01*
X128007498Y-47530994D01*
X127996904Y-47516841D01*
X127982143Y-47493872D01*
X127975442Y-47488065D01*
X127975440Y-47488063D01*
X127961510Y-47475992D01*
X127949005Y-47463487D01*
X127936934Y-47449557D01*
X127936932Y-47449556D01*
X127931128Y-47442857D01*
X127923671Y-47438064D01*
X127923669Y-47438063D01*
X127908159Y-47428095D01*
X127894000Y-47417495D01*
X127880078Y-47405432D01*
X127880073Y-47405429D01*
X127873373Y-47399623D01*
X127859612Y-47393338D01*
X127848540Y-47388281D01*
X127833022Y-47379807D01*
X127817515Y-47369842D01*
X127817512Y-47369841D01*
X127810053Y-47365047D01*
X127801544Y-47362548D01*
X127801541Y-47362547D01*
X127783856Y-47357354D01*
X127767285Y-47351173D01*
X127750528Y-47343521D01*
X127742457Y-47339835D01*
X127733675Y-47338572D01*
X127715435Y-47335949D01*
X127698155Y-47332190D01*
X127671962Y-47324500D01*
X127672654Y-47322140D01*
X127625303Y-47301530D01*
X127586927Y-47248310D01*
X127547819Y-47143454D01*
X127540001Y-47100122D01*
X127540001Y-46881325D01*
X127536550Y-46868449D01*
X127523675Y-46864999D01*
X127164498Y-46864999D01*
X127102498Y-46848386D01*
X127057111Y-46802999D01*
X127040498Y-46740999D01*
X127040498Y-46708999D01*
X127057111Y-46646999D01*
X127102498Y-46601612D01*
X127164498Y-46584999D01*
X127523675Y-46584999D01*
X127536550Y-46581548D01*
X127540001Y-46568673D01*
X127540001Y-46267400D01*
X127556614Y-46205400D01*
X127602001Y-46160013D01*
X127664001Y-46143400D01*
X127782142Y-46143400D01*
X127788645Y-46143400D01*
X127962061Y-46106540D01*
X128124023Y-46034429D01*
X128267454Y-45930221D01*
X128386084Y-45798469D01*
X128474729Y-45644931D01*
X128529514Y-45476319D01*
X128547270Y-45307382D01*
X128558669Y-45266964D01*
X128582906Y-45232669D01*
X130827558Y-42988018D01*
X130867787Y-42961138D01*
X130915240Y-42951699D01*
X135345865Y-42951699D01*
X135394679Y-42961711D01*
G37*
%TD.AperFunction*%
%TA.AperFunction,Conductor*%
G36*
X139632214Y-23886139D02*
G01*
X139672442Y-23913019D01*
X139863274Y-24103851D01*
X139896415Y-24163638D01*
X139892837Y-24231902D01*
X139853629Y-24287898D01*
X139790705Y-24314608D01*
X139723189Y-24303914D01*
X139621881Y-24256673D01*
X139621870Y-24256669D01*
X139616970Y-24254384D01*
X139611743Y-24252983D01*
X139611742Y-24252983D01*
X139416933Y-24200783D01*
X139416922Y-24200781D01*
X139411701Y-24199382D01*
X139406309Y-24198910D01*
X139406302Y-24198909D01*
X139205395Y-24181333D01*
X139200000Y-24180861D01*
X139194605Y-24181333D01*
X138993697Y-24198909D01*
X138993688Y-24198910D01*
X138988299Y-24199382D01*
X138983078Y-24200780D01*
X138983066Y-24200783D01*
X138788257Y-24252983D01*
X138788252Y-24252984D01*
X138783030Y-24254384D01*
X138778134Y-24256666D01*
X138778123Y-24256671D01*
X138595341Y-24341905D01*
X138595337Y-24341907D01*
X138590431Y-24344195D01*
X138585998Y-24347298D01*
X138585991Y-24347303D01*
X138420788Y-24462979D01*
X138420783Y-24462982D01*
X138416353Y-24466085D01*
X138412529Y-24469908D01*
X138412523Y-24469914D01*
X138269914Y-24612523D01*
X138269908Y-24612529D01*
X138266085Y-24616353D01*
X138262982Y-24620783D01*
X138262979Y-24620788D01*
X138147303Y-24785991D01*
X138147298Y-24785998D01*
X138144195Y-24790431D01*
X138141908Y-24795334D01*
X138141907Y-24795337D01*
X138062105Y-24966471D01*
X138016347Y-25018646D01*
X137949722Y-25038065D01*
X137883097Y-25018645D01*
X137837341Y-24966469D01*
X137757662Y-24795596D01*
X137752263Y-24786244D01*
X137725063Y-24747398D01*
X137716954Y-24739967D01*
X137707671Y-24745881D01*
X136787681Y-25665872D01*
X136732094Y-25697966D01*
X136667906Y-25697966D01*
X136612319Y-25665872D01*
X136434127Y-25487680D01*
X136402033Y-25432093D01*
X136402033Y-25367905D01*
X136434127Y-25312318D01*
X137354117Y-24392327D01*
X137360030Y-24383045D01*
X137352597Y-24374933D01*
X137313756Y-24347736D01*
X137304408Y-24342339D01*
X137121701Y-24257142D01*
X137111576Y-24253456D01*
X136916846Y-24201279D01*
X136906215Y-24199404D01*
X136812456Y-24191201D01*
X136747777Y-24166048D01*
X136706742Y-24110082D01*
X136702204Y-24040833D01*
X136735580Y-23979996D01*
X136802562Y-23913014D01*
X136842787Y-23886139D01*
X136890239Y-23876700D01*
X139584761Y-23876700D01*
X139632214Y-23886139D01*
G37*
%TD.AperFunction*%
%TA.AperFunction,Conductor*%
G36*
X167937500Y-18017113D02*
G01*
X167982887Y-18062500D01*
X167999500Y-18124500D01*
X167999500Y-77875500D01*
X167982887Y-77937500D01*
X167937500Y-77982887D01*
X167875500Y-77999500D01*
X108124500Y-77999500D01*
X108062500Y-77982887D01*
X108017113Y-77937500D01*
X108000500Y-77875500D01*
X108000500Y-75324335D01*
X109299500Y-75324335D01*
X109300343Y-75329387D01*
X109300344Y-75329398D01*
X109338367Y-75557258D01*
X109340429Y-75569614D01*
X109342093Y-75574461D01*
X109342094Y-75574465D01*
X109419507Y-75799962D01*
X109419510Y-75799969D01*
X109421172Y-75804810D01*
X109423607Y-75809310D01*
X109423610Y-75809316D01*
X109537084Y-76018997D01*
X109539526Y-76023509D01*
X109692262Y-76219744D01*
X109696029Y-76223211D01*
X109696032Y-76223215D01*
X109871439Y-76384688D01*
X109875215Y-76388164D01*
X109974057Y-76452740D01*
X110079099Y-76521368D01*
X110079102Y-76521369D01*
X110083393Y-76524173D01*
X110311119Y-76624063D01*
X110552179Y-76685108D01*
X110737933Y-76700500D01*
X110859497Y-76700500D01*
X110862067Y-76700500D01*
X111047821Y-76685108D01*
X111288881Y-76624063D01*
X111516607Y-76524173D01*
X111724785Y-76388164D01*
X111907738Y-76219744D01*
X112060474Y-76023509D01*
X112178828Y-75804810D01*
X112259571Y-75569614D01*
X112300500Y-75324335D01*
X112300500Y-75075665D01*
X112259571Y-74830386D01*
X112178828Y-74595190D01*
X112060474Y-74376491D01*
X111907738Y-74180256D01*
X111903970Y-74176787D01*
X111903967Y-74176784D01*
X111728560Y-74015311D01*
X111728559Y-74015310D01*
X111724785Y-74011836D01*
X111716885Y-74006675D01*
X111520900Y-73878631D01*
X111520893Y-73878627D01*
X111516607Y-73875827D01*
X111511916Y-73873769D01*
X111511910Y-73873766D01*
X111293577Y-73777997D01*
X111293578Y-73777997D01*
X111288881Y-73775937D01*
X111283911Y-73774678D01*
X111283910Y-73774678D01*
X111052795Y-73716151D01*
X111052788Y-73716149D01*
X111047821Y-73714892D01*
X111042709Y-73714468D01*
X111042701Y-73714467D01*
X110864633Y-73699712D01*
X110864617Y-73699711D01*
X110862067Y-73699500D01*
X110737933Y-73699500D01*
X110735383Y-73699711D01*
X110735366Y-73699712D01*
X110557298Y-73714467D01*
X110557288Y-73714468D01*
X110552179Y-73714892D01*
X110547213Y-73716149D01*
X110547204Y-73716151D01*
X110316089Y-73774678D01*
X110316084Y-73774679D01*
X110311119Y-73775937D01*
X110306425Y-73777995D01*
X110306422Y-73777997D01*
X110088089Y-73873766D01*
X110088077Y-73873772D01*
X110083393Y-73875827D01*
X110079111Y-73878624D01*
X110079099Y-73878631D01*
X109879512Y-74009028D01*
X109879506Y-74009031D01*
X109875215Y-74011836D01*
X109871446Y-74015305D01*
X109871439Y-74015311D01*
X109696032Y-74176784D01*
X109696023Y-74176793D01*
X109692262Y-74180256D01*
X109689113Y-74184301D01*
X109689111Y-74184304D01*
X109542678Y-74372440D01*
X109542672Y-74372448D01*
X109539526Y-74376491D01*
X109537088Y-74380995D01*
X109537084Y-74381002D01*
X109423610Y-74590683D01*
X109423605Y-74590693D01*
X109421172Y-74595190D01*
X109419511Y-74600026D01*
X109419507Y-74600037D01*
X109342094Y-74825534D01*
X109342092Y-74825541D01*
X109340429Y-74830386D01*
X109339585Y-74835441D01*
X109339585Y-74835443D01*
X109300344Y-75070601D01*
X109300343Y-75070613D01*
X109299500Y-75075665D01*
X109299500Y-75324335D01*
X108000500Y-75324335D01*
X108000500Y-68195165D01*
X110000001Y-68195165D01*
X110000321Y-68201447D01*
X110009455Y-68290867D01*
X110012274Y-68304036D01*
X110061180Y-68451625D01*
X110067246Y-68464633D01*
X110148632Y-68596580D01*
X110157537Y-68607842D01*
X110267157Y-68717462D01*
X110278419Y-68726367D01*
X110410366Y-68807753D01*
X110423374Y-68813819D01*
X110570969Y-68862727D01*
X110584125Y-68865543D01*
X110673555Y-68874680D01*
X110679832Y-68875000D01*
X110683674Y-68875000D01*
X110696549Y-68871549D01*
X110700000Y-68858674D01*
X110700000Y-68166326D01*
X110696549Y-68153450D01*
X110683674Y-68150000D01*
X110016327Y-68150000D01*
X110003451Y-68153450D01*
X110000001Y-68166326D01*
X110000001Y-68195165D01*
X108000500Y-68195165D01*
X108000500Y-67633674D01*
X110000000Y-67633674D01*
X110003450Y-67646549D01*
X110016326Y-67650000D01*
X110683674Y-67650000D01*
X110696549Y-67646549D01*
X110700000Y-67633674D01*
X110700000Y-66666326D01*
X110696549Y-66653450D01*
X110683674Y-66650000D01*
X110016327Y-66650000D01*
X110003451Y-66653450D01*
X110000001Y-66666326D01*
X110000001Y-66695165D01*
X110000321Y-66701447D01*
X110009455Y-66790867D01*
X110012274Y-66804036D01*
X110061180Y-66951625D01*
X110067246Y-66964633D01*
X110141429Y-67084902D01*
X110159891Y-67149999D01*
X110141430Y-67215095D01*
X110067245Y-67335368D01*
X110061180Y-67348374D01*
X110012272Y-67495969D01*
X110009456Y-67509125D01*
X110000319Y-67598555D01*
X110000000Y-67604832D01*
X110000000Y-67633674D01*
X108000500Y-67633674D01*
X108000500Y-66133674D01*
X110000000Y-66133674D01*
X110003450Y-66146549D01*
X110016326Y-66150000D01*
X111076000Y-66150000D01*
X111138000Y-66166613D01*
X111183387Y-66212000D01*
X111200000Y-66274000D01*
X111200000Y-68858673D01*
X111203450Y-68871548D01*
X111216326Y-68874999D01*
X111220165Y-68874999D01*
X111226447Y-68874678D01*
X111315867Y-68865544D01*
X111329036Y-68862725D01*
X111476625Y-68813819D01*
X111489633Y-68807753D01*
X111621584Y-68726364D01*
X111632831Y-68717472D01*
X111636955Y-68713348D01*
X111692544Y-68681248D01*
X111756735Y-68681244D01*
X111812327Y-68713339D01*
X111821956Y-68722968D01*
X111966303Y-68812003D01*
X111979205Y-68816278D01*
X112012062Y-68832929D01*
X112038580Y-68858499D01*
X112050996Y-68874680D01*
X112063277Y-68890685D01*
X112088693Y-68923807D01*
X112112490Y-68942067D01*
X112124685Y-68952762D01*
X114043654Y-70871731D01*
X114071838Y-70915238D01*
X114079772Y-70966465D01*
X114066071Y-71016460D01*
X114005022Y-71134279D01*
X114005017Y-71134288D01*
X114003073Y-71138042D01*
X114001656Y-71142027D01*
X114001652Y-71142038D01*
X113905607Y-71412282D01*
X113905603Y-71412294D01*
X113904186Y-71416283D01*
X113903323Y-71420433D01*
X113903322Y-71420439D01*
X113844970Y-71701240D01*
X113844968Y-71701251D01*
X113844107Y-71705397D01*
X113843818Y-71709621D01*
X113843817Y-71709629D01*
X113840626Y-71756283D01*
X113823956Y-72000000D01*
X113844107Y-72294603D01*
X113844968Y-72298750D01*
X113844970Y-72298759D01*
X113902728Y-72576700D01*
X113904186Y-72583717D01*
X113905604Y-72587709D01*
X113905607Y-72587717D01*
X113997362Y-72845889D01*
X114003073Y-72861958D01*
X114005020Y-72865716D01*
X114005022Y-72865720D01*
X114100607Y-73050190D01*
X114138926Y-73124143D01*
X114141372Y-73127608D01*
X114306769Y-73361924D01*
X114306773Y-73361929D01*
X114309214Y-73365387D01*
X114510766Y-73581196D01*
X114514047Y-73583865D01*
X114514050Y-73583868D01*
X114536298Y-73601968D01*
X114739827Y-73767550D01*
X114992129Y-73920979D01*
X114996014Y-73922666D01*
X114996015Y-73922667D01*
X115250409Y-74033166D01*
X115262973Y-74038623D01*
X115547314Y-74118292D01*
X115839855Y-74158500D01*
X116130907Y-74158500D01*
X116135145Y-74158500D01*
X116427686Y-74118292D01*
X116712027Y-74038623D01*
X116982871Y-73920979D01*
X117235173Y-73767550D01*
X117464234Y-73581196D01*
X117665786Y-73365387D01*
X117836074Y-73124143D01*
X117971927Y-72861958D01*
X118043996Y-72659174D01*
X118070212Y-72616063D01*
X118111434Y-72586966D01*
X118160836Y-72576700D01*
X123814164Y-72576700D01*
X123863566Y-72586966D01*
X123904788Y-72616063D01*
X123931004Y-72659175D01*
X123994497Y-72837830D01*
X124003073Y-72861958D01*
X124005020Y-72865716D01*
X124005022Y-72865720D01*
X124100607Y-73050190D01*
X124138926Y-73124143D01*
X124141372Y-73127608D01*
X124306769Y-73361924D01*
X124306773Y-73361929D01*
X124309214Y-73365387D01*
X124510766Y-73581196D01*
X124514047Y-73583865D01*
X124514050Y-73583868D01*
X124536298Y-73601968D01*
X124739827Y-73767550D01*
X124992129Y-73920979D01*
X124996014Y-73922666D01*
X124996015Y-73922667D01*
X125250409Y-74033166D01*
X125262973Y-74038623D01*
X125547314Y-74118292D01*
X125839855Y-74158500D01*
X126130907Y-74158500D01*
X126135145Y-74158500D01*
X126427686Y-74118292D01*
X126712027Y-74038623D01*
X126982871Y-73920979D01*
X127235173Y-73767550D01*
X127464234Y-73581196D01*
X127665786Y-73365387D01*
X127836074Y-73124143D01*
X127971927Y-72861958D01*
X128070814Y-72583717D01*
X128121459Y-72340000D01*
X129857206Y-72340000D01*
X129857495Y-72344225D01*
X129876088Y-72616063D01*
X129877357Y-72634603D01*
X129878218Y-72638750D01*
X129878220Y-72638759D01*
X129935978Y-72916700D01*
X129937436Y-72923717D01*
X129938854Y-72927709D01*
X129938857Y-72927717D01*
X130034902Y-73197961D01*
X130036323Y-73201958D01*
X130038270Y-73205716D01*
X130038272Y-73205720D01*
X130121005Y-73365387D01*
X130172176Y-73464143D01*
X130174622Y-73467608D01*
X130340019Y-73701924D01*
X130340023Y-73701929D01*
X130342464Y-73705387D01*
X130544016Y-73921196D01*
X130547297Y-73923865D01*
X130547300Y-73923868D01*
X130688354Y-74038623D01*
X130773077Y-74107550D01*
X131025379Y-74260979D01*
X131029264Y-74262666D01*
X131029265Y-74262667D01*
X131291314Y-74376491D01*
X131296223Y-74378623D01*
X131580564Y-74458292D01*
X131873105Y-74498500D01*
X132164157Y-74498500D01*
X132168395Y-74498500D01*
X132460936Y-74458292D01*
X132745277Y-74378623D01*
X133016121Y-74260979D01*
X133268423Y-74107550D01*
X133497484Y-73921196D01*
X133699036Y-73705387D01*
X133869324Y-73464143D01*
X134005177Y-73201958D01*
X134077246Y-72999174D01*
X134103462Y-72956063D01*
X134144684Y-72926966D01*
X134194086Y-72916700D01*
X141887414Y-72916700D01*
X141936816Y-72926966D01*
X141978038Y-72956063D01*
X142004253Y-72999174D01*
X142013850Y-73026176D01*
X142072439Y-73191031D01*
X142076323Y-73201958D01*
X142078270Y-73205716D01*
X142078272Y-73205720D01*
X142161005Y-73365387D01*
X142212176Y-73464143D01*
X142214622Y-73467608D01*
X142380019Y-73701924D01*
X142380023Y-73701929D01*
X142382464Y-73705387D01*
X142584016Y-73921196D01*
X142587297Y-73923865D01*
X142587300Y-73923868D01*
X142728354Y-74038623D01*
X142813077Y-74107550D01*
X143065379Y-74260979D01*
X143069264Y-74262666D01*
X143069265Y-74262667D01*
X143331314Y-74376491D01*
X143336223Y-74378623D01*
X143620564Y-74458292D01*
X143913105Y-74498500D01*
X144204157Y-74498500D01*
X144208395Y-74498500D01*
X144500936Y-74458292D01*
X144785277Y-74378623D01*
X145056121Y-74260979D01*
X145308423Y-74107550D01*
X145537484Y-73921196D01*
X145739036Y-73705387D01*
X145909324Y-73464143D01*
X146045177Y-73201958D01*
X146144064Y-72923717D01*
X146204143Y-72634603D01*
X146224294Y-72340000D01*
X146204143Y-72045397D01*
X146144064Y-71756283D01*
X146045177Y-71478042D01*
X145909324Y-71215857D01*
X145739036Y-70974613D01*
X145554051Y-70776543D01*
X145540371Y-70761895D01*
X145540369Y-70761893D01*
X145537484Y-70758804D01*
X145534202Y-70756134D01*
X145534199Y-70756131D01*
X145311705Y-70575120D01*
X145311704Y-70575119D01*
X145308423Y-70572450D01*
X145157868Y-70480895D01*
X145059739Y-70421221D01*
X145059737Y-70421220D01*
X145056121Y-70419021D01*
X145052241Y-70417335D01*
X145052234Y-70417332D01*
X144789158Y-70303062D01*
X144789148Y-70303058D01*
X144785277Y-70301377D01*
X144781205Y-70300236D01*
X144505010Y-70222849D01*
X144505003Y-70222847D01*
X144500936Y-70221708D01*
X144496744Y-70221131D01*
X144496740Y-70221131D01*
X144212594Y-70182077D01*
X144212592Y-70182076D01*
X144208395Y-70181500D01*
X143913105Y-70181500D01*
X143908908Y-70182076D01*
X143908905Y-70182077D01*
X143624759Y-70221131D01*
X143624752Y-70221132D01*
X143620564Y-70221708D01*
X143616499Y-70222846D01*
X143616489Y-70222849D01*
X143340294Y-70300236D01*
X143340289Y-70300237D01*
X143336223Y-70301377D01*
X143332356Y-70303056D01*
X143332341Y-70303062D01*
X143069265Y-70417332D01*
X143069252Y-70417338D01*
X143065379Y-70419021D01*
X143061768Y-70421216D01*
X143061760Y-70421221D01*
X142816689Y-70570253D01*
X142816684Y-70570256D01*
X142813077Y-70572450D01*
X142809802Y-70575114D01*
X142809794Y-70575120D01*
X142587300Y-70756131D01*
X142587289Y-70756140D01*
X142584016Y-70758804D01*
X142581137Y-70761886D01*
X142581128Y-70761895D01*
X142385352Y-70971520D01*
X142385347Y-70971525D01*
X142382464Y-70974613D01*
X142380028Y-70978063D01*
X142380019Y-70978075D01*
X142214622Y-71212391D01*
X142214618Y-71212396D01*
X142212176Y-71215857D01*
X142210230Y-71219611D01*
X142210226Y-71219619D01*
X142078272Y-71474279D01*
X142078267Y-71474288D01*
X142076323Y-71478042D01*
X142074906Y-71482027D01*
X142074902Y-71482038D01*
X142004254Y-71680825D01*
X141978038Y-71723937D01*
X141936816Y-71753034D01*
X141887414Y-71763300D01*
X134194086Y-71763300D01*
X134144684Y-71753034D01*
X134103462Y-71723937D01*
X134077246Y-71680825D01*
X134006597Y-71482038D01*
X134005177Y-71478042D01*
X133869324Y-71215857D01*
X133699036Y-70974613D01*
X133514051Y-70776543D01*
X133500371Y-70761895D01*
X133500369Y-70761893D01*
X133497484Y-70758804D01*
X133494202Y-70756134D01*
X133494199Y-70756131D01*
X133271705Y-70575120D01*
X133271704Y-70575119D01*
X133268423Y-70572450D01*
X133117868Y-70480895D01*
X133019739Y-70421221D01*
X133019737Y-70421220D01*
X133016121Y-70419021D01*
X133012241Y-70417335D01*
X133012234Y-70417332D01*
X132749158Y-70303062D01*
X132749148Y-70303058D01*
X132745277Y-70301377D01*
X132709915Y-70291469D01*
X132687995Y-70285327D01*
X132641025Y-70260307D01*
X132608870Y-70217903D01*
X132597450Y-70165925D01*
X132597450Y-65999500D01*
X132614063Y-65937500D01*
X132659450Y-65892113D01*
X132721450Y-65875500D01*
X132964031Y-65875499D01*
X132973344Y-65875499D01*
X133072708Y-65865349D01*
X133233697Y-65812003D01*
X133378044Y-65722968D01*
X133497968Y-65603044D01*
X133587003Y-65458697D01*
X133640349Y-65297708D01*
X133650500Y-65198345D01*
X133650499Y-64601656D01*
X133640349Y-64502292D01*
X133587003Y-64341303D01*
X133509155Y-64215094D01*
X133490695Y-64150000D01*
X133509155Y-64084905D01*
X133587003Y-63958697D01*
X133640349Y-63797708D01*
X133650500Y-63698345D01*
X133650499Y-63101656D01*
X133640349Y-63002292D01*
X133587003Y-62841303D01*
X133497968Y-62696956D01*
X133378044Y-62577032D01*
X133339360Y-62553171D01*
X133300365Y-62515017D01*
X133281520Y-62463821D01*
X133261856Y-62314452D01*
X133214938Y-62201180D01*
X133205499Y-62153728D01*
X133205499Y-61953243D01*
X133205499Y-61950820D01*
X133202665Y-61914796D01*
X133157869Y-61760607D01*
X133076135Y-61622402D01*
X132962598Y-61508865D01*
X132882371Y-61461419D01*
X132831108Y-61431102D01*
X132831106Y-61431101D01*
X132824393Y-61427131D01*
X132816900Y-61424954D01*
X132676292Y-61384103D01*
X132676285Y-61384101D01*
X132670204Y-61382335D01*
X132663893Y-61381838D01*
X132663886Y-61381837D01*
X132636615Y-61379691D01*
X132636600Y-61379690D01*
X132634181Y-61379500D01*
X132631735Y-61379500D01*
X132238243Y-61379500D01*
X132238217Y-61379500D01*
X132235820Y-61379501D01*
X132233406Y-61379690D01*
X132233403Y-61379691D01*
X132206111Y-61381838D01*
X132206109Y-61381838D01*
X132199796Y-61382335D01*
X132193718Y-61384100D01*
X132193711Y-61384102D01*
X132053099Y-61424954D01*
X132053096Y-61424955D01*
X132045607Y-61427131D01*
X132038897Y-61431099D01*
X132038893Y-61431101D01*
X131987628Y-61461419D01*
X131924507Y-61478686D01*
X131861387Y-61461418D01*
X131810908Y-61431565D01*
X131796700Y-61425417D01*
X131678856Y-61391180D01*
X131667590Y-61390605D01*
X131665000Y-61401585D01*
X131665000Y-61939591D01*
X131664750Y-61945953D01*
X131664787Y-61945955D01*
X131664691Y-61948384D01*
X131664500Y-61950819D01*
X131664500Y-62178392D01*
X131664501Y-62326000D01*
X131647888Y-62388000D01*
X131602501Y-62433387D01*
X131540501Y-62450000D01*
X130662221Y-62450000D01*
X130647595Y-62454124D01*
X130626512Y-62476932D01*
X130600555Y-62498298D01*
X130478416Y-62573635D01*
X130467157Y-62582537D01*
X130357537Y-62692157D01*
X130348632Y-62703419D01*
X130267246Y-62835366D01*
X130261180Y-62848374D01*
X130212272Y-62995969D01*
X130209456Y-63009125D01*
X130200319Y-63098555D01*
X130200000Y-63104832D01*
X130200000Y-63133674D01*
X130203450Y-63146549D01*
X130216326Y-63150000D01*
X131276000Y-63150000D01*
X131338000Y-63166613D01*
X131383387Y-63212000D01*
X131400000Y-63274000D01*
X131400000Y-65858673D01*
X131403788Y-65872812D01*
X131407731Y-65876755D01*
X131434611Y-65916983D01*
X131444050Y-65964436D01*
X131444050Y-70165925D01*
X131432630Y-70217903D01*
X131400475Y-70260307D01*
X131353505Y-70285327D01*
X131300295Y-70300236D01*
X131296223Y-70301377D01*
X131292356Y-70303056D01*
X131292341Y-70303062D01*
X131029265Y-70417332D01*
X131029252Y-70417338D01*
X131025379Y-70419021D01*
X131021768Y-70421216D01*
X131021760Y-70421221D01*
X130776689Y-70570253D01*
X130776684Y-70570256D01*
X130773077Y-70572450D01*
X130769802Y-70575114D01*
X130769794Y-70575120D01*
X130547300Y-70756131D01*
X130547289Y-70756140D01*
X130544016Y-70758804D01*
X130541137Y-70761886D01*
X130541128Y-70761895D01*
X130345352Y-70971520D01*
X130345347Y-70971525D01*
X130342464Y-70974613D01*
X130340028Y-70978063D01*
X130340019Y-70978075D01*
X130174622Y-71212391D01*
X130174618Y-71212396D01*
X130172176Y-71215857D01*
X130170230Y-71219611D01*
X130170226Y-71219619D01*
X130038272Y-71474279D01*
X130038267Y-71474288D01*
X130036323Y-71478042D01*
X130034906Y-71482027D01*
X130034902Y-71482038D01*
X129938857Y-71752282D01*
X129938853Y-71752294D01*
X129937436Y-71756283D01*
X129936573Y-71760433D01*
X129936572Y-71760439D01*
X129878220Y-72041240D01*
X129878218Y-72041251D01*
X129877357Y-72045397D01*
X129877068Y-72049621D01*
X129877067Y-72049629D01*
X129860601Y-72290370D01*
X129857206Y-72340000D01*
X128121459Y-72340000D01*
X128130893Y-72294603D01*
X128151044Y-72000000D01*
X128130893Y-71705397D01*
X128070814Y-71416283D01*
X127971927Y-71138042D01*
X127836074Y-70875857D01*
X127699420Y-70682261D01*
X127668230Y-70638075D01*
X127668228Y-70638072D01*
X127665786Y-70634613D01*
X127464234Y-70418804D01*
X127460952Y-70416134D01*
X127460949Y-70416131D01*
X127238455Y-70235120D01*
X127238454Y-70235119D01*
X127235173Y-70232450D01*
X126982871Y-70079021D01*
X126978991Y-70077335D01*
X126978984Y-70077332D01*
X126715908Y-69963062D01*
X126715898Y-69963058D01*
X126712027Y-69961377D01*
X126699111Y-69957758D01*
X126431760Y-69882849D01*
X126431753Y-69882847D01*
X126427686Y-69881708D01*
X126423494Y-69881131D01*
X126423490Y-69881131D01*
X126139344Y-69842077D01*
X126139342Y-69842076D01*
X126135145Y-69841500D01*
X125839855Y-69841500D01*
X125835661Y-69842076D01*
X125835652Y-69842077D01*
X125771848Y-69850846D01*
X125711333Y-69844071D01*
X125661340Y-69809305D01*
X125633925Y-69754933D01*
X125635699Y-69694066D01*
X125674501Y-69557693D01*
X125676598Y-69546474D01*
X125696129Y-69335709D01*
X125696129Y-69324291D01*
X125676598Y-69113525D01*
X125674500Y-69102303D01*
X125616577Y-68898725D01*
X125612446Y-68888061D01*
X125518107Y-68698601D01*
X125512086Y-68688877D01*
X125509934Y-68686027D01*
X125498806Y-68677758D01*
X125486641Y-68684411D01*
X123841183Y-70329869D01*
X123835253Y-70339323D01*
X123843190Y-70347168D01*
X123943660Y-70409377D01*
X123953873Y-70414463D01*
X124151250Y-70490927D01*
X124162236Y-70494053D01*
X124189765Y-70499199D01*
X124245429Y-70525057D01*
X124281873Y-70574441D01*
X124290169Y-70635254D01*
X124268285Y-70692596D01*
X124141372Y-70872391D01*
X124141368Y-70872396D01*
X124138926Y-70875857D01*
X124136980Y-70879611D01*
X124136976Y-70879619D01*
X124005022Y-71134279D01*
X124005017Y-71134288D01*
X124003073Y-71138042D01*
X124001656Y-71142027D01*
X124001652Y-71142038D01*
X123931004Y-71340825D01*
X123904788Y-71383937D01*
X123863566Y-71413034D01*
X123814164Y-71423300D01*
X118160836Y-71423300D01*
X118111434Y-71413034D01*
X118070212Y-71383937D01*
X118043996Y-71340825D01*
X118000919Y-71219619D01*
X117971927Y-71138042D01*
X117836074Y-70875857D01*
X117733121Y-70730006D01*
X117710715Y-70666961D01*
X117724328Y-70601451D01*
X117769998Y-70552551D01*
X117834426Y-70534499D01*
X118236061Y-70534499D01*
X118239372Y-70534499D01*
X118298983Y-70528091D01*
X118433831Y-70477796D01*
X118549046Y-70391546D01*
X118635296Y-70276331D01*
X118685591Y-70141483D01*
X118692000Y-70081873D01*
X118691999Y-69957754D01*
X118709383Y-69894440D01*
X118756663Y-69848875D01*
X118820580Y-69833842D01*
X118883213Y-69853554D01*
X118926999Y-69902485D01*
X118959026Y-69966804D01*
X118962478Y-69971375D01*
X119090092Y-70140365D01*
X119090097Y-70140370D01*
X119093550Y-70144943D01*
X119097786Y-70148804D01*
X119097790Y-70148809D01*
X119191964Y-70234659D01*
X119258517Y-70295330D01*
X119263387Y-70298345D01*
X119263388Y-70298346D01*
X119268283Y-70301377D01*
X119448308Y-70412843D01*
X119656461Y-70493482D01*
X119875887Y-70534500D01*
X120093384Y-70534500D01*
X120099113Y-70534500D01*
X120318539Y-70493482D01*
X120526692Y-70412843D01*
X120716483Y-70295330D01*
X120881450Y-70144943D01*
X120888547Y-70135543D01*
X120932227Y-70099272D01*
X120987500Y-70086272D01*
X121042773Y-70099272D01*
X121086452Y-70135543D01*
X121093550Y-70144943D01*
X121097784Y-70148803D01*
X121097787Y-70148806D01*
X121116566Y-70165925D01*
X121258517Y-70295330D01*
X121263387Y-70298345D01*
X121263388Y-70298346D01*
X121268283Y-70301377D01*
X121448308Y-70412843D01*
X121656461Y-70493482D01*
X121875887Y-70534500D01*
X122093384Y-70534500D01*
X122099113Y-70534500D01*
X122318539Y-70493482D01*
X122526692Y-70412843D01*
X122716483Y-70295330D01*
X122881450Y-70144943D01*
X123015974Y-69966804D01*
X123115474Y-69766980D01*
X123118492Y-69756372D01*
X123150885Y-69701819D01*
X123206025Y-69670429D01*
X123269474Y-69670424D01*
X123324620Y-69701806D01*
X123357023Y-69756357D01*
X123358423Y-69761276D01*
X123362553Y-69771938D01*
X123456898Y-69961409D01*
X123462905Y-69971111D01*
X123465063Y-69973969D01*
X123476193Y-69982240D01*
X123488357Y-69975587D01*
X124122403Y-69341542D01*
X124129067Y-69330000D01*
X124122403Y-69318457D01*
X123488359Y-68684413D01*
X123476192Y-68677758D01*
X123465064Y-68686028D01*
X123462903Y-68688890D01*
X123456898Y-68698590D01*
X123362553Y-68888061D01*
X123358421Y-68898726D01*
X123357022Y-68903645D01*
X123324618Y-68958195D01*
X123269474Y-68989575D01*
X123206026Y-68989570D01*
X123150886Y-68958181D01*
X123118492Y-68903628D01*
X123115474Y-68893020D01*
X123015974Y-68693196D01*
X122940635Y-68593431D01*
X122884907Y-68519634D01*
X122884903Y-68519630D01*
X122881450Y-68515057D01*
X122877213Y-68511194D01*
X122877209Y-68511190D01*
X122737324Y-68383669D01*
X122716483Y-68364670D01*
X122711613Y-68361655D01*
X122711611Y-68361653D01*
X122645429Y-68320675D01*
X123835254Y-68320675D01*
X123841184Y-68330130D01*
X124475957Y-68964903D01*
X124487500Y-68971567D01*
X124499042Y-68964903D01*
X125133814Y-68330130D01*
X125139744Y-68320675D01*
X125131809Y-68312830D01*
X125031339Y-68250622D01*
X125021126Y-68245536D01*
X124823749Y-68169072D01*
X124812764Y-68165947D01*
X124604696Y-68127052D01*
X124593338Y-68126000D01*
X124381662Y-68126000D01*
X124370303Y-68127052D01*
X124162235Y-68165947D01*
X124151250Y-68169072D01*
X123953874Y-68245536D01*
X123943657Y-68250624D01*
X123843191Y-68312829D01*
X123835254Y-68320675D01*
X122645429Y-68320675D01*
X122583526Y-68282347D01*
X122526692Y-68247157D01*
X122494431Y-68234659D01*
X122323886Y-68168589D01*
X122323881Y-68168587D01*
X122318539Y-68166518D01*
X122248632Y-68153450D01*
X122104742Y-68126552D01*
X122104739Y-68126551D01*
X122099113Y-68125500D01*
X121875887Y-68125500D01*
X121870258Y-68126552D01*
X121870249Y-68126553D01*
X121863387Y-68127836D01*
X121809432Y-68125967D01*
X121761385Y-68101346D01*
X121728354Y-68058641D01*
X121716601Y-68005948D01*
X121716601Y-67335390D01*
X121726040Y-67287937D01*
X121752920Y-67247709D01*
X123805464Y-65195165D01*
X130200001Y-65195165D01*
X130200321Y-65201447D01*
X130209455Y-65290867D01*
X130212274Y-65304036D01*
X130261180Y-65451625D01*
X130267246Y-65464633D01*
X130348632Y-65596580D01*
X130357537Y-65607842D01*
X130467157Y-65717462D01*
X130478419Y-65726367D01*
X130610366Y-65807753D01*
X130623374Y-65813819D01*
X130770969Y-65862727D01*
X130784125Y-65865543D01*
X130873555Y-65874680D01*
X130879832Y-65875000D01*
X130883674Y-65875000D01*
X130896549Y-65871549D01*
X130900000Y-65858674D01*
X130900000Y-65166326D01*
X130896549Y-65153450D01*
X130883674Y-65150000D01*
X130216327Y-65150000D01*
X130203451Y-65153450D01*
X130200001Y-65166326D01*
X130200001Y-65195165D01*
X123805464Y-65195165D01*
X124366955Y-64633674D01*
X130200000Y-64633674D01*
X130203450Y-64646549D01*
X130216326Y-64650000D01*
X130883674Y-64650000D01*
X130896549Y-64646549D01*
X130900000Y-64633674D01*
X130900000Y-63666326D01*
X130896549Y-63653450D01*
X130883674Y-63650000D01*
X130216327Y-63650000D01*
X130203451Y-63653450D01*
X130200001Y-63666326D01*
X130200001Y-63695165D01*
X130200321Y-63701447D01*
X130209455Y-63790867D01*
X130212274Y-63804036D01*
X130261180Y-63951625D01*
X130267246Y-63964633D01*
X130341429Y-64084902D01*
X130359891Y-64149999D01*
X130341430Y-64215095D01*
X130267245Y-64335368D01*
X130261180Y-64348374D01*
X130212272Y-64495969D01*
X130209456Y-64509125D01*
X130200319Y-64598555D01*
X130200000Y-64604832D01*
X130200000Y-64633674D01*
X124366955Y-64633674D01*
X126693690Y-62306939D01*
X127067728Y-61932901D01*
X130646414Y-61932901D01*
X130649078Y-61946293D01*
X130662221Y-61950000D01*
X131148674Y-61950000D01*
X131161549Y-61946549D01*
X131165000Y-61933674D01*
X131165000Y-61401585D01*
X131162409Y-61390605D01*
X131151143Y-61391180D01*
X131033299Y-61425417D01*
X131019092Y-61431565D01*
X130894428Y-61505291D01*
X130882192Y-61514782D01*
X130779782Y-61617192D01*
X130770291Y-61629428D01*
X130696565Y-61754092D01*
X130690417Y-61768299D01*
X130649601Y-61908787D01*
X130647335Y-61921191D01*
X130646414Y-61932901D01*
X127067728Y-61932901D01*
X131647522Y-57353106D01*
X131691521Y-57324737D01*
X131743310Y-57317054D01*
X131792387Y-57331068D01*
X131795092Y-57332876D01*
X131800711Y-57335203D01*
X131800714Y-57335205D01*
X131844762Y-57353450D01*
X131954641Y-57398963D01*
X132124018Y-57432654D01*
X132290616Y-57432654D01*
X132296712Y-57432654D01*
X132466089Y-57398963D01*
X132625638Y-57332876D01*
X132769228Y-57236932D01*
X132780772Y-57225387D01*
X132780780Y-57225383D01*
X132797827Y-57208333D01*
X132810004Y-57197654D01*
X132833804Y-57179394D01*
X132851773Y-57155975D01*
X132862462Y-57143785D01*
X132891400Y-57114846D01*
X132987349Y-56971235D01*
X133053434Y-56811663D01*
X133080591Y-56675067D01*
X133099105Y-56630365D01*
X133133318Y-56596149D01*
X133178012Y-56577635D01*
X133314644Y-56550458D01*
X133350448Y-56535627D01*
X133410052Y-56526785D01*
X133466789Y-56547085D01*
X133507258Y-56591734D01*
X133521900Y-56650188D01*
X133521900Y-57067359D01*
X133521900Y-57067377D01*
X133521901Y-57070671D01*
X133522253Y-57073949D01*
X133522254Y-57073960D01*
X133527112Y-57119151D01*
X133528309Y-57130282D01*
X133531016Y-57137542D01*
X133532208Y-57142583D01*
X133532208Y-57199610D01*
X133527973Y-57217531D01*
X133522753Y-57266086D01*
X133522400Y-57272683D01*
X133522400Y-57300875D01*
X133525850Y-57313750D01*
X133538726Y-57317201D01*
X133555516Y-57317201D01*
X133611021Y-57330317D01*
X133654781Y-57366889D01*
X133664854Y-57380345D01*
X133685406Y-57395730D01*
X133721980Y-57439491D01*
X133735097Y-57494994D01*
X133721983Y-57550498D01*
X133685412Y-57594262D01*
X133671953Y-57604338D01*
X133671950Y-57604340D01*
X133664854Y-57609653D01*
X133654778Y-57623112D01*
X133611018Y-57659685D01*
X133555513Y-57672801D01*
X133538726Y-57672801D01*
X133525850Y-57676251D01*
X133522400Y-57689127D01*
X133522400Y-57717319D01*
X133522753Y-57723915D01*
X133527973Y-57772468D01*
X133532207Y-57790384D01*
X133532209Y-57847414D01*
X133531019Y-57852449D01*
X133528309Y-57859716D01*
X133527479Y-57867428D01*
X133527479Y-57867432D01*
X133522255Y-57916018D01*
X133522254Y-57916030D01*
X133521900Y-57919326D01*
X133521900Y-57922647D01*
X133521900Y-57922648D01*
X133521900Y-58367359D01*
X133521900Y-58367377D01*
X133521901Y-58370671D01*
X133522253Y-58373949D01*
X133522254Y-58373960D01*
X133527479Y-58422567D01*
X133527480Y-58422572D01*
X133528309Y-58430282D01*
X133531019Y-58437548D01*
X133531020Y-58437552D01*
X133564617Y-58527630D01*
X133578604Y-58565130D01*
X133664854Y-58680345D01*
X133780069Y-58766595D01*
X133914917Y-58816890D01*
X133974527Y-58823299D01*
X135543472Y-58823298D01*
X135603083Y-58816890D01*
X135737931Y-58766595D01*
X135853146Y-58680345D01*
X135939396Y-58565130D01*
X135989691Y-58430282D01*
X135996100Y-58370672D01*
X135996099Y-57919327D01*
X135989691Y-57859716D01*
X135986980Y-57852448D01*
X135985792Y-57847419D01*
X135985793Y-57790380D01*
X135990026Y-57772466D01*
X135995246Y-57723915D01*
X135995600Y-57717319D01*
X135995600Y-57689127D01*
X135992149Y-57676251D01*
X135979274Y-57672801D01*
X135962487Y-57672801D01*
X135906982Y-57659685D01*
X135863221Y-57623112D01*
X135853146Y-57609653D01*
X135832590Y-57594265D01*
X135796018Y-57550504D01*
X135782902Y-57494999D01*
X135796018Y-57439494D01*
X135832590Y-57395732D01*
X135853146Y-57380345D01*
X135863218Y-57366889D01*
X135906979Y-57330317D01*
X135962484Y-57317201D01*
X135979274Y-57317201D01*
X135992149Y-57313750D01*
X135995600Y-57300875D01*
X135995600Y-57272683D01*
X135995246Y-57266086D01*
X135990027Y-57217537D01*
X135985792Y-57199619D01*
X135985791Y-57142576D01*
X135986975Y-57137562D01*
X135989691Y-57130282D01*
X135996100Y-57070672D01*
X135996099Y-56619327D01*
X135989691Y-56559716D01*
X135986980Y-56552448D01*
X135985792Y-56547419D01*
X135985793Y-56490380D01*
X135990026Y-56472466D01*
X135995246Y-56423915D01*
X135995600Y-56417319D01*
X135995600Y-56389127D01*
X135992149Y-56376251D01*
X135979274Y-56372801D01*
X135962487Y-56372801D01*
X135906982Y-56359685D01*
X135863221Y-56323112D01*
X135853146Y-56309653D01*
X135846049Y-56304340D01*
X135846048Y-56304339D01*
X135760727Y-56240468D01*
X135722243Y-56192712D01*
X135711354Y-56132354D01*
X135730723Y-56074161D01*
X135775611Y-56032369D01*
X135835038Y-56017201D01*
X135979274Y-56017201D01*
X135992149Y-56013750D01*
X135995600Y-56000875D01*
X135995600Y-55972683D01*
X135995246Y-55966086D01*
X135990026Y-55917533D01*
X135986488Y-55902559D01*
X135942052Y-55783423D01*
X135933637Y-55768011D01*
X135858101Y-55667108D01*
X135845692Y-55654699D01*
X135744789Y-55579163D01*
X135729377Y-55570748D01*
X135610241Y-55526312D01*
X135595267Y-55522774D01*
X135546714Y-55517554D01*
X135540118Y-55517201D01*
X134953126Y-55517201D01*
X134940250Y-55520651D01*
X134936800Y-55533527D01*
X134936800Y-56000876D01*
X134939407Y-56010606D01*
X134941249Y-56066890D01*
X134918008Y-56118185D01*
X134874476Y-56153911D01*
X134819633Y-56166699D01*
X134762685Y-56166699D01*
X134705199Y-56166699D01*
X134643201Y-56150088D01*
X134597813Y-56104700D01*
X134581200Y-56042700D01*
X134581200Y-55533527D01*
X134577749Y-55520651D01*
X134564874Y-55517201D01*
X134011870Y-55517201D01*
X133964412Y-55507760D01*
X133924181Y-55480874D01*
X133897302Y-55440638D01*
X133889056Y-55420722D01*
X133835863Y-55292251D01*
X133834006Y-55289472D01*
X133819990Y-55240360D01*
X133827675Y-55188578D01*
X133856043Y-55144584D01*
X133911011Y-55089616D01*
X133951240Y-55062737D01*
X133998692Y-55053298D01*
X135460161Y-55053298D01*
X135463472Y-55053298D01*
X135523083Y-55046890D01*
X135657931Y-54996595D01*
X135773146Y-54910345D01*
X135859396Y-54795130D01*
X135900217Y-54685680D01*
X135940911Y-54630640D01*
X136055507Y-54542708D01*
X136147946Y-54422239D01*
X136206056Y-54281950D01*
X136220900Y-54169198D01*
X136225876Y-54131401D01*
X136221961Y-54101663D01*
X136220900Y-54085478D01*
X136220900Y-53700038D01*
X136230339Y-53652585D01*
X136257219Y-53612357D01*
X137359219Y-52510357D01*
X137408582Y-52480107D01*
X137466298Y-52475565D01*
X137519785Y-52497720D01*
X137557385Y-52541743D01*
X137570900Y-52598038D01*
X137570900Y-54817205D01*
X137569838Y-54833390D01*
X137565924Y-54863128D01*
X137570900Y-54900925D01*
X137582959Y-54992526D01*
X137585744Y-55013677D01*
X137643854Y-55153966D01*
X137701617Y-55229245D01*
X137736293Y-55274435D01*
X137742739Y-55279381D01*
X137760090Y-55292695D01*
X137772285Y-55303390D01*
X138396605Y-55927710D01*
X138407299Y-55939904D01*
X138420615Y-55957258D01*
X138420621Y-55957264D01*
X138425565Y-55963707D01*
X138437263Y-55972683D01*
X138455809Y-55986914D01*
X138455810Y-55986915D01*
X138528509Y-56042700D01*
X138546034Y-56056147D01*
X138673525Y-56108955D01*
X138678809Y-56111144D01*
X138678811Y-56111144D01*
X138686323Y-56114256D01*
X138788676Y-56127731D01*
X138836872Y-56134076D01*
X138844931Y-56133015D01*
X138866610Y-56130161D01*
X138882795Y-56129100D01*
X138956033Y-56129100D01*
X139010876Y-56141888D01*
X139054408Y-56177613D01*
X139077650Y-56228907D01*
X139075866Y-56283409D01*
X139073944Y-56288050D01*
X139072883Y-56296106D01*
X139072883Y-56296108D01*
X139071557Y-56306182D01*
X139066473Y-56344802D01*
X139054124Y-56438599D01*
X139055185Y-56446658D01*
X139058039Y-56468337D01*
X139059100Y-56484522D01*
X139059100Y-56869962D01*
X139049661Y-56917415D01*
X139022781Y-56957643D01*
X136415432Y-59564990D01*
X136403242Y-59575681D01*
X136385890Y-59588996D01*
X136385886Y-59588999D01*
X136379443Y-59593944D01*
X136374498Y-59600387D01*
X136374495Y-59600391D01*
X136356245Y-59624174D01*
X136356240Y-59624181D01*
X136356235Y-59624188D01*
X136356235Y-59624189D01*
X136291951Y-59707965D01*
X136291948Y-59707968D01*
X136287004Y-59714413D01*
X136283895Y-59721917D01*
X136283894Y-59721920D01*
X136232004Y-59847192D01*
X136232002Y-59847197D01*
X136228894Y-59854702D01*
X136227834Y-59862753D01*
X136227832Y-59862761D01*
X136210485Y-59994525D01*
X136209074Y-60005251D01*
X136210135Y-60013310D01*
X136212989Y-60034989D01*
X136214050Y-60051174D01*
X136214050Y-66486630D01*
X136200039Y-66543887D01*
X136161173Y-66588205D01*
X136011538Y-66692979D01*
X136011533Y-66692982D01*
X136007103Y-66696085D01*
X136003279Y-66699908D01*
X136003273Y-66699914D01*
X135860664Y-66842523D01*
X135860658Y-66842529D01*
X135856835Y-66846353D01*
X135853732Y-66850783D01*
X135853729Y-66850788D01*
X135738053Y-67015991D01*
X135738048Y-67015998D01*
X135734945Y-67020431D01*
X135732657Y-67025337D01*
X135732655Y-67025341D01*
X135647421Y-67208123D01*
X135647416Y-67208134D01*
X135645134Y-67213030D01*
X135643734Y-67218252D01*
X135643733Y-67218257D01*
X135591533Y-67413066D01*
X135591530Y-67413078D01*
X135590132Y-67418299D01*
X135589660Y-67423688D01*
X135589659Y-67423697D01*
X135582186Y-67509125D01*
X135571611Y-67630000D01*
X135572083Y-67635395D01*
X135589659Y-67836302D01*
X135589660Y-67836309D01*
X135590132Y-67841701D01*
X135591531Y-67846922D01*
X135591533Y-67846933D01*
X135634142Y-68005948D01*
X135645134Y-68046970D01*
X135647418Y-68051869D01*
X135647421Y-68051876D01*
X135714253Y-68195196D01*
X135734945Y-68239570D01*
X135738051Y-68244007D01*
X135738053Y-68244009D01*
X135786241Y-68312829D01*
X135856835Y-68413647D01*
X135860664Y-68417476D01*
X135985507Y-68542319D01*
X136017601Y-68597906D01*
X136017601Y-68662094D01*
X135985507Y-68717681D01*
X135860664Y-68842523D01*
X135860658Y-68842529D01*
X135856835Y-68846353D01*
X135853732Y-68850783D01*
X135853729Y-68850788D01*
X135738053Y-69015991D01*
X135738050Y-69015997D01*
X135734945Y-69020431D01*
X135732657Y-69025337D01*
X135732655Y-69025341D01*
X135647421Y-69208123D01*
X135647416Y-69208134D01*
X135645134Y-69213030D01*
X135643734Y-69218252D01*
X135643733Y-69218257D01*
X135591533Y-69413066D01*
X135591530Y-69413078D01*
X135590132Y-69418299D01*
X135589660Y-69423688D01*
X135589659Y-69423697D01*
X135578918Y-69546474D01*
X135571611Y-69630000D01*
X135572083Y-69635395D01*
X135589659Y-69836302D01*
X135589660Y-69836309D01*
X135590132Y-69841701D01*
X135591531Y-69846922D01*
X135591533Y-69846933D01*
X135637780Y-70019526D01*
X135645134Y-70046970D01*
X135647418Y-70051869D01*
X135647421Y-70051876D01*
X135724841Y-70217903D01*
X135734945Y-70239570D01*
X135738051Y-70244007D01*
X135738053Y-70244009D01*
X135798173Y-70329869D01*
X135856835Y-70413647D01*
X136007103Y-70563915D01*
X136181180Y-70685805D01*
X136373780Y-70775616D01*
X136498266Y-70808972D01*
X136573816Y-70829216D01*
X136573818Y-70829216D01*
X136579049Y-70830618D01*
X136790750Y-70849139D01*
X137002451Y-70830618D01*
X137207720Y-70775616D01*
X137400320Y-70685805D01*
X137455805Y-70646954D01*
X138630717Y-70646954D01*
X138638148Y-70655063D01*
X138676990Y-70682261D01*
X138686347Y-70687663D01*
X138869048Y-70772857D01*
X138879173Y-70776543D01*
X139073903Y-70828720D01*
X139084535Y-70830595D01*
X139285355Y-70848165D01*
X139296145Y-70848165D01*
X139496964Y-70830595D01*
X139507596Y-70828720D01*
X139702326Y-70776543D01*
X139712451Y-70772857D01*
X139895156Y-70687661D01*
X139904509Y-70682261D01*
X139943347Y-70655066D01*
X139950780Y-70646953D01*
X139944867Y-70637671D01*
X139302292Y-69995095D01*
X139290750Y-69988431D01*
X139279207Y-69995095D01*
X138636631Y-70637671D01*
X138630717Y-70646954D01*
X137455805Y-70646954D01*
X137574397Y-70563915D01*
X137724665Y-70413647D01*
X137846555Y-70239570D01*
X137928644Y-70063528D01*
X137974401Y-70011353D01*
X138041026Y-69991934D01*
X138107651Y-70011354D01*
X138153408Y-70063530D01*
X138233089Y-70234408D01*
X138238486Y-70243756D01*
X138265683Y-70282597D01*
X138273795Y-70290030D01*
X138283077Y-70284117D01*
X139203068Y-69364127D01*
X139258655Y-69332033D01*
X139322843Y-69332033D01*
X139378430Y-69364127D01*
X140298421Y-70284117D01*
X140307703Y-70290030D01*
X140315816Y-70282597D01*
X140343011Y-70243759D01*
X140348411Y-70234406D01*
X140433607Y-70051701D01*
X140437293Y-70041576D01*
X140489470Y-69846846D01*
X140491345Y-69836214D01*
X140508915Y-69635395D01*
X140508915Y-69624605D01*
X140491345Y-69423785D01*
X140489470Y-69413153D01*
X140437293Y-69218423D01*
X140433607Y-69208299D01*
X140348409Y-69025589D01*
X140343016Y-69016247D01*
X140273973Y-68917644D01*
X140252141Y-68858634D01*
X140262082Y-68796505D01*
X140301238Y-68747254D01*
X140340742Y-68717681D01*
X140362296Y-68701546D01*
X140448546Y-68586331D01*
X140498841Y-68451483D01*
X140505250Y-68391873D01*
X140505249Y-66868128D01*
X140498841Y-66808517D01*
X140448546Y-66673669D01*
X140362296Y-66558454D01*
X140338940Y-66540970D01*
X140254181Y-66477519D01*
X140254180Y-66477518D01*
X140247081Y-66472204D01*
X140112233Y-66421909D01*
X140104520Y-66421079D01*
X140104517Y-66421079D01*
X140055930Y-66415855D01*
X140055919Y-66415854D01*
X140052623Y-66415500D01*
X140049300Y-66415500D01*
X138532189Y-66415500D01*
X138532170Y-66415500D01*
X138528878Y-66415501D01*
X138525600Y-66415853D01*
X138525588Y-66415854D01*
X138476981Y-66421079D01*
X138476975Y-66421080D01*
X138469267Y-66421909D01*
X138462002Y-66424618D01*
X138461996Y-66424620D01*
X138342730Y-66469104D01*
X138342728Y-66469104D01*
X138334419Y-66472204D01*
X138327322Y-66477516D01*
X138327318Y-66477519D01*
X138226300Y-66553141D01*
X138226296Y-66553144D01*
X138219204Y-66558454D01*
X138213894Y-66565546D01*
X138213891Y-66565550D01*
X138154530Y-66644847D01*
X138098596Y-66686718D01*
X138028905Y-66691702D01*
X137967582Y-66658217D01*
X137708569Y-66399204D01*
X137681689Y-66358976D01*
X137672250Y-66311523D01*
X137672250Y-60421743D01*
X137681689Y-60374290D01*
X137708569Y-60334062D01*
X138045439Y-59997192D01*
X139348560Y-58694070D01*
X139398482Y-58663641D01*
X139456802Y-58659470D01*
X139510550Y-58682487D01*
X139615209Y-58760836D01*
X139630622Y-58769251D01*
X139749758Y-58813687D01*
X139764732Y-58817225D01*
X139813285Y-58822445D01*
X139819882Y-58822799D01*
X140406874Y-58822799D01*
X140419749Y-58819348D01*
X140423200Y-58806473D01*
X140423200Y-58297300D01*
X140439813Y-58235300D01*
X140485200Y-58189913D01*
X140547200Y-58173300D01*
X140661632Y-58173300D01*
X140716475Y-58186088D01*
X140760007Y-58221813D01*
X140783249Y-58273107D01*
X140781407Y-58329392D01*
X140778800Y-58339122D01*
X140778800Y-58806473D01*
X140782250Y-58819348D01*
X140795126Y-58822799D01*
X141382118Y-58822799D01*
X141388714Y-58822445D01*
X141437267Y-58817225D01*
X141452241Y-58813687D01*
X141571377Y-58769251D01*
X141586789Y-58760836D01*
X141687692Y-58685300D01*
X141700101Y-58672891D01*
X141775637Y-58571988D01*
X141784052Y-58556576D01*
X141828488Y-58437440D01*
X141832026Y-58422466D01*
X141837246Y-58373913D01*
X141837600Y-58367317D01*
X141837600Y-58339125D01*
X141834149Y-58326249D01*
X141821274Y-58322799D01*
X141677038Y-58322799D01*
X141617611Y-58307631D01*
X141572723Y-58265839D01*
X141553354Y-58207646D01*
X141564243Y-58147288D01*
X141602727Y-58099532D01*
X141624708Y-58083077D01*
X141695146Y-58030347D01*
X141705221Y-58016887D01*
X141748982Y-57980315D01*
X141804487Y-57967199D01*
X141821274Y-57967199D01*
X141834149Y-57963748D01*
X141841246Y-57937265D01*
X141862646Y-57893869D01*
X141899025Y-57861968D01*
X141944839Y-57846418D01*
X141955459Y-57845019D01*
X141971637Y-57843960D01*
X142620304Y-57843960D01*
X142636489Y-57845021D01*
X142666227Y-57848936D01*
X142711924Y-57842920D01*
X142816776Y-57829116D01*
X142957065Y-57771006D01*
X142957065Y-57771005D01*
X143047289Y-57701775D01*
X143047291Y-57701772D01*
X143077534Y-57678567D01*
X143095797Y-57654764D01*
X143106482Y-57642580D01*
X143527720Y-57221342D01*
X143539904Y-57210657D01*
X143563707Y-57192394D01*
X143598624Y-57146890D01*
X143656146Y-57071925D01*
X143662788Y-57055889D01*
X143698683Y-57007490D01*
X143753157Y-56981725D01*
X143813344Y-56984681D01*
X143865030Y-57015661D01*
X143998868Y-57149499D01*
X144025749Y-57189730D01*
X144035187Y-57237185D01*
X144025745Y-57284640D01*
X144005100Y-57334470D01*
X144005096Y-57334481D01*
X144002768Y-57340102D01*
X144001579Y-57346073D01*
X144001578Y-57346079D01*
X143990818Y-57400151D01*
X143969235Y-57508612D01*
X143969234Y-57514702D01*
X143969234Y-57514707D01*
X143969219Y-57674336D01*
X143969219Y-57674341D01*
X143969219Y-57680426D01*
X144002721Y-57848941D01*
X144005049Y-57854565D01*
X144005051Y-57854569D01*
X144048858Y-57960362D01*
X144068453Y-58007684D01*
X144071830Y-58012739D01*
X144071833Y-58012745D01*
X144129807Y-58099532D01*
X144163890Y-58150554D01*
X144168200Y-58154865D01*
X144168201Y-58154866D01*
X144181386Y-58168054D01*
X144181408Y-58168079D01*
X144181430Y-58168115D01*
X144181517Y-58168202D01*
X144181518Y-58168203D01*
X144192214Y-58178897D01*
X144202917Y-58191100D01*
X144221164Y-58214880D01*
X144227610Y-58219826D01*
X144227611Y-58219827D01*
X144244768Y-58232992D01*
X144256958Y-58243682D01*
X144287365Y-58274085D01*
X144287368Y-58274087D01*
X144291678Y-58278397D01*
X144434553Y-58373851D01*
X144593306Y-58439598D01*
X144761834Y-58473110D01*
X144933662Y-58473101D01*
X145102187Y-58439570D01*
X145157688Y-58416576D01*
X145205137Y-58407136D01*
X145252593Y-58416574D01*
X145292824Y-58443455D01*
X147634581Y-60785212D01*
X147661461Y-60825440D01*
X147670900Y-60872893D01*
X147670900Y-70350580D01*
X147661461Y-70398033D01*
X147634581Y-70438261D01*
X147420808Y-70652033D01*
X147408617Y-70662725D01*
X147391258Y-70676045D01*
X147391250Y-70676052D01*
X147384812Y-70680993D01*
X147379872Y-70687430D01*
X147379868Y-70687435D01*
X147358873Y-70714798D01*
X147297320Y-70795013D01*
X147297316Y-70795019D01*
X147292372Y-70801463D01*
X147289263Y-70808967D01*
X147289261Y-70808972D01*
X147281082Y-70828720D01*
X147280837Y-70829311D01*
X147240394Y-70926951D01*
X147234263Y-70941752D01*
X147233202Y-70949806D01*
X147233202Y-70949809D01*
X147216703Y-71075127D01*
X147214443Y-71092301D01*
X147215504Y-71100360D01*
X147218358Y-71122039D01*
X147219419Y-71138224D01*
X147219419Y-72861778D01*
X147218357Y-72877963D01*
X147214443Y-72907701D01*
X147215504Y-72915760D01*
X147219419Y-72945498D01*
X147233201Y-73050190D01*
X147233202Y-73050196D01*
X147234263Y-73058250D01*
X147292373Y-73198539D01*
X147384812Y-73319008D01*
X147391258Y-73323954D01*
X147408609Y-73337268D01*
X147420804Y-73347963D01*
X147634581Y-73561740D01*
X147661461Y-73601968D01*
X147670900Y-73649421D01*
X147670900Y-74117205D01*
X147669838Y-74133390D01*
X147665924Y-74163128D01*
X147666985Y-74171187D01*
X147670900Y-74200925D01*
X147684682Y-74305617D01*
X147684683Y-74305623D01*
X147685744Y-74313677D01*
X147688853Y-74321183D01*
X147688854Y-74321186D01*
X147713118Y-74379763D01*
X147743854Y-74453966D01*
X147836293Y-74574435D01*
X147842739Y-74579381D01*
X147860090Y-74592695D01*
X147872285Y-74603390D01*
X148796605Y-75527710D01*
X148807299Y-75539904D01*
X148820615Y-75557258D01*
X148820621Y-75557264D01*
X148825565Y-75563707D01*
X148855809Y-75586914D01*
X148855810Y-75586915D01*
X148946034Y-75656146D01*
X149086323Y-75714256D01*
X149236872Y-75734076D01*
X149244931Y-75733015D01*
X149266610Y-75730161D01*
X149282795Y-75729100D01*
X152817205Y-75729100D01*
X152833390Y-75730161D01*
X152863128Y-75734076D01*
X153013677Y-75714256D01*
X153153966Y-75656146D01*
X153244190Y-75586915D01*
X153244190Y-75586914D01*
X153274435Y-75563707D01*
X153292698Y-75539904D01*
X153303383Y-75527720D01*
X153506768Y-75324335D01*
X163699500Y-75324335D01*
X163700343Y-75329387D01*
X163700344Y-75329398D01*
X163738367Y-75557258D01*
X163740429Y-75569614D01*
X163742093Y-75574461D01*
X163742094Y-75574465D01*
X163819507Y-75799962D01*
X163819510Y-75799969D01*
X163821172Y-75804810D01*
X163823607Y-75809310D01*
X163823610Y-75809316D01*
X163937084Y-76018997D01*
X163939526Y-76023509D01*
X164092262Y-76219744D01*
X164096029Y-76223211D01*
X164096032Y-76223215D01*
X164271439Y-76384688D01*
X164275215Y-76388164D01*
X164374057Y-76452740D01*
X164479099Y-76521368D01*
X164479102Y-76521369D01*
X164483393Y-76524173D01*
X164711119Y-76624063D01*
X164952179Y-76685108D01*
X165137933Y-76700500D01*
X165259497Y-76700500D01*
X165262067Y-76700500D01*
X165447821Y-76685108D01*
X165688881Y-76624063D01*
X165916607Y-76524173D01*
X166124785Y-76388164D01*
X166307738Y-76219744D01*
X166460474Y-76023509D01*
X166578828Y-75804810D01*
X166659571Y-75569614D01*
X166700500Y-75324335D01*
X166700500Y-75075665D01*
X166659571Y-74830386D01*
X166578828Y-74595190D01*
X166460474Y-74376491D01*
X166307738Y-74180256D01*
X166303970Y-74176787D01*
X166303967Y-74176784D01*
X166128560Y-74015311D01*
X166128559Y-74015310D01*
X166124785Y-74011836D01*
X166116885Y-74006675D01*
X165920900Y-73878631D01*
X165920893Y-73878627D01*
X165916607Y-73875827D01*
X165911916Y-73873769D01*
X165911910Y-73873766D01*
X165693577Y-73777997D01*
X165693578Y-73777997D01*
X165688881Y-73775937D01*
X165683911Y-73774678D01*
X165683910Y-73774678D01*
X165452795Y-73716151D01*
X165452788Y-73716149D01*
X165447821Y-73714892D01*
X165442709Y-73714468D01*
X165442701Y-73714467D01*
X165264633Y-73699712D01*
X165264617Y-73699711D01*
X165262067Y-73699500D01*
X165137933Y-73699500D01*
X165135383Y-73699711D01*
X165135366Y-73699712D01*
X164957298Y-73714467D01*
X164957288Y-73714468D01*
X164952179Y-73714892D01*
X164947213Y-73716149D01*
X164947204Y-73716151D01*
X164716089Y-73774678D01*
X164716084Y-73774679D01*
X164711119Y-73775937D01*
X164706425Y-73777995D01*
X164706422Y-73777997D01*
X164488089Y-73873766D01*
X164488077Y-73873772D01*
X164483393Y-73875827D01*
X164479111Y-73878624D01*
X164479099Y-73878631D01*
X164279512Y-74009028D01*
X164279506Y-74009031D01*
X164275215Y-74011836D01*
X164271446Y-74015305D01*
X164271439Y-74015311D01*
X164096032Y-74176784D01*
X164096023Y-74176793D01*
X164092262Y-74180256D01*
X164089113Y-74184301D01*
X164089111Y-74184304D01*
X163942678Y-74372440D01*
X163942672Y-74372448D01*
X163939526Y-74376491D01*
X163937088Y-74380995D01*
X163937084Y-74381002D01*
X163823610Y-74590683D01*
X163823605Y-74590693D01*
X163821172Y-74595190D01*
X163819511Y-74600026D01*
X163819507Y-74600037D01*
X163742094Y-74825534D01*
X163742092Y-74825541D01*
X163740429Y-74830386D01*
X163739585Y-74835441D01*
X163739585Y-74835443D01*
X163700344Y-75070601D01*
X163700343Y-75070613D01*
X163699500Y-75075665D01*
X163699500Y-75324335D01*
X153506768Y-75324335D01*
X155515221Y-73315882D01*
X155527405Y-73305197D01*
X155551208Y-73286934D01*
X155611291Y-73208633D01*
X155643647Y-73166465D01*
X155701757Y-73026176D01*
X155721577Y-72875627D01*
X155717662Y-72845889D01*
X155716601Y-72829704D01*
X155716601Y-72000000D01*
X157823956Y-72000000D01*
X157844107Y-72294603D01*
X157844968Y-72298750D01*
X157844970Y-72298759D01*
X157902728Y-72576700D01*
X157904186Y-72583717D01*
X157905604Y-72587709D01*
X157905607Y-72587717D01*
X157997362Y-72845889D01*
X158003073Y-72861958D01*
X158005020Y-72865716D01*
X158005022Y-72865720D01*
X158100607Y-73050190D01*
X158138926Y-73124143D01*
X158141372Y-73127608D01*
X158306769Y-73361924D01*
X158306773Y-73361929D01*
X158309214Y-73365387D01*
X158510766Y-73581196D01*
X158514047Y-73583865D01*
X158514050Y-73583868D01*
X158536298Y-73601968D01*
X158739827Y-73767550D01*
X158992129Y-73920979D01*
X158996014Y-73922666D01*
X158996015Y-73922667D01*
X159250409Y-74033166D01*
X159262973Y-74038623D01*
X159547314Y-74118292D01*
X159839855Y-74158500D01*
X160130907Y-74158500D01*
X160135145Y-74158500D01*
X160427686Y-74118292D01*
X160712027Y-74038623D01*
X160982871Y-73920979D01*
X161235173Y-73767550D01*
X161464234Y-73581196D01*
X161665786Y-73365387D01*
X161836074Y-73124143D01*
X161971927Y-72861958D01*
X162070814Y-72583717D01*
X162130893Y-72294603D01*
X162151044Y-72000000D01*
X162130893Y-71705397D01*
X162070814Y-71416283D01*
X161971927Y-71138042D01*
X161836074Y-70875857D01*
X161699420Y-70682261D01*
X161668230Y-70638075D01*
X161668228Y-70638072D01*
X161665786Y-70634613D01*
X161520075Y-70478595D01*
X161495345Y-70439449D01*
X161486700Y-70393959D01*
X161486700Y-67225106D01*
X161497323Y-67174890D01*
X161527371Y-67133278D01*
X161571697Y-67107400D01*
X161593002Y-67100340D01*
X161708697Y-67062003D01*
X161853044Y-66972968D01*
X161972968Y-66853044D01*
X162062003Y-66708697D01*
X162115349Y-66547708D01*
X162125500Y-66448345D01*
X162125499Y-65851656D01*
X162115349Y-65752292D01*
X162062003Y-65591303D01*
X161981072Y-65460094D01*
X161962611Y-65395000D01*
X161981072Y-65329905D01*
X162062003Y-65198697D01*
X162115349Y-65037708D01*
X162125500Y-64938345D01*
X162125499Y-64341656D01*
X162115349Y-64242292D01*
X162062003Y-64081303D01*
X161972968Y-63936956D01*
X161853044Y-63817032D01*
X161846894Y-63813238D01*
X161846892Y-63813237D01*
X161739402Y-63746936D01*
X161696221Y-63701829D01*
X161680499Y-63641401D01*
X161680499Y-63150820D01*
X161677665Y-63114796D01*
X161632869Y-62960607D01*
X161551135Y-62822402D01*
X161437598Y-62708865D01*
X161357371Y-62661419D01*
X161306108Y-62631102D01*
X161306106Y-62631101D01*
X161299393Y-62627131D01*
X161291900Y-62624954D01*
X161151292Y-62584103D01*
X161151285Y-62584101D01*
X161145204Y-62582335D01*
X161138893Y-62581838D01*
X161138886Y-62581837D01*
X161111615Y-62579691D01*
X161111600Y-62579690D01*
X161109181Y-62579500D01*
X161106735Y-62579500D01*
X160713243Y-62579500D01*
X160713217Y-62579500D01*
X160710820Y-62579501D01*
X160708406Y-62579690D01*
X160708403Y-62579691D01*
X160681111Y-62581838D01*
X160681109Y-62581838D01*
X160674796Y-62582335D01*
X160668718Y-62584100D01*
X160668711Y-62584102D01*
X160528099Y-62624954D01*
X160528096Y-62624955D01*
X160520607Y-62627131D01*
X160513897Y-62631099D01*
X160513893Y-62631101D01*
X160462628Y-62661419D01*
X160399507Y-62678686D01*
X160336387Y-62661418D01*
X160285908Y-62631565D01*
X160271700Y-62625417D01*
X160153856Y-62591180D01*
X160142590Y-62590605D01*
X160140000Y-62601585D01*
X160140000Y-63139591D01*
X160139750Y-63145953D01*
X160139787Y-63145955D01*
X160139691Y-63148384D01*
X160139500Y-63150819D01*
X160139500Y-63385492D01*
X160139501Y-63526000D01*
X160122888Y-63588000D01*
X160077501Y-63633387D01*
X160015501Y-63650000D01*
X159137221Y-63650000D01*
X159124078Y-63653706D01*
X159122223Y-63663032D01*
X159102438Y-63709591D01*
X159065704Y-63744374D01*
X158953416Y-63813635D01*
X158942157Y-63822537D01*
X158832537Y-63932157D01*
X158823632Y-63943419D01*
X158742246Y-64075366D01*
X158736180Y-64088374D01*
X158687272Y-64235969D01*
X158684456Y-64249125D01*
X158675319Y-64338555D01*
X158675000Y-64344832D01*
X158675000Y-64373674D01*
X158678450Y-64386549D01*
X158691326Y-64390000D01*
X159751000Y-64390000D01*
X159813000Y-64406613D01*
X159858387Y-64452000D01*
X159875000Y-64514000D01*
X159875000Y-67108673D01*
X159878450Y-67121548D01*
X159891326Y-67124999D01*
X159895165Y-67124999D01*
X159901447Y-67124678D01*
X159990867Y-67115544D01*
X160004036Y-67112725D01*
X160151624Y-67063819D01*
X160156891Y-67061364D01*
X160217407Y-67050009D01*
X160275923Y-67069162D01*
X160318014Y-67114100D01*
X160333300Y-67173744D01*
X160333300Y-69726526D01*
X160313754Y-69793349D01*
X160261279Y-69839106D01*
X160192417Y-69849371D01*
X160139347Y-69842077D01*
X160139339Y-69842076D01*
X160135145Y-69841500D01*
X159839855Y-69841500D01*
X159835661Y-69842076D01*
X159835652Y-69842077D01*
X159771848Y-69850846D01*
X159711333Y-69844071D01*
X159661340Y-69809305D01*
X159633925Y-69754933D01*
X159635699Y-69694066D01*
X159674501Y-69557693D01*
X159676598Y-69546474D01*
X159696129Y-69335709D01*
X159696129Y-69324291D01*
X159676598Y-69113525D01*
X159674500Y-69102303D01*
X159616577Y-68898725D01*
X159612446Y-68888061D01*
X159518107Y-68698601D01*
X159512086Y-68688877D01*
X159509934Y-68686027D01*
X159498806Y-68677758D01*
X159486641Y-68684411D01*
X157841183Y-70329869D01*
X157835253Y-70339323D01*
X157843190Y-70347168D01*
X157943660Y-70409377D01*
X157953873Y-70414463D01*
X158151250Y-70490927D01*
X158162236Y-70494053D01*
X158189765Y-70499199D01*
X158245429Y-70525057D01*
X158281873Y-70574441D01*
X158290169Y-70635254D01*
X158268285Y-70692596D01*
X158141372Y-70872391D01*
X158141368Y-70872396D01*
X158138926Y-70875857D01*
X158136980Y-70879611D01*
X158136976Y-70879619D01*
X158005022Y-71134279D01*
X158005017Y-71134288D01*
X158003073Y-71138042D01*
X158001656Y-71142027D01*
X158001652Y-71142038D01*
X157905607Y-71412282D01*
X157905603Y-71412294D01*
X157904186Y-71416283D01*
X157903323Y-71420433D01*
X157903322Y-71420439D01*
X157844970Y-71701240D01*
X157844968Y-71701251D01*
X157844107Y-71705397D01*
X157843818Y-71709621D01*
X157843817Y-71709629D01*
X157840626Y-71756283D01*
X157823956Y-72000000D01*
X155716601Y-72000000D01*
X155716601Y-70654052D01*
X155728354Y-70601359D01*
X155761385Y-70558654D01*
X155809432Y-70534033D01*
X155863387Y-70532164D01*
X155869648Y-70533333D01*
X155875887Y-70534500D01*
X156093384Y-70534500D01*
X156099113Y-70534500D01*
X156318539Y-70493482D01*
X156526692Y-70412843D01*
X156716483Y-70295330D01*
X156881450Y-70144943D01*
X157015974Y-69966804D01*
X157115474Y-69766980D01*
X157118492Y-69756372D01*
X157150885Y-69701819D01*
X157206025Y-69670429D01*
X157269474Y-69670424D01*
X157324620Y-69701806D01*
X157357023Y-69756357D01*
X157358423Y-69761276D01*
X157362553Y-69771938D01*
X157456898Y-69961409D01*
X157462905Y-69971111D01*
X157465063Y-69973969D01*
X157476193Y-69982240D01*
X157488357Y-69975587D01*
X158122403Y-69341542D01*
X158129067Y-69330000D01*
X158122403Y-69318457D01*
X157488359Y-68684413D01*
X157476192Y-68677758D01*
X157465064Y-68686028D01*
X157462903Y-68688890D01*
X157456898Y-68698590D01*
X157362553Y-68888061D01*
X157358421Y-68898726D01*
X157357022Y-68903645D01*
X157324618Y-68958195D01*
X157269474Y-68989575D01*
X157206026Y-68989570D01*
X157150886Y-68958181D01*
X157118492Y-68903628D01*
X157115474Y-68893020D01*
X157015974Y-68693196D01*
X156940635Y-68593431D01*
X156884907Y-68519634D01*
X156884903Y-68519630D01*
X156881450Y-68515057D01*
X156877213Y-68511194D01*
X156877209Y-68511190D01*
X156737324Y-68383669D01*
X156716483Y-68364670D01*
X156711613Y-68361655D01*
X156711611Y-68361653D01*
X156645429Y-68320675D01*
X157835254Y-68320675D01*
X157841184Y-68330130D01*
X158475957Y-68964903D01*
X158487500Y-68971567D01*
X158499042Y-68964903D01*
X159133814Y-68330130D01*
X159139744Y-68320675D01*
X159131809Y-68312830D01*
X159031339Y-68250622D01*
X159021126Y-68245536D01*
X158823749Y-68169072D01*
X158812764Y-68165947D01*
X158604696Y-68127052D01*
X158593338Y-68126000D01*
X158381662Y-68126000D01*
X158370303Y-68127052D01*
X158162235Y-68165947D01*
X158151250Y-68169072D01*
X157953874Y-68245536D01*
X157943657Y-68250624D01*
X157843191Y-68312829D01*
X157835254Y-68320675D01*
X156645429Y-68320675D01*
X156583526Y-68282347D01*
X156526692Y-68247157D01*
X156494431Y-68234659D01*
X156323886Y-68168589D01*
X156323881Y-68168587D01*
X156318539Y-68166518D01*
X156248632Y-68153450D01*
X156104742Y-68126552D01*
X156104739Y-68126551D01*
X156099113Y-68125500D01*
X155875887Y-68125500D01*
X155870261Y-68126551D01*
X155870257Y-68126552D01*
X155662098Y-68165464D01*
X155662095Y-68165464D01*
X155656461Y-68166518D01*
X155651121Y-68168586D01*
X155651113Y-68168589D01*
X155453650Y-68245087D01*
X155453645Y-68245089D01*
X155448308Y-68247157D01*
X155443436Y-68250173D01*
X155443433Y-68250175D01*
X155263388Y-68361653D01*
X155263380Y-68361658D01*
X155258517Y-68364670D01*
X155254286Y-68368526D01*
X155254282Y-68368530D01*
X155097790Y-68511190D01*
X155097780Y-68511200D01*
X155093550Y-68515057D01*
X155090096Y-68519630D01*
X155090093Y-68519634D01*
X155086452Y-68524456D01*
X155042770Y-68560727D01*
X154987500Y-68573726D01*
X154932230Y-68560727D01*
X154888548Y-68524456D01*
X154884906Y-68519634D01*
X154881450Y-68515057D01*
X154877213Y-68511194D01*
X154877209Y-68511190D01*
X154737324Y-68383669D01*
X154716483Y-68364670D01*
X154711613Y-68361655D01*
X154711611Y-68361653D01*
X154583526Y-68282347D01*
X154526692Y-68247157D01*
X154494431Y-68234659D01*
X154323886Y-68168589D01*
X154323881Y-68168587D01*
X154318539Y-68166518D01*
X154248632Y-68153450D01*
X154104742Y-68126552D01*
X154104739Y-68126551D01*
X154099113Y-68125500D01*
X153875887Y-68125500D01*
X153870261Y-68126551D01*
X153870257Y-68126552D01*
X153662098Y-68165464D01*
X153662095Y-68165464D01*
X153656461Y-68166518D01*
X153651121Y-68168586D01*
X153651113Y-68168589D01*
X153453650Y-68245087D01*
X153453645Y-68245089D01*
X153448308Y-68247157D01*
X153443436Y-68250173D01*
X153443433Y-68250175D01*
X153263388Y-68361653D01*
X153263380Y-68361658D01*
X153258517Y-68364670D01*
X153254286Y-68368526D01*
X153254282Y-68368530D01*
X153097790Y-68511190D01*
X153097780Y-68511200D01*
X153093550Y-68515057D01*
X153090101Y-68519623D01*
X153090092Y-68519634D01*
X152962478Y-68688624D01*
X152962475Y-68688628D01*
X152959026Y-68693196D01*
X152956471Y-68698326D01*
X152956471Y-68698327D01*
X152926999Y-68757515D01*
X152883214Y-68806447D01*
X152820581Y-68826159D01*
X152756664Y-68811126D01*
X152709384Y-68765562D01*
X152691999Y-68702244D01*
X152691999Y-68581439D01*
X152691999Y-68578128D01*
X152685591Y-68518517D01*
X152635296Y-68383669D01*
X152549046Y-68268454D01*
X152524628Y-68250175D01*
X152440931Y-68187519D01*
X152440930Y-68187518D01*
X152433831Y-68182204D01*
X152361633Y-68155276D01*
X152306252Y-68134620D01*
X152306250Y-68134619D01*
X152298983Y-68131909D01*
X152291270Y-68131079D01*
X152291267Y-68131079D01*
X152242680Y-68125855D01*
X152242669Y-68125854D01*
X152239373Y-68125500D01*
X152236051Y-68125500D01*
X152188200Y-68125500D01*
X152126200Y-68108887D01*
X152080813Y-68063500D01*
X152064200Y-68001500D01*
X152064200Y-66445165D01*
X158675001Y-66445165D01*
X158675321Y-66451447D01*
X158684455Y-66540867D01*
X158687274Y-66554036D01*
X158736180Y-66701625D01*
X158742246Y-66714633D01*
X158823632Y-66846580D01*
X158832537Y-66857842D01*
X158942157Y-66967462D01*
X158953419Y-66976367D01*
X159085366Y-67057753D01*
X159098374Y-67063819D01*
X159245969Y-67112727D01*
X159259125Y-67115543D01*
X159348555Y-67124680D01*
X159354832Y-67125000D01*
X159358674Y-67125000D01*
X159371549Y-67121549D01*
X159375000Y-67108674D01*
X159375000Y-66416326D01*
X159371549Y-66403450D01*
X159358674Y-66400000D01*
X158691327Y-66400000D01*
X158678451Y-66403450D01*
X158675001Y-66416326D01*
X158675001Y-66445165D01*
X152064200Y-66445165D01*
X152064200Y-65883674D01*
X158675000Y-65883674D01*
X158678450Y-65896549D01*
X158691326Y-65900000D01*
X159358674Y-65900000D01*
X159371549Y-65896549D01*
X159375000Y-65883674D01*
X159375000Y-64906326D01*
X159371549Y-64893450D01*
X159358674Y-64890000D01*
X158691327Y-64890000D01*
X158678451Y-64893450D01*
X158675001Y-64906326D01*
X158675001Y-64935165D01*
X158675321Y-64941447D01*
X158684455Y-65030867D01*
X158687274Y-65044036D01*
X158736180Y-65191625D01*
X158742243Y-65204627D01*
X158819514Y-65329903D01*
X158837975Y-65395000D01*
X158819514Y-65460097D01*
X158742243Y-65585372D01*
X158736180Y-65598374D01*
X158687272Y-65745969D01*
X158684456Y-65759125D01*
X158675319Y-65848555D01*
X158675000Y-65854832D01*
X158675000Y-65883674D01*
X152064200Y-65883674D01*
X152064200Y-63132901D01*
X159121414Y-63132901D01*
X159124078Y-63146293D01*
X159137221Y-63150000D01*
X159623674Y-63150000D01*
X159636549Y-63146549D01*
X159640000Y-63133674D01*
X159640000Y-62601585D01*
X159637409Y-62590605D01*
X159626143Y-62591180D01*
X159508299Y-62625417D01*
X159494092Y-62631565D01*
X159369428Y-62705291D01*
X159357192Y-62714782D01*
X159254782Y-62817192D01*
X159245291Y-62829428D01*
X159171565Y-62954092D01*
X159165417Y-62968299D01*
X159124601Y-63108787D01*
X159122335Y-63121191D01*
X159121414Y-63132901D01*
X152064200Y-63132901D01*
X152064200Y-63077815D01*
X152079922Y-63017383D01*
X152123103Y-62972277D01*
X152196893Y-62926762D01*
X152196892Y-62926762D01*
X152203044Y-62922968D01*
X152212665Y-62913346D01*
X152268251Y-62881247D01*
X152332442Y-62881244D01*
X152388034Y-62913339D01*
X152392157Y-62917462D01*
X152403419Y-62926367D01*
X152535366Y-63007753D01*
X152548374Y-63013819D01*
X152695969Y-63062727D01*
X152709125Y-63065543D01*
X152798555Y-63074680D01*
X152804832Y-63075000D01*
X152808674Y-63075000D01*
X152821549Y-63071549D01*
X152825000Y-63058674D01*
X152825000Y-63058673D01*
X153325000Y-63058673D01*
X153328450Y-63071548D01*
X153341326Y-63074999D01*
X153345165Y-63074999D01*
X153351447Y-63074678D01*
X153440867Y-63065544D01*
X153454036Y-63062725D01*
X153601625Y-63013819D01*
X153614633Y-63007753D01*
X153746580Y-62926367D01*
X153757842Y-62917462D01*
X153867462Y-62807842D01*
X153876367Y-62796580D01*
X153957753Y-62664633D01*
X153963819Y-62651625D01*
X154012727Y-62504030D01*
X154015543Y-62490874D01*
X154024680Y-62401444D01*
X154025000Y-62395168D01*
X154025000Y-62366326D01*
X154021549Y-62353450D01*
X154008674Y-62350000D01*
X153341326Y-62350000D01*
X153328450Y-62353450D01*
X153325000Y-62366326D01*
X153325000Y-63058673D01*
X152825000Y-63058673D01*
X152825000Y-61833674D01*
X153325000Y-61833674D01*
X153328450Y-61846549D01*
X153341326Y-61850000D01*
X154008673Y-61850000D01*
X154021548Y-61846549D01*
X154024999Y-61833674D01*
X154024999Y-61804835D01*
X154024678Y-61798552D01*
X154015544Y-61709132D01*
X154012725Y-61695963D01*
X153963819Y-61548374D01*
X153957753Y-61535366D01*
X153876367Y-61403419D01*
X153867462Y-61392157D01*
X153757842Y-61282537D01*
X153746580Y-61273632D01*
X153614633Y-61192246D01*
X153601625Y-61186180D01*
X153454030Y-61137272D01*
X153440874Y-61134456D01*
X153351444Y-61125319D01*
X153345168Y-61125000D01*
X153341326Y-61125000D01*
X153328450Y-61128450D01*
X153325000Y-61141326D01*
X153325000Y-61833674D01*
X152825000Y-61833674D01*
X152825000Y-61141327D01*
X152821549Y-61128451D01*
X152808674Y-61125001D01*
X152804835Y-61125001D01*
X152798552Y-61125321D01*
X152709132Y-61134455D01*
X152695963Y-61137274D01*
X152548374Y-61186180D01*
X152535366Y-61192246D01*
X152403416Y-61273634D01*
X152392157Y-61282536D01*
X152388024Y-61286669D01*
X152332437Y-61318755D01*
X152268254Y-61318752D01*
X152212671Y-61286659D01*
X152208154Y-61282142D01*
X152203044Y-61277032D01*
X152196894Y-61273238D01*
X152196892Y-61273237D01*
X152064845Y-61191789D01*
X152064843Y-61191788D01*
X152058697Y-61187997D01*
X152051842Y-61185725D01*
X152051841Y-61185725D01*
X151904136Y-61136781D01*
X151904135Y-61136780D01*
X151897708Y-61134651D01*
X151890975Y-61133963D01*
X151890970Y-61133962D01*
X151801476Y-61124819D01*
X151801459Y-61124818D01*
X151798345Y-61124500D01*
X151795196Y-61124500D01*
X151416439Y-61124500D01*
X151368986Y-61115061D01*
X151328758Y-61088181D01*
X151207719Y-60967142D01*
X151180839Y-60926914D01*
X151171400Y-60879461D01*
X151171400Y-60626100D01*
X151188013Y-60564100D01*
X151233400Y-60518713D01*
X151295400Y-60502100D01*
X158985774Y-60502100D01*
X159002100Y-60502100D01*
X159002100Y-57773300D01*
X159018713Y-57711300D01*
X159064100Y-57665913D01*
X159126100Y-57649300D01*
X160049918Y-57649300D01*
X160056514Y-57648946D01*
X160105067Y-57643726D01*
X160120041Y-57640188D01*
X160239177Y-57595752D01*
X160254589Y-57587337D01*
X160355492Y-57511801D01*
X160367901Y-57499392D01*
X160443437Y-57398489D01*
X160451852Y-57383077D01*
X160496288Y-57263941D01*
X160499826Y-57248967D01*
X160505046Y-57200414D01*
X160505400Y-57193818D01*
X160505400Y-56666326D01*
X160501949Y-56653450D01*
X160489074Y-56650000D01*
X158177600Y-56650000D01*
X158115600Y-56633387D01*
X158070213Y-56588000D01*
X158053600Y-56526000D01*
X158053600Y-56274000D01*
X158070213Y-56212000D01*
X158115600Y-56166613D01*
X158177600Y-56150000D01*
X160489074Y-56150000D01*
X160501949Y-56146549D01*
X160505400Y-56133674D01*
X160505400Y-55606182D01*
X160505046Y-55599585D01*
X160499826Y-55551032D01*
X160496288Y-55536058D01*
X160451852Y-55416922D01*
X160443437Y-55401510D01*
X160367901Y-55300607D01*
X160355492Y-55288198D01*
X160254589Y-55212662D01*
X160239177Y-55204247D01*
X160120041Y-55159811D01*
X160105067Y-55156273D01*
X160056514Y-55151053D01*
X160049918Y-55150700D01*
X159126100Y-55150700D01*
X159064100Y-55134087D01*
X159018713Y-55088700D01*
X159002100Y-55026700D01*
X159002100Y-52314226D01*
X159002100Y-52297900D01*
X150797900Y-52297900D01*
X150797900Y-52314226D01*
X150797900Y-55026201D01*
X150781287Y-55088201D01*
X150735900Y-55133588D01*
X150673900Y-55150201D01*
X149746728Y-55150201D01*
X149743450Y-55150553D01*
X149743438Y-55150554D01*
X149694831Y-55155779D01*
X149694825Y-55155780D01*
X149687117Y-55156609D01*
X149679852Y-55159318D01*
X149679846Y-55159320D01*
X149560580Y-55203804D01*
X149560578Y-55203804D01*
X149552269Y-55206904D01*
X149545172Y-55212216D01*
X149545168Y-55212219D01*
X149444150Y-55287841D01*
X149444146Y-55287844D01*
X149437054Y-55293154D01*
X149431744Y-55300246D01*
X149431741Y-55300250D01*
X149356114Y-55401274D01*
X149356110Y-55401280D01*
X149350804Y-55408369D01*
X149347708Y-55416667D01*
X149345495Y-55420722D01*
X149311131Y-55460443D01*
X149263407Y-55482374D01*
X149210885Y-55482582D01*
X149095010Y-55457952D01*
X149095001Y-55457951D01*
X149088645Y-55456600D01*
X148911355Y-55456600D01*
X148904997Y-55457951D01*
X148904991Y-55457952D01*
X148744300Y-55492107D01*
X148744291Y-55492109D01*
X148737939Y-55493460D01*
X148732004Y-55496102D01*
X148731996Y-55496105D01*
X148581914Y-55562927D01*
X148581909Y-55562929D01*
X148575977Y-55565571D01*
X148570723Y-55569387D01*
X148570718Y-55569391D01*
X148437805Y-55665957D01*
X148437798Y-55665962D01*
X148432546Y-55669779D01*
X148428201Y-55674604D01*
X148428196Y-55674609D01*
X148325919Y-55788200D01*
X148313916Y-55801531D01*
X148310671Y-55807151D01*
X148310667Y-55807157D01*
X148228519Y-55949442D01*
X148228516Y-55949447D01*
X148225271Y-55955069D01*
X148223265Y-55961241D01*
X148223263Y-55961247D01*
X148172682Y-56116922D01*
X148170486Y-56123681D01*
X148169807Y-56130133D01*
X148169806Y-56130142D01*
X148158211Y-56240468D01*
X148151954Y-56300000D01*
X148152633Y-56306460D01*
X148169806Y-56469857D01*
X148169807Y-56469864D01*
X148170486Y-56476319D01*
X148172494Y-56482499D01*
X148218027Y-56622638D01*
X148225271Y-56644931D01*
X148313916Y-56798469D01*
X148432546Y-56930221D01*
X148575977Y-57034429D01*
X148737939Y-57106540D01*
X148911355Y-57143400D01*
X149082142Y-57143400D01*
X149088645Y-57143400D01*
X149149475Y-57130470D01*
X149217571Y-57135204D01*
X149272845Y-57175262D01*
X149298543Y-57238504D01*
X149299678Y-57249061D01*
X149299679Y-57249068D01*
X149300509Y-57256783D01*
X149303219Y-57264049D01*
X149303220Y-57264053D01*
X149328890Y-57332876D01*
X149350804Y-57391631D01*
X149356118Y-57398730D01*
X149356119Y-57398731D01*
X149428181Y-57494994D01*
X149437054Y-57506846D01*
X149552269Y-57593096D01*
X149687117Y-57643391D01*
X149746727Y-57649800D01*
X149894000Y-57649800D01*
X149956000Y-57666413D01*
X150001387Y-57711800D01*
X150018000Y-57773800D01*
X150018000Y-61123777D01*
X150016938Y-61139962D01*
X150013024Y-61169700D01*
X150014085Y-61177759D01*
X150031782Y-61312189D01*
X150031783Y-61312195D01*
X150032844Y-61320249D01*
X150035953Y-61327755D01*
X150035954Y-61327758D01*
X150076406Y-61425417D01*
X150090954Y-61460538D01*
X150095901Y-61466985D01*
X150128036Y-61508865D01*
X150158352Y-61548374D01*
X150183393Y-61581007D01*
X150189839Y-61585953D01*
X150207190Y-61599267D01*
X150219385Y-61609962D01*
X150538181Y-61928758D01*
X150565061Y-61968986D01*
X150574500Y-62016439D01*
X150574500Y-62395194D01*
X150574500Y-62395213D01*
X150574501Y-62398344D01*
X150574820Y-62401476D01*
X150574821Y-62401477D01*
X150583962Y-62490972D01*
X150583963Y-62490980D01*
X150584651Y-62497708D01*
X150586779Y-62504131D01*
X150586780Y-62504134D01*
X150635725Y-62651841D01*
X150637997Y-62658697D01*
X150641788Y-62664843D01*
X150641789Y-62664845D01*
X150711336Y-62777598D01*
X150727032Y-62803044D01*
X150846956Y-62922968D01*
X150853102Y-62926759D01*
X150858769Y-62931240D01*
X150857922Y-62932310D01*
X150895076Y-62971120D01*
X150910800Y-63031554D01*
X150910800Y-68001501D01*
X150894187Y-68063501D01*
X150848800Y-68108888D01*
X150786800Y-68125501D01*
X150735628Y-68125501D01*
X150732350Y-68125853D01*
X150732338Y-68125854D01*
X150683731Y-68131079D01*
X150683725Y-68131080D01*
X150676017Y-68131909D01*
X150668752Y-68134618D01*
X150668746Y-68134620D01*
X150549480Y-68179104D01*
X150549478Y-68179104D01*
X150541169Y-68182204D01*
X150534072Y-68187516D01*
X150534068Y-68187519D01*
X150433050Y-68263141D01*
X150433046Y-68263144D01*
X150425954Y-68268454D01*
X150420644Y-68275546D01*
X150420641Y-68275550D01*
X150345019Y-68376568D01*
X150345016Y-68376572D01*
X150339704Y-68383669D01*
X150336604Y-68391978D01*
X150336604Y-68391980D01*
X150292120Y-68511247D01*
X150292119Y-68511250D01*
X150289409Y-68518517D01*
X150288579Y-68526227D01*
X150288579Y-68526232D01*
X150283355Y-68574819D01*
X150283354Y-68574831D01*
X150283000Y-68578127D01*
X150283000Y-68581449D01*
X150283000Y-69719613D01*
X150263454Y-69786436D01*
X150210979Y-69832192D01*
X150143574Y-69842240D01*
X150143566Y-69842366D01*
X150142996Y-69842327D01*
X150142118Y-69842458D01*
X150139349Y-69842077D01*
X150139337Y-69842076D01*
X150135145Y-69841500D01*
X149839855Y-69841500D01*
X149835658Y-69842076D01*
X149835655Y-69842077D01*
X149551509Y-69881131D01*
X149551502Y-69881132D01*
X149547314Y-69881708D01*
X149543249Y-69882846D01*
X149543239Y-69882849D01*
X149374348Y-69930170D01*
X149286553Y-69954770D01*
X149229948Y-69957188D01*
X149178175Y-69934172D01*
X149142044Y-69890528D01*
X149129100Y-69835368D01*
X149129100Y-60502324D01*
X149130161Y-60486139D01*
X149133015Y-60464460D01*
X149134076Y-60456401D01*
X149114256Y-60305853D01*
X149056147Y-60165563D01*
X148986915Y-60075339D01*
X148986914Y-60075338D01*
X148963707Y-60045094D01*
X148957264Y-60040150D01*
X148957258Y-60040144D01*
X148939904Y-60026828D01*
X148927710Y-60016134D01*
X142684519Y-53772943D01*
X142657639Y-53732715D01*
X142648200Y-53685262D01*
X142648200Y-52909199D01*
X142649261Y-52893014D01*
X142652115Y-52871335D01*
X142653176Y-52863276D01*
X142647391Y-52819338D01*
X142633356Y-52712727D01*
X142628770Y-52701656D01*
X142618228Y-52676204D01*
X142578358Y-52579948D01*
X142578357Y-52579946D01*
X142575247Y-52572438D01*
X142555592Y-52546824D01*
X142506015Y-52482214D01*
X142506014Y-52482213D01*
X142487752Y-52458414D01*
X142482807Y-52451969D01*
X142476364Y-52447025D01*
X142476358Y-52447019D01*
X142459004Y-52433703D01*
X142446810Y-52423009D01*
X142364582Y-52340781D01*
X142334332Y-52291418D01*
X142329790Y-52233702D01*
X142351945Y-52180215D01*
X142395968Y-52142615D01*
X142452263Y-52129100D01*
X142835164Y-52129100D01*
X142851349Y-52130161D01*
X142881087Y-52134076D01*
X143031636Y-52114256D01*
X143171925Y-52056146D01*
X143262149Y-51986915D01*
X143262149Y-51986914D01*
X143292394Y-51963707D01*
X143310657Y-51939904D01*
X143321342Y-51927720D01*
X143731073Y-51517989D01*
X143743257Y-51507304D01*
X143767060Y-51489041D01*
X143859499Y-51368572D01*
X143910939Y-51244384D01*
X143952615Y-51191520D01*
X144015771Y-51168220D01*
X144081795Y-51181353D01*
X144131227Y-51227048D01*
X144149500Y-51291838D01*
X144149500Y-51795194D01*
X144149500Y-51795213D01*
X144149501Y-51798344D01*
X144149820Y-51801476D01*
X144149821Y-51801477D01*
X144158962Y-51890972D01*
X144158963Y-51890980D01*
X144159651Y-51897708D01*
X144161779Y-51904131D01*
X144161780Y-51904134D01*
X144210725Y-52051841D01*
X144212997Y-52058697D01*
X144216788Y-52064843D01*
X144216789Y-52064845D01*
X144290842Y-52184903D01*
X144309304Y-52250000D01*
X144290842Y-52315097D01*
X144216789Y-52435154D01*
X144216786Y-52435159D01*
X144212997Y-52441303D01*
X144210726Y-52448154D01*
X144210725Y-52448158D01*
X144161781Y-52595863D01*
X144159651Y-52602292D01*
X144158963Y-52609022D01*
X144158962Y-52609029D01*
X144149819Y-52698523D01*
X144149818Y-52698541D01*
X144149500Y-52701655D01*
X144149500Y-52704802D01*
X144149500Y-52704803D01*
X144149500Y-53295194D01*
X144149500Y-53295213D01*
X144149501Y-53298344D01*
X144149820Y-53301476D01*
X144149821Y-53301477D01*
X144158962Y-53390972D01*
X144158963Y-53390980D01*
X144159651Y-53397708D01*
X144161779Y-53404131D01*
X144161780Y-53404134D01*
X144210725Y-53551841D01*
X144212997Y-53558697D01*
X144268497Y-53648676D01*
X144276918Y-53662328D01*
X144294498Y-53712670D01*
X144289311Y-53765740D01*
X144272494Y-53817498D01*
X144272492Y-53817506D01*
X144270486Y-53823681D01*
X144269807Y-53830137D01*
X144269806Y-53830144D01*
X144255575Y-53965544D01*
X144251954Y-54000000D01*
X144252633Y-54006460D01*
X144269806Y-54169857D01*
X144269807Y-54169864D01*
X144270486Y-54176319D01*
X144272494Y-54182499D01*
X144321858Y-54334429D01*
X144325271Y-54344931D01*
X144328518Y-54350555D01*
X144328519Y-54350557D01*
X144383988Y-54446633D01*
X144413916Y-54498469D01*
X144532546Y-54630221D01*
X144675977Y-54734429D01*
X144837939Y-54806540D01*
X145011355Y-54843400D01*
X145182142Y-54843400D01*
X145188645Y-54843400D01*
X145362061Y-54806540D01*
X145524023Y-54734429D01*
X145667454Y-54630221D01*
X145786084Y-54498469D01*
X145874729Y-54344931D01*
X145929514Y-54176319D01*
X145946701Y-54012794D01*
X145966322Y-53957770D01*
X146008963Y-53917834D01*
X146065157Y-53901854D01*
X146116316Y-53912148D01*
X146116516Y-53911547D01*
X146121447Y-53913181D01*
X146122431Y-53913379D01*
X146123379Y-53913821D01*
X146270969Y-53962727D01*
X146284125Y-53965543D01*
X146373555Y-53974680D01*
X146379832Y-53975000D01*
X146383674Y-53975000D01*
X146396549Y-53971549D01*
X146400000Y-53958674D01*
X146400000Y-53958673D01*
X146900000Y-53958673D01*
X146903450Y-53971548D01*
X146916326Y-53974999D01*
X146920165Y-53974999D01*
X146926447Y-53974678D01*
X147015867Y-53965544D01*
X147029036Y-53962725D01*
X147176625Y-53913819D01*
X147189633Y-53907753D01*
X147321580Y-53826367D01*
X147332842Y-53817462D01*
X147442462Y-53707842D01*
X147451367Y-53696580D01*
X147532753Y-53564633D01*
X147538819Y-53551625D01*
X147587727Y-53404030D01*
X147590543Y-53390874D01*
X147599680Y-53301444D01*
X147600000Y-53295168D01*
X147600000Y-53266326D01*
X147596549Y-53253450D01*
X147583674Y-53250000D01*
X146916326Y-53250000D01*
X146903450Y-53253450D01*
X146900000Y-53266326D01*
X146900000Y-53958673D01*
X146400000Y-53958673D01*
X146400000Y-52733674D01*
X146900000Y-52733674D01*
X146903450Y-52746549D01*
X146916326Y-52750000D01*
X147583673Y-52750000D01*
X147596548Y-52746549D01*
X147599999Y-52733674D01*
X147599999Y-52704835D01*
X147599678Y-52698552D01*
X147590544Y-52609132D01*
X147587725Y-52595963D01*
X147538819Y-52448374D01*
X147532753Y-52435366D01*
X147458570Y-52315097D01*
X147440108Y-52250000D01*
X147458570Y-52184903D01*
X147532753Y-52064633D01*
X147538819Y-52051625D01*
X147587727Y-51904030D01*
X147590543Y-51890874D01*
X147599680Y-51801444D01*
X147600000Y-51795168D01*
X147600000Y-51766326D01*
X147596549Y-51753450D01*
X147583674Y-51750000D01*
X146916326Y-51750000D01*
X146903450Y-51753450D01*
X146900000Y-51766326D01*
X146900000Y-52733674D01*
X146400000Y-52733674D01*
X146400000Y-51374000D01*
X146416613Y-51312000D01*
X146462000Y-51266613D01*
X146524000Y-51250000D01*
X147583673Y-51250000D01*
X147596548Y-51246549D01*
X147599999Y-51233674D01*
X147599999Y-51204835D01*
X147599678Y-51198552D01*
X147590544Y-51109132D01*
X147587725Y-51095963D01*
X147538819Y-50948374D01*
X147532753Y-50935366D01*
X147451367Y-50803419D01*
X147442462Y-50792157D01*
X147332842Y-50682537D01*
X147321580Y-50673632D01*
X147189633Y-50592246D01*
X147176628Y-50586181D01*
X147106646Y-50562992D01*
X147054228Y-50529059D01*
X147024992Y-50473882D01*
X147026355Y-50411454D01*
X147057966Y-50357609D01*
X150700321Y-46715254D01*
X150712505Y-46704569D01*
X150736308Y-46686306D01*
X150828747Y-46565837D01*
X150886857Y-46425548D01*
X150901701Y-46312796D01*
X150906677Y-46274999D01*
X150902762Y-46245261D01*
X150901701Y-46229076D01*
X150901701Y-40376769D01*
X150919060Y-40313494D01*
X150964155Y-40269982D01*
X150967333Y-40268797D01*
X151082548Y-40182547D01*
X151168798Y-40067332D01*
X151219093Y-39932484D01*
X151225502Y-39872874D01*
X151225501Y-39227129D01*
X151219093Y-39167518D01*
X151168798Y-39032670D01*
X151082548Y-38917455D01*
X151015234Y-38867064D01*
X150974433Y-38836520D01*
X150974432Y-38836519D01*
X150967333Y-38831205D01*
X150832485Y-38780910D01*
X150824772Y-38780080D01*
X150824769Y-38780080D01*
X150776182Y-38774856D01*
X150776171Y-38774855D01*
X150772875Y-38774501D01*
X150769552Y-38774501D01*
X149880439Y-38774501D01*
X149880420Y-38774501D01*
X149877128Y-38774502D01*
X149873850Y-38774854D01*
X149873838Y-38774855D01*
X149825231Y-38780080D01*
X149825225Y-38780081D01*
X149817517Y-38780910D01*
X149810252Y-38783619D01*
X149810246Y-38783621D01*
X149690980Y-38828105D01*
X149690978Y-38828105D01*
X149682669Y-38831205D01*
X149675572Y-38836517D01*
X149675568Y-38836520D01*
X149574550Y-38912142D01*
X149574546Y-38912145D01*
X149567454Y-38917455D01*
X149562142Y-38924549D01*
X149555868Y-38930825D01*
X149555115Y-38930072D01*
X149519083Y-38960185D01*
X149463578Y-38973301D01*
X149270105Y-38973301D01*
X149209673Y-38957579D01*
X149164567Y-38914398D01*
X149126762Y-38853107D01*
X149122968Y-38846956D01*
X149003044Y-38727032D01*
X148996894Y-38723238D01*
X148996892Y-38723237D01*
X148864845Y-38641789D01*
X148864843Y-38641788D01*
X148858697Y-38637997D01*
X148851842Y-38635725D01*
X148851841Y-38635725D01*
X148704136Y-38586781D01*
X148704135Y-38586780D01*
X148697708Y-38584651D01*
X148690975Y-38583963D01*
X148690970Y-38583962D01*
X148601476Y-38574819D01*
X148601459Y-38574818D01*
X148598345Y-38574500D01*
X148595196Y-38574500D01*
X148216439Y-38574500D01*
X148168986Y-38565061D01*
X148128758Y-38538181D01*
X148076662Y-38486085D01*
X148065967Y-38473890D01*
X148052653Y-38456539D01*
X148047707Y-38450093D01*
X148037308Y-38442114D01*
X148015659Y-38425502D01*
X147933685Y-38362601D01*
X147927238Y-38357654D01*
X147919729Y-38354543D01*
X147919728Y-38354543D01*
X147794458Y-38302654D01*
X147794455Y-38302653D01*
X147786949Y-38299544D01*
X147778895Y-38298483D01*
X147778889Y-38298482D01*
X147743296Y-38293797D01*
X147674197Y-38284700D01*
X147644459Y-38280785D01*
X147636400Y-38279724D01*
X147628341Y-38280785D01*
X147606662Y-38283639D01*
X147590477Y-38284700D01*
X147317956Y-38284700D01*
X147252163Y-38265806D01*
X147206420Y-38214882D01*
X147194666Y-38147446D01*
X147199646Y-38101116D01*
X147200000Y-38094518D01*
X147200000Y-37566326D01*
X147196549Y-37553450D01*
X147183674Y-37550000D01*
X145774000Y-37550000D01*
X145712000Y-37533387D01*
X145666613Y-37488000D01*
X145650000Y-37426000D01*
X145650000Y-37033674D01*
X146150000Y-37033674D01*
X146153450Y-37046549D01*
X146166326Y-37050000D01*
X147183674Y-37050000D01*
X147196549Y-37046549D01*
X147200000Y-37033674D01*
X147200000Y-36505482D01*
X147199646Y-36498885D01*
X147194426Y-36450332D01*
X147190888Y-36435358D01*
X147146452Y-36316222D01*
X147138037Y-36300810D01*
X147062501Y-36199907D01*
X147050092Y-36187498D01*
X146949189Y-36111962D01*
X146933777Y-36103547D01*
X146814641Y-36059111D01*
X146799667Y-36055573D01*
X146751114Y-36050353D01*
X146744518Y-36050000D01*
X146166326Y-36050000D01*
X146153450Y-36053450D01*
X146150000Y-36066326D01*
X146150000Y-37033674D01*
X145650000Y-37033674D01*
X145650000Y-36066326D01*
X145646549Y-36053450D01*
X145633674Y-36050000D01*
X145055482Y-36050000D01*
X145048885Y-36050353D01*
X145000332Y-36055573D01*
X144985358Y-36059111D01*
X144866215Y-36103549D01*
X144859947Y-36106972D01*
X144800524Y-36122137D01*
X144744519Y-36107842D01*
X144742331Y-36106204D01*
X144734024Y-36103106D01*
X144734023Y-36103105D01*
X144614752Y-36058620D01*
X144614750Y-36058619D01*
X144607483Y-36055909D01*
X144599770Y-36055079D01*
X144599767Y-36055079D01*
X144551180Y-36049855D01*
X144551169Y-36049854D01*
X144547873Y-36049500D01*
X144544550Y-36049500D01*
X142855439Y-36049500D01*
X142855420Y-36049500D01*
X142852128Y-36049501D01*
X142848850Y-36049853D01*
X142848838Y-36049854D01*
X142800231Y-36055079D01*
X142800225Y-36055080D01*
X142792517Y-36055909D01*
X142785252Y-36058618D01*
X142785246Y-36058620D01*
X142665980Y-36103104D01*
X142665978Y-36103104D01*
X142657669Y-36106204D01*
X142650572Y-36111516D01*
X142650568Y-36111519D01*
X142572491Y-36169968D01*
X142537339Y-36188355D01*
X142498180Y-36194701D01*
X138135766Y-36194701D01*
X138079471Y-36181186D01*
X138035448Y-36143586D01*
X138013293Y-36090099D01*
X138017835Y-36032383D01*
X138048083Y-35983021D01*
X138384591Y-35646512D01*
X138396768Y-35635834D01*
X138420571Y-35617571D01*
X138513010Y-35497102D01*
X138571120Y-35356813D01*
X138585964Y-35244061D01*
X138590940Y-35206264D01*
X138587025Y-35176526D01*
X138585964Y-35160341D01*
X138585964Y-34662779D01*
X138587025Y-34646594D01*
X138589879Y-34624915D01*
X138590940Y-34616856D01*
X138571120Y-34466308D01*
X138513011Y-34326018D01*
X138491153Y-34297533D01*
X138443779Y-34235794D01*
X138443778Y-34235793D01*
X138420571Y-34205549D01*
X138414128Y-34200605D01*
X138414122Y-34200599D01*
X138396768Y-34187283D01*
X138384574Y-34176589D01*
X138355364Y-34147379D01*
X140483900Y-34147379D01*
X140483901Y-34150673D01*
X140484253Y-34153951D01*
X140484254Y-34153962D01*
X140489479Y-34202569D01*
X140489480Y-34202574D01*
X140490309Y-34210284D01*
X140493020Y-34217553D01*
X140494208Y-34222579D01*
X140494208Y-34279610D01*
X140489973Y-34297532D01*
X140484753Y-34346084D01*
X140484400Y-34352681D01*
X140484400Y-34380873D01*
X140487850Y-34393748D01*
X140500726Y-34397199D01*
X140517513Y-34397199D01*
X140573018Y-34410315D01*
X140616778Y-34446887D01*
X140626854Y-34460347D01*
X140633950Y-34465659D01*
X140633951Y-34465660D01*
X140719273Y-34529532D01*
X140757757Y-34577288D01*
X140768646Y-34637646D01*
X140749277Y-34695839D01*
X140704389Y-34737631D01*
X140644962Y-34752799D01*
X140500726Y-34752799D01*
X140487850Y-34756249D01*
X140484400Y-34769125D01*
X140484400Y-34797317D01*
X140484753Y-34803913D01*
X140489973Y-34852466D01*
X140493511Y-34867440D01*
X140537947Y-34986576D01*
X140546362Y-35001988D01*
X140621898Y-35102891D01*
X140634307Y-35115300D01*
X140735210Y-35190836D01*
X140750622Y-35199251D01*
X140869758Y-35243687D01*
X140884732Y-35247225D01*
X140933285Y-35252445D01*
X140939882Y-35252799D01*
X141526874Y-35252799D01*
X141539749Y-35249348D01*
X141543200Y-35236473D01*
X141543200Y-34769125D01*
X141540593Y-34759396D01*
X141538749Y-34703111D01*
X141561990Y-34651815D01*
X141605523Y-34616088D01*
X141660364Y-34603300D01*
X141781633Y-34603300D01*
X141836475Y-34616088D01*
X141880007Y-34651813D01*
X141903249Y-34703107D01*
X141901407Y-34759392D01*
X141898800Y-34769122D01*
X141898800Y-35236473D01*
X141902250Y-35249348D01*
X141915126Y-35252799D01*
X142502118Y-35252799D01*
X142508714Y-35252445D01*
X142557267Y-35247225D01*
X142572241Y-35243687D01*
X142691377Y-35199251D01*
X142706789Y-35190836D01*
X142807692Y-35115300D01*
X142820101Y-35102891D01*
X142895637Y-35001988D01*
X142904052Y-34986576D01*
X142948488Y-34867440D01*
X142952026Y-34852466D01*
X142957246Y-34803913D01*
X142957600Y-34797317D01*
X142957600Y-34769125D01*
X142954149Y-34756249D01*
X142941274Y-34752799D01*
X142797038Y-34752799D01*
X142737611Y-34737631D01*
X142692723Y-34695839D01*
X142673354Y-34637646D01*
X142684243Y-34577288D01*
X142722727Y-34529532D01*
X142735066Y-34520294D01*
X142815146Y-34460347D01*
X142825221Y-34446887D01*
X142868982Y-34410315D01*
X142924487Y-34397199D01*
X142941274Y-34397199D01*
X142954149Y-34393748D01*
X142957600Y-34380873D01*
X142957600Y-34352681D01*
X142957246Y-34346084D01*
X142952027Y-34297533D01*
X142947792Y-34279614D01*
X142947792Y-34222576D01*
X142948977Y-34217560D01*
X142951691Y-34210284D01*
X142958100Y-34150674D01*
X142958099Y-33699329D01*
X142951691Y-33639718D01*
X142948980Y-33632450D01*
X142947791Y-33627417D01*
X142947792Y-33570382D01*
X142952027Y-33552461D01*
X142957246Y-33503913D01*
X142957600Y-33497317D01*
X142957600Y-33469125D01*
X142954149Y-33456249D01*
X142941274Y-33452799D01*
X142924484Y-33452799D01*
X142868979Y-33439683D01*
X142825218Y-33403110D01*
X142815146Y-33389655D01*
X142794590Y-33374267D01*
X142758018Y-33330506D01*
X142744902Y-33275001D01*
X142758018Y-33219496D01*
X142794590Y-33175734D01*
X142815146Y-33160347D01*
X142825221Y-33146887D01*
X142868982Y-33110315D01*
X142924487Y-33097199D01*
X142941274Y-33097199D01*
X142954149Y-33093748D01*
X142957600Y-33080873D01*
X142957600Y-33052681D01*
X142957246Y-33046084D01*
X142952027Y-32997533D01*
X142947792Y-32979614D01*
X142947792Y-32922576D01*
X142948977Y-32917560D01*
X142951691Y-32910284D01*
X142958100Y-32850674D01*
X142958099Y-32399329D01*
X142951691Y-32339718D01*
X142901396Y-32204870D01*
X142815146Y-32089655D01*
X142699931Y-32003405D01*
X142629565Y-31977160D01*
X142572352Y-31955821D01*
X142572350Y-31955820D01*
X142565083Y-31953110D01*
X142557370Y-31952280D01*
X142557367Y-31952280D01*
X142508780Y-31947056D01*
X142508769Y-31947055D01*
X142505473Y-31946701D01*
X142502150Y-31946701D01*
X140939839Y-31946701D01*
X140939820Y-31946701D01*
X140936528Y-31946702D01*
X140933250Y-31947054D01*
X140933238Y-31947055D01*
X140884631Y-31952280D01*
X140884625Y-31952281D01*
X140876917Y-31953110D01*
X140869652Y-31955819D01*
X140869646Y-31955821D01*
X140750380Y-32000305D01*
X140750378Y-32000305D01*
X140742069Y-32003405D01*
X140734972Y-32008717D01*
X140734968Y-32008720D01*
X140633950Y-32084342D01*
X140633946Y-32084345D01*
X140626854Y-32089655D01*
X140621544Y-32096747D01*
X140621541Y-32096751D01*
X140545919Y-32197769D01*
X140545916Y-32197773D01*
X140540604Y-32204870D01*
X140537504Y-32213179D01*
X140537504Y-32213181D01*
X140493020Y-32332448D01*
X140493019Y-32332451D01*
X140490309Y-32339718D01*
X140489479Y-32347428D01*
X140489479Y-32347433D01*
X140484255Y-32396020D01*
X140484254Y-32396032D01*
X140483900Y-32399328D01*
X140483900Y-32402649D01*
X140483900Y-32402650D01*
X140483900Y-32847361D01*
X140483900Y-32847379D01*
X140483901Y-32850673D01*
X140484253Y-32853951D01*
X140484254Y-32853962D01*
X140489479Y-32902569D01*
X140489480Y-32902574D01*
X140490309Y-32910284D01*
X140493020Y-32917553D01*
X140494208Y-32922579D01*
X140494208Y-32979610D01*
X140489973Y-32997532D01*
X140484753Y-33046084D01*
X140484400Y-33052681D01*
X140484400Y-33080873D01*
X140487850Y-33093748D01*
X140500726Y-33097199D01*
X140517513Y-33097199D01*
X140573018Y-33110315D01*
X140616778Y-33146887D01*
X140626854Y-33160347D01*
X140633949Y-33165658D01*
X140633952Y-33165661D01*
X140647409Y-33175735D01*
X140683981Y-33219497D01*
X140697097Y-33275001D01*
X140683981Y-33330505D01*
X140647409Y-33374267D01*
X140633952Y-33384340D01*
X140633946Y-33384345D01*
X140626854Y-33389655D01*
X140616781Y-33403110D01*
X140573021Y-33439683D01*
X140517516Y-33452799D01*
X140500726Y-33452799D01*
X140487850Y-33456249D01*
X140484400Y-33469125D01*
X140484400Y-33497317D01*
X140484753Y-33503913D01*
X140489973Y-33552468D01*
X140494208Y-33570390D01*
X140494209Y-33627416D01*
X140493019Y-33632451D01*
X140490309Y-33639718D01*
X140489479Y-33647430D01*
X140489479Y-33647434D01*
X140484255Y-33696020D01*
X140484254Y-33696032D01*
X140483900Y-33699328D01*
X140483900Y-33702649D01*
X140483900Y-33702650D01*
X140483900Y-34147361D01*
X140483900Y-34147379D01*
X138355364Y-34147379D01*
X137605269Y-33397284D01*
X137594574Y-33385089D01*
X137593999Y-33384340D01*
X137576314Y-33361292D01*
X137536192Y-33330506D01*
X137528996Y-33324984D01*
X137462292Y-33273800D01*
X137455845Y-33268853D01*
X137448334Y-33265741D01*
X137448331Y-33265740D01*
X137374587Y-33235193D01*
X137323665Y-33196120D01*
X137308023Y-33175735D01*
X137255507Y-33107294D01*
X137155019Y-33030187D01*
X137123738Y-32994871D01*
X137107912Y-32950425D01*
X137109550Y-32910214D01*
X137109198Y-32910177D01*
X137109768Y-32904872D01*
X137109833Y-32903285D01*
X137110027Y-32902462D01*
X137115246Y-32853915D01*
X137115600Y-32847319D01*
X137115600Y-32819127D01*
X137112149Y-32806251D01*
X137099274Y-32802801D01*
X137082487Y-32802801D01*
X137026982Y-32789685D01*
X136983221Y-32753112D01*
X136973146Y-32739653D01*
X136966049Y-32734340D01*
X136966048Y-32734339D01*
X136880727Y-32670468D01*
X136842243Y-32622712D01*
X136831354Y-32562354D01*
X136850723Y-32504161D01*
X136895611Y-32462369D01*
X136955038Y-32447201D01*
X137099274Y-32447201D01*
X137112149Y-32443750D01*
X137115600Y-32430875D01*
X137115600Y-32402683D01*
X137115246Y-32396086D01*
X137110026Y-32347533D01*
X137106488Y-32332559D01*
X137062052Y-32213423D01*
X137053637Y-32198011D01*
X136978101Y-32097108D01*
X136965692Y-32084699D01*
X136864789Y-32009163D01*
X136849377Y-32000748D01*
X136730241Y-31956312D01*
X136715267Y-31952774D01*
X136666714Y-31947554D01*
X136660118Y-31947201D01*
X136073126Y-31947201D01*
X136060250Y-31950651D01*
X136056800Y-31963527D01*
X136056800Y-32430876D01*
X136059407Y-32440606D01*
X136061249Y-32496890D01*
X136038008Y-32548185D01*
X135994476Y-32583911D01*
X135939633Y-32596699D01*
X135882685Y-32596699D01*
X135825199Y-32596699D01*
X135763201Y-32580088D01*
X135717813Y-32534700D01*
X135701200Y-32472700D01*
X135701200Y-31963527D01*
X135697749Y-31950651D01*
X135684874Y-31947201D01*
X135097882Y-31947201D01*
X135091285Y-31947554D01*
X135042732Y-31952774D01*
X135027754Y-31956313D01*
X134970266Y-31977755D01*
X134904045Y-31983442D01*
X134844401Y-31954116D01*
X134808468Y-31898202D01*
X134806570Y-31831765D01*
X134839251Y-31773894D01*
X135947726Y-30665419D01*
X135987955Y-30638539D01*
X136035408Y-30629100D01*
X138817205Y-30629100D01*
X138833390Y-30630161D01*
X138863128Y-30634076D01*
X139013677Y-30614256D01*
X139153966Y-30556146D01*
X139244190Y-30486915D01*
X139244190Y-30486914D01*
X139274435Y-30463707D01*
X139292698Y-30439904D01*
X139303383Y-30427720D01*
X139880120Y-29850983D01*
X139892304Y-29840298D01*
X139916107Y-29822035D01*
X139946255Y-29782746D01*
X140008546Y-29701566D01*
X140066656Y-29561277D01*
X140086476Y-29410728D01*
X140082561Y-29380990D01*
X140081500Y-29364805D01*
X140081500Y-28718477D01*
X140090939Y-28671024D01*
X140117819Y-28630796D01*
X140147827Y-28600787D01*
X140517920Y-28230693D01*
X140530104Y-28220008D01*
X140553907Y-28201745D01*
X140646346Y-28081276D01*
X140704456Y-27940987D01*
X140719300Y-27828235D01*
X140719300Y-27828233D01*
X140724276Y-27790438D01*
X140720360Y-27760701D01*
X140719300Y-27744516D01*
X140719300Y-27055484D01*
X140720361Y-27039298D01*
X140723215Y-27017621D01*
X140724276Y-27009562D01*
X140716887Y-26953438D01*
X140704456Y-26859013D01*
X140646346Y-26718724D01*
X140553907Y-26598255D01*
X140547464Y-26593311D01*
X140547458Y-26593305D01*
X140530104Y-26579989D01*
X140517910Y-26569295D01*
X140206807Y-26258192D01*
X140176782Y-26209514D01*
X140171797Y-26152539D01*
X140192914Y-26099387D01*
X140252695Y-26014011D01*
X140255805Y-26009570D01*
X140345616Y-25816970D01*
X140400618Y-25611701D01*
X140419139Y-25400000D01*
X140400618Y-25188299D01*
X140345616Y-24983030D01*
X140341921Y-24975107D01*
X140296084Y-24876810D01*
X140285390Y-24809294D01*
X140312100Y-24746370D01*
X140368095Y-24707161D01*
X140436360Y-24703583D01*
X140496147Y-24736724D01*
X150817028Y-35057605D01*
X150848642Y-35111453D01*
X150850005Y-35173882D01*
X150820770Y-35229058D01*
X150768352Y-35262992D01*
X150698370Y-35286182D01*
X150685366Y-35292246D01*
X150553419Y-35373632D01*
X150542157Y-35382537D01*
X150432537Y-35492157D01*
X150423632Y-35503419D01*
X150342246Y-35635366D01*
X150336180Y-35648374D01*
X150287272Y-35795969D01*
X150284456Y-35809125D01*
X150275319Y-35898555D01*
X150275000Y-35904832D01*
X150275000Y-35933674D01*
X150278450Y-35946549D01*
X150291326Y-35950000D01*
X151351000Y-35950000D01*
X151413000Y-35966613D01*
X151458387Y-36012000D01*
X151475000Y-36074000D01*
X151475000Y-36326000D01*
X151458387Y-36388000D01*
X151413000Y-36433387D01*
X151351000Y-36450000D01*
X150291327Y-36450000D01*
X150278451Y-36453450D01*
X150275001Y-36466326D01*
X150275001Y-36495165D01*
X150275321Y-36501447D01*
X150284455Y-36590867D01*
X150287274Y-36604033D01*
X150322884Y-36711498D01*
X150327735Y-36769365D01*
X150305708Y-36823095D01*
X150261634Y-36860905D01*
X150205178Y-36874502D01*
X149880439Y-36874502D01*
X149880420Y-36874502D01*
X149877128Y-36874503D01*
X149873850Y-36874855D01*
X149873838Y-36874856D01*
X149825231Y-36880081D01*
X149825225Y-36880082D01*
X149817517Y-36880911D01*
X149810252Y-36883620D01*
X149810246Y-36883622D01*
X149690980Y-36928106D01*
X149690978Y-36928106D01*
X149682669Y-36931206D01*
X149675572Y-36936518D01*
X149675568Y-36936521D01*
X149574550Y-37012143D01*
X149574546Y-37012146D01*
X149567454Y-37017456D01*
X149562144Y-37024548D01*
X149562141Y-37024552D01*
X149486519Y-37125570D01*
X149486516Y-37125574D01*
X149481204Y-37132671D01*
X149478104Y-37140980D01*
X149478104Y-37140982D01*
X149433620Y-37260249D01*
X149433619Y-37260252D01*
X149430909Y-37267519D01*
X149430079Y-37275229D01*
X149430079Y-37275234D01*
X149424855Y-37323821D01*
X149424854Y-37323832D01*
X149424500Y-37327129D01*
X149424500Y-37330450D01*
X149424500Y-37330451D01*
X149424500Y-37969562D01*
X149424500Y-37969580D01*
X149424501Y-37972874D01*
X149424853Y-37976152D01*
X149424854Y-37976163D01*
X149430079Y-38024770D01*
X149430080Y-38024775D01*
X149430909Y-38032485D01*
X149433619Y-38039751D01*
X149433620Y-38039755D01*
X149467217Y-38129833D01*
X149481204Y-38167333D01*
X149486518Y-38174432D01*
X149486519Y-38174433D01*
X149524623Y-38225334D01*
X149567454Y-38282548D01*
X149682669Y-38368798D01*
X149817517Y-38419093D01*
X149877127Y-38425502D01*
X150772874Y-38425501D01*
X150832485Y-38419093D01*
X150967333Y-38368798D01*
X151082548Y-38282548D01*
X151168798Y-38167333D01*
X151219093Y-38032485D01*
X151225502Y-37972875D01*
X151225501Y-37327130D01*
X151224626Y-37318992D01*
X151223902Y-37312249D01*
X151235657Y-37244815D01*
X151281400Y-37193892D01*
X151347192Y-37174999D01*
X151495165Y-37174999D01*
X151501447Y-37174678D01*
X151590867Y-37165544D01*
X151604036Y-37162725D01*
X151751625Y-37113819D01*
X151764629Y-37107755D01*
X151815363Y-37076462D01*
X151873446Y-37058199D01*
X151933221Y-37069784D01*
X151980275Y-37108425D01*
X152003263Y-37164806D01*
X151996643Y-37225332D01*
X151983621Y-37260246D01*
X151983619Y-37260250D01*
X151980909Y-37267519D01*
X151980079Y-37275229D01*
X151980079Y-37275234D01*
X151974855Y-37323821D01*
X151974854Y-37323832D01*
X151974500Y-37327129D01*
X151974500Y-37330450D01*
X151974500Y-37330451D01*
X151974500Y-37969562D01*
X151974500Y-37969580D01*
X151974501Y-37972874D01*
X151974853Y-37976152D01*
X151974854Y-37976163D01*
X151980080Y-38024775D01*
X151980909Y-38032485D01*
X151983621Y-38039755D01*
X151999520Y-38082383D01*
X152007337Y-38125715D01*
X151999520Y-38169046D01*
X151984112Y-38210358D01*
X151980573Y-38225334D01*
X151975353Y-38273885D01*
X151975000Y-38280482D01*
X151975000Y-38333674D01*
X151978450Y-38346549D01*
X151991326Y-38350000D01*
X152169227Y-38350000D01*
X152227387Y-38364844D01*
X152232669Y-38368798D01*
X152367517Y-38419093D01*
X152427127Y-38425502D01*
X152802901Y-38425501D01*
X152864901Y-38442114D01*
X152910288Y-38487501D01*
X152926901Y-38549501D01*
X152926901Y-38650501D01*
X152910288Y-38712501D01*
X152864901Y-38757888D01*
X152802901Y-38774501D01*
X152430439Y-38774501D01*
X152430420Y-38774501D01*
X152427128Y-38774502D01*
X152423850Y-38774854D01*
X152423838Y-38774855D01*
X152375231Y-38780080D01*
X152375225Y-38780081D01*
X152367517Y-38780910D01*
X152360252Y-38783619D01*
X152360246Y-38783621D01*
X152240977Y-38828106D01*
X152240975Y-38828107D01*
X152232669Y-38831205D01*
X152227391Y-38835155D01*
X152169233Y-38850000D01*
X151991326Y-38850000D01*
X151978450Y-38853450D01*
X151975000Y-38866326D01*
X151975000Y-38919518D01*
X151975353Y-38926114D01*
X151980573Y-38974667D01*
X151984112Y-38989641D01*
X151999520Y-39030953D01*
X152007338Y-39074286D01*
X151999520Y-39117618D01*
X151983621Y-39160245D01*
X151983621Y-39160247D01*
X151980909Y-39167518D01*
X151980079Y-39175232D01*
X151980079Y-39175235D01*
X151974855Y-39223820D01*
X151974854Y-39223832D01*
X151974500Y-39227128D01*
X151974500Y-39230449D01*
X151974500Y-39230450D01*
X151974500Y-39869561D01*
X151974500Y-39869579D01*
X151974501Y-39872873D01*
X151974853Y-39876151D01*
X151974854Y-39876162D01*
X151980079Y-39924769D01*
X151980080Y-39924774D01*
X151980909Y-39932484D01*
X151983619Y-39939750D01*
X151983620Y-39939754D01*
X151990733Y-39958824D01*
X152031204Y-40067332D01*
X152117454Y-40182547D01*
X152232669Y-40268797D01*
X152367517Y-40319092D01*
X152427127Y-40325501D01*
X153322874Y-40325500D01*
X153382485Y-40319092D01*
X153517333Y-40268797D01*
X153632548Y-40182547D01*
X153718798Y-40067332D01*
X153769093Y-39932484D01*
X153775502Y-39872874D01*
X153775501Y-39641439D01*
X153784940Y-39593987D01*
X153811817Y-39553761D01*
X153878921Y-39486657D01*
X153891105Y-39475972D01*
X153914908Y-39457709D01*
X153941345Y-39423256D01*
X154007348Y-39337240D01*
X154065457Y-39196950D01*
X154067694Y-39179963D01*
X154080301Y-39084199D01*
X154085277Y-39046402D01*
X154081362Y-39016664D01*
X154080301Y-39000479D01*
X154080301Y-38199524D01*
X154081362Y-38183339D01*
X154084216Y-38161660D01*
X154085277Y-38153601D01*
X154077088Y-38091400D01*
X154070289Y-38039754D01*
X154066518Y-38011111D01*
X154066517Y-38011110D01*
X154065457Y-38003052D01*
X154034679Y-37928747D01*
X154007348Y-37862763D01*
X153969541Y-37813493D01*
X153938116Y-37772539D01*
X153938115Y-37772538D01*
X153919853Y-37748739D01*
X153914908Y-37742294D01*
X153908465Y-37737350D01*
X153908459Y-37737344D01*
X153891105Y-37724028D01*
X153878911Y-37713334D01*
X153811820Y-37646243D01*
X153784940Y-37606015D01*
X153775501Y-37558562D01*
X153775501Y-37330441D01*
X153775501Y-37327130D01*
X153769093Y-37267519D01*
X153718798Y-37132671D01*
X153632548Y-37017456D01*
X153625451Y-37012143D01*
X153620698Y-37007390D01*
X153591451Y-36960987D01*
X153585084Y-36906508D01*
X153602839Y-36854614D01*
X153662003Y-36758697D01*
X153715349Y-36597708D01*
X153725500Y-36498345D01*
X153725499Y-35901656D01*
X153715349Y-35802292D01*
X153662003Y-35641303D01*
X153572968Y-35496956D01*
X153453044Y-35377032D01*
X153446894Y-35373238D01*
X153446892Y-35373237D01*
X153314845Y-35291789D01*
X153314843Y-35291788D01*
X153308697Y-35287997D01*
X153301842Y-35285725D01*
X153301841Y-35285725D01*
X153154136Y-35236781D01*
X153154135Y-35236780D01*
X153147708Y-35234651D01*
X153140975Y-35233963D01*
X153140970Y-35233962D01*
X153051476Y-35224819D01*
X153051459Y-35224818D01*
X153048345Y-35224500D01*
X153045196Y-35224500D01*
X152666439Y-35224500D01*
X152618986Y-35215061D01*
X152578758Y-35188181D01*
X140868958Y-23478381D01*
X140838708Y-23429018D01*
X140834166Y-23371302D01*
X140856321Y-23317815D01*
X140900344Y-23280215D01*
X140956639Y-23266700D01*
X141796664Y-23266700D01*
X141846066Y-23276966D01*
X141887288Y-23306063D01*
X141913503Y-23349174D01*
X141920317Y-23368345D01*
X141960888Y-23482503D01*
X141985573Y-23551958D01*
X141987520Y-23555716D01*
X141987522Y-23555720D01*
X142098776Y-23770430D01*
X142121426Y-23814143D01*
X142123872Y-23817608D01*
X142289269Y-24051924D01*
X142289273Y-24051929D01*
X142291714Y-24055387D01*
X142294602Y-24058479D01*
X142479700Y-24256671D01*
X142493266Y-24271196D01*
X142496547Y-24273865D01*
X142496550Y-24273868D01*
X142630748Y-24383045D01*
X142722327Y-24457550D01*
X142974629Y-24610979D01*
X142978514Y-24612666D01*
X142978515Y-24612667D01*
X143239682Y-24726108D01*
X143245473Y-24728623D01*
X143529814Y-24808292D01*
X143822355Y-24848500D01*
X144113407Y-24848500D01*
X144117645Y-24848500D01*
X144410186Y-24808292D01*
X144694527Y-24728623D01*
X144965371Y-24610979D01*
X145217673Y-24457550D01*
X145446734Y-24271196D01*
X145648286Y-24055387D01*
X145818574Y-23814143D01*
X145954427Y-23551958D01*
X146053314Y-23273717D01*
X146113393Y-22984603D01*
X146133544Y-22690000D01*
X146113393Y-22395397D01*
X146053314Y-22106283D01*
X145954427Y-21828042D01*
X145818574Y-21565857D01*
X145648286Y-21324613D01*
X145446734Y-21108804D01*
X145443452Y-21106134D01*
X145443449Y-21106131D01*
X145220955Y-20925120D01*
X145220954Y-20925119D01*
X145219990Y-20924335D01*
X163699500Y-20924335D01*
X163700343Y-20929387D01*
X163700344Y-20929398D01*
X163738679Y-21159125D01*
X163740429Y-21169614D01*
X163742093Y-21174461D01*
X163742094Y-21174465D01*
X163819507Y-21399962D01*
X163819510Y-21399969D01*
X163821172Y-21404810D01*
X163823607Y-21409310D01*
X163823610Y-21409316D01*
X163908326Y-21565857D01*
X163939526Y-21623509D01*
X164092262Y-21819744D01*
X164096029Y-21823211D01*
X164096032Y-21823215D01*
X164223837Y-21940867D01*
X164275215Y-21988164D01*
X164340513Y-22030825D01*
X164479099Y-22121368D01*
X164479102Y-22121369D01*
X164483393Y-22124173D01*
X164711119Y-22224063D01*
X164952179Y-22285108D01*
X165137933Y-22300500D01*
X165259497Y-22300500D01*
X165262067Y-22300500D01*
X165447821Y-22285108D01*
X165688881Y-22224063D01*
X165916607Y-22124173D01*
X166124785Y-21988164D01*
X166307738Y-21819744D01*
X166460474Y-21623509D01*
X166578828Y-21404810D01*
X166659571Y-21169614D01*
X166700500Y-20924335D01*
X166700500Y-20675665D01*
X166659571Y-20430386D01*
X166578828Y-20195190D01*
X166460474Y-19976491D01*
X166307738Y-19780256D01*
X166303970Y-19776787D01*
X166303967Y-19776784D01*
X166128560Y-19615311D01*
X166128559Y-19615310D01*
X166124785Y-19611836D01*
X166116885Y-19606675D01*
X165920900Y-19478631D01*
X165920893Y-19478627D01*
X165916607Y-19475827D01*
X165911916Y-19473769D01*
X165911910Y-19473766D01*
X165693577Y-19377997D01*
X165693578Y-19377997D01*
X165688881Y-19375937D01*
X165683911Y-19374678D01*
X165683910Y-19374678D01*
X165452795Y-19316151D01*
X165452788Y-19316149D01*
X165447821Y-19314892D01*
X165442709Y-19314468D01*
X165442701Y-19314467D01*
X165264633Y-19299712D01*
X165264617Y-19299711D01*
X165262067Y-19299500D01*
X165137933Y-19299500D01*
X165135383Y-19299711D01*
X165135366Y-19299712D01*
X164957298Y-19314467D01*
X164957288Y-19314468D01*
X164952179Y-19314892D01*
X164947213Y-19316149D01*
X164947204Y-19316151D01*
X164716089Y-19374678D01*
X164716084Y-19374679D01*
X164711119Y-19375937D01*
X164706425Y-19377995D01*
X164706422Y-19377997D01*
X164488089Y-19473766D01*
X164488077Y-19473772D01*
X164483393Y-19475827D01*
X164479111Y-19478624D01*
X164479099Y-19478631D01*
X164279512Y-19609028D01*
X164279506Y-19609031D01*
X164275215Y-19611836D01*
X164271446Y-19615305D01*
X164271439Y-19615311D01*
X164096032Y-19776784D01*
X164096023Y-19776793D01*
X164092262Y-19780256D01*
X164089113Y-19784301D01*
X164089111Y-19784304D01*
X163942678Y-19972440D01*
X163942672Y-19972448D01*
X163939526Y-19976491D01*
X163937088Y-19980995D01*
X163937084Y-19981002D01*
X163823610Y-20190683D01*
X163823605Y-20190693D01*
X163821172Y-20195190D01*
X163819511Y-20200026D01*
X163819507Y-20200037D01*
X163742094Y-20425534D01*
X163742092Y-20425541D01*
X163740429Y-20430386D01*
X163739585Y-20435441D01*
X163739585Y-20435443D01*
X163700344Y-20670601D01*
X163700343Y-20670613D01*
X163699500Y-20675665D01*
X163699500Y-20924335D01*
X145219990Y-20924335D01*
X145217673Y-20922450D01*
X144965371Y-20769021D01*
X144961491Y-20767335D01*
X144961484Y-20767332D01*
X144698408Y-20653062D01*
X144698398Y-20653058D01*
X144694527Y-20651377D01*
X144690455Y-20650236D01*
X144414260Y-20572849D01*
X144414253Y-20572847D01*
X144410186Y-20571708D01*
X144405994Y-20571131D01*
X144405990Y-20571131D01*
X144121844Y-20532077D01*
X144121842Y-20532076D01*
X144117645Y-20531500D01*
X143822355Y-20531500D01*
X143818158Y-20532076D01*
X143818155Y-20532077D01*
X143534009Y-20571131D01*
X143534002Y-20571132D01*
X143529814Y-20571708D01*
X143525749Y-20572846D01*
X143525739Y-20572849D01*
X143249544Y-20650236D01*
X143249539Y-20650237D01*
X143245473Y-20651377D01*
X143241606Y-20653056D01*
X143241591Y-20653062D01*
X142978515Y-20767332D01*
X142978502Y-20767338D01*
X142974629Y-20769021D01*
X142971018Y-20771216D01*
X142971010Y-20771221D01*
X142725939Y-20920253D01*
X142725934Y-20920256D01*
X142722327Y-20922450D01*
X142719052Y-20925114D01*
X142719044Y-20925120D01*
X142496550Y-21106131D01*
X142496539Y-21106140D01*
X142493266Y-21108804D01*
X142490387Y-21111886D01*
X142490378Y-21111895D01*
X142294602Y-21321520D01*
X142294597Y-21321525D01*
X142291714Y-21324613D01*
X142289278Y-21328063D01*
X142289269Y-21328075D01*
X142123872Y-21562391D01*
X142123868Y-21562396D01*
X142121426Y-21565857D01*
X142119480Y-21569611D01*
X142119476Y-21569619D01*
X141987522Y-21824279D01*
X141987517Y-21824288D01*
X141985573Y-21828042D01*
X141984156Y-21832027D01*
X141984152Y-21832038D01*
X141913504Y-22030825D01*
X141887288Y-22073937D01*
X141846066Y-22103034D01*
X141796664Y-22113300D01*
X134103336Y-22113300D01*
X134053934Y-22103034D01*
X134012712Y-22073937D01*
X133986496Y-22030825D01*
X133920512Y-21845165D01*
X133914427Y-21828042D01*
X133778574Y-21565857D01*
X133608286Y-21324613D01*
X133406734Y-21108804D01*
X133403452Y-21106134D01*
X133403449Y-21106131D01*
X133180955Y-20925120D01*
X133180954Y-20925119D01*
X133177673Y-20922450D01*
X132925371Y-20769021D01*
X132921491Y-20767335D01*
X132921484Y-20767332D01*
X132658408Y-20653062D01*
X132658398Y-20653058D01*
X132654527Y-20651377D01*
X132650455Y-20650236D01*
X132374260Y-20572849D01*
X132374253Y-20572847D01*
X132370186Y-20571708D01*
X132365994Y-20571131D01*
X132365990Y-20571131D01*
X132081844Y-20532077D01*
X132081842Y-20532076D01*
X132077645Y-20531500D01*
X131782355Y-20531500D01*
X131778158Y-20532076D01*
X131778155Y-20532077D01*
X131494009Y-20571131D01*
X131494002Y-20571132D01*
X131489814Y-20571708D01*
X131485749Y-20572846D01*
X131485739Y-20572849D01*
X131209544Y-20650236D01*
X131209539Y-20650237D01*
X131205473Y-20651377D01*
X131201606Y-20653056D01*
X131201591Y-20653062D01*
X130938515Y-20767332D01*
X130938502Y-20767338D01*
X130934629Y-20769021D01*
X130931018Y-20771216D01*
X130931010Y-20771221D01*
X130685939Y-20920253D01*
X130685934Y-20920256D01*
X130682327Y-20922450D01*
X130679055Y-20925111D01*
X130679052Y-20925114D01*
X130679045Y-20925120D01*
X130654006Y-20945490D01*
X130617281Y-20966140D01*
X130575755Y-20973300D01*
X129695105Y-20973300D01*
X129634673Y-20957578D01*
X129589567Y-20914397D01*
X129551761Y-20853105D01*
X129551760Y-20853103D01*
X129547968Y-20846956D01*
X129428044Y-20727032D01*
X129421894Y-20723238D01*
X129421892Y-20723237D01*
X129289845Y-20641789D01*
X129289843Y-20641788D01*
X129283697Y-20637997D01*
X129276842Y-20635725D01*
X129276841Y-20635725D01*
X129129136Y-20586781D01*
X129129135Y-20586780D01*
X129122708Y-20584651D01*
X129115975Y-20583963D01*
X129115970Y-20583962D01*
X129026476Y-20574819D01*
X129026459Y-20574818D01*
X129023345Y-20574500D01*
X129020196Y-20574500D01*
X128479805Y-20574500D01*
X128479785Y-20574500D01*
X128476656Y-20574501D01*
X128473524Y-20574820D01*
X128473522Y-20574821D01*
X128384027Y-20583962D01*
X128384017Y-20583963D01*
X128377292Y-20584651D01*
X128370870Y-20586778D01*
X128370865Y-20586780D01*
X128223158Y-20635725D01*
X128223154Y-20635726D01*
X128216303Y-20637997D01*
X128210159Y-20641786D01*
X128210154Y-20641789D01*
X128078104Y-20723239D01*
X128078099Y-20723242D01*
X128071956Y-20727032D01*
X128066855Y-20732132D01*
X128066841Y-20732144D01*
X128062317Y-20736668D01*
X128006730Y-20768755D01*
X127942547Y-20768752D01*
X127886964Y-20736659D01*
X127882842Y-20732537D01*
X127871580Y-20723632D01*
X127739633Y-20642246D01*
X127726625Y-20636180D01*
X127579030Y-20587272D01*
X127565874Y-20584456D01*
X127476444Y-20575319D01*
X127470168Y-20575000D01*
X127466326Y-20575000D01*
X127453450Y-20578450D01*
X127450000Y-20591326D01*
X127450000Y-23196000D01*
X127433387Y-23258000D01*
X127388000Y-23303387D01*
X127326000Y-23320000D01*
X126266327Y-23320000D01*
X126253451Y-23323450D01*
X126250001Y-23336326D01*
X126250001Y-23365165D01*
X126250321Y-23371447D01*
X126259455Y-23460867D01*
X126262274Y-23474036D01*
X126311180Y-23621625D01*
X126317246Y-23634633D01*
X126398632Y-23766580D01*
X126407537Y-23777842D01*
X126517157Y-23887462D01*
X126528419Y-23896367D01*
X126647506Y-23969821D01*
X126684240Y-24004603D01*
X126689606Y-24017231D01*
X126697597Y-24025875D01*
X126712221Y-24030000D01*
X127590500Y-24030000D01*
X127652500Y-24046613D01*
X127697887Y-24092000D01*
X127714500Y-24154000D01*
X127714500Y-24526756D01*
X127714500Y-24526781D01*
X127714501Y-24529180D01*
X127714690Y-24531588D01*
X127714787Y-24534038D01*
X127714750Y-24534039D01*
X127715000Y-24540392D01*
X127715000Y-25078415D01*
X127717590Y-25089394D01*
X127728856Y-25088819D01*
X127846697Y-25054583D01*
X127860911Y-25048433D01*
X127911385Y-25018582D01*
X127974507Y-25001313D01*
X128037629Y-25018581D01*
X128095607Y-25052869D01*
X128249796Y-25097665D01*
X128285819Y-25100500D01*
X128684180Y-25100499D01*
X128720204Y-25097665D01*
X128874393Y-25052869D01*
X129012598Y-24971135D01*
X129126135Y-24857598D01*
X129207869Y-24719393D01*
X129252665Y-24565204D01*
X129255500Y-24529181D01*
X129255499Y-24068600D01*
X129271222Y-24008169D01*
X129314397Y-23963066D01*
X129428044Y-23892968D01*
X129547968Y-23773044D01*
X129637003Y-23628697D01*
X129685446Y-23482501D01*
X129718195Y-23431183D01*
X129771422Y-23401634D01*
X129832297Y-23400980D01*
X129886147Y-23429377D01*
X129919991Y-23479979D01*
X129945573Y-23551958D01*
X129947520Y-23555716D01*
X129947522Y-23555720D01*
X130058776Y-23770430D01*
X130081426Y-23814143D01*
X130083872Y-23817608D01*
X130249269Y-24051924D01*
X130249273Y-24051929D01*
X130251714Y-24055387D01*
X130254602Y-24058479D01*
X130439700Y-24256671D01*
X130453266Y-24271196D01*
X130456547Y-24273865D01*
X130456550Y-24273868D01*
X130590748Y-24383045D01*
X130682327Y-24457550D01*
X130934629Y-24610979D01*
X130938514Y-24612666D01*
X130938515Y-24612667D01*
X131199682Y-24726108D01*
X131205473Y-24728623D01*
X131489814Y-24808292D01*
X131782355Y-24848500D01*
X132073407Y-24848500D01*
X132077645Y-24848500D01*
X132370186Y-24808292D01*
X132654527Y-24728623D01*
X132925371Y-24610979D01*
X133177673Y-24457550D01*
X133406734Y-24271196D01*
X133608286Y-24055387D01*
X133778574Y-23814143D01*
X133914427Y-23551958D01*
X133986496Y-23349174D01*
X134012712Y-23306063D01*
X134053934Y-23276966D01*
X134103336Y-23266700D01*
X135518361Y-23266700D01*
X135574656Y-23280215D01*
X135618679Y-23317815D01*
X135640834Y-23371302D01*
X135636292Y-23429018D01*
X135606044Y-23478378D01*
X135382020Y-23702402D01*
X135324682Y-23759740D01*
X135312492Y-23770430D01*
X135295140Y-23783745D01*
X135295136Y-23783748D01*
X135288693Y-23788693D01*
X135283748Y-23795136D01*
X135283745Y-23795140D01*
X135265495Y-23818923D01*
X135265490Y-23818930D01*
X135265485Y-23818937D01*
X135265485Y-23818938D01*
X135201201Y-23902714D01*
X135201198Y-23902717D01*
X135196254Y-23909162D01*
X135193145Y-23916666D01*
X135193144Y-23916669D01*
X135141254Y-24041941D01*
X135141252Y-24041946D01*
X135138144Y-24049451D01*
X135137084Y-24057502D01*
X135137082Y-24057510D01*
X135119735Y-24189274D01*
X135118324Y-24200000D01*
X135119385Y-24208059D01*
X135122239Y-24229738D01*
X135123300Y-24245923D01*
X135123300Y-26354077D01*
X135122238Y-26370262D01*
X135118324Y-26400000D01*
X135119385Y-26408059D01*
X135123300Y-26437797D01*
X135137082Y-26542489D01*
X135137083Y-26542495D01*
X135138144Y-26550549D01*
X135141253Y-26558055D01*
X135141254Y-26558058D01*
X135175792Y-26641439D01*
X135196254Y-26690838D01*
X135201201Y-26697285D01*
X135269273Y-26785999D01*
X135288693Y-26811307D01*
X135295139Y-26816253D01*
X135312490Y-26829567D01*
X135324685Y-26840262D01*
X135449181Y-26964758D01*
X135476061Y-27004986D01*
X135485500Y-27052439D01*
X135485500Y-27747560D01*
X135476061Y-27795013D01*
X135449181Y-27835241D01*
X126299682Y-36984739D01*
X126287492Y-36995430D01*
X126270140Y-37008745D01*
X126270136Y-37008748D01*
X126263693Y-37013693D01*
X126258748Y-37020136D01*
X126258745Y-37020140D01*
X126240495Y-37043923D01*
X126240490Y-37043930D01*
X126240485Y-37043937D01*
X126240485Y-37043938D01*
X126176201Y-37127714D01*
X126176198Y-37127717D01*
X126171254Y-37134162D01*
X126168145Y-37141666D01*
X126168144Y-37141669D01*
X126116254Y-37266941D01*
X126116252Y-37266946D01*
X126113144Y-37274451D01*
X126112084Y-37282502D01*
X126112082Y-37282510D01*
X126098524Y-37385501D01*
X126093324Y-37425000D01*
X126094385Y-37433059D01*
X126097239Y-37454738D01*
X126098300Y-37470923D01*
X126098300Y-43145316D01*
X126082578Y-43205748D01*
X126039397Y-43250854D01*
X126003104Y-43273239D01*
X126003099Y-43273242D01*
X125996956Y-43277032D01*
X125991855Y-43282132D01*
X125991841Y-43282144D01*
X125987317Y-43286668D01*
X125931730Y-43318755D01*
X125867547Y-43318752D01*
X125811964Y-43286659D01*
X125807842Y-43282537D01*
X125796580Y-43273632D01*
X125664633Y-43192246D01*
X125651625Y-43186180D01*
X125504030Y-43137272D01*
X125490874Y-43134456D01*
X125401444Y-43125319D01*
X125395168Y-43125000D01*
X125391326Y-43125000D01*
X125378450Y-43128450D01*
X125375000Y-43141326D01*
X125375000Y-44226000D01*
X125358387Y-44288000D01*
X125313000Y-44333387D01*
X125251000Y-44350000D01*
X124191327Y-44350000D01*
X124178451Y-44353450D01*
X124175001Y-44366326D01*
X124175001Y-44395165D01*
X124175321Y-44401447D01*
X124184455Y-44490867D01*
X124187274Y-44504036D01*
X124236180Y-44651625D01*
X124242246Y-44664633D01*
X124323632Y-44796580D01*
X124332537Y-44807842D01*
X124442157Y-44917462D01*
X124453419Y-44926367D01*
X124585366Y-45007753D01*
X124598372Y-45013818D01*
X124608010Y-45017012D01*
X124661479Y-45052103D01*
X124690350Y-45109171D01*
X124686941Y-45173036D01*
X124672495Y-45217496D01*
X124672493Y-45217501D01*
X124670486Y-45223681D01*
X124669807Y-45230137D01*
X124669806Y-45230144D01*
X124653151Y-45388604D01*
X124651954Y-45400000D01*
X124652633Y-45406460D01*
X124669806Y-45569857D01*
X124669807Y-45569864D01*
X124670486Y-45576319D01*
X124672493Y-45582497D01*
X124672494Y-45582500D01*
X124698367Y-45662129D01*
X124702082Y-45724494D01*
X124674918Y-45780754D01*
X124623770Y-45816629D01*
X124525971Y-45853106D01*
X124517668Y-45856203D01*
X124510572Y-45861514D01*
X124502785Y-45865767D01*
X124502349Y-45864968D01*
X124463985Y-45882540D01*
X124411565Y-45882727D01*
X124288645Y-45856600D01*
X124111355Y-45856600D01*
X124104997Y-45857951D01*
X124104991Y-45857952D01*
X123944300Y-45892107D01*
X123944291Y-45892109D01*
X123937939Y-45893460D01*
X123932004Y-45896102D01*
X123931996Y-45896105D01*
X123781914Y-45962927D01*
X123781909Y-45962929D01*
X123775977Y-45965571D01*
X123770723Y-45969387D01*
X123770718Y-45969391D01*
X123637805Y-46065957D01*
X123637798Y-46065962D01*
X123632546Y-46069779D01*
X123628201Y-46074604D01*
X123628196Y-46074609D01*
X123566257Y-46143400D01*
X123513916Y-46201531D01*
X123510671Y-46207151D01*
X123510667Y-46207157D01*
X123428519Y-46349442D01*
X123428516Y-46349447D01*
X123425271Y-46355069D01*
X123423265Y-46361241D01*
X123423263Y-46361247D01*
X123377656Y-46501614D01*
X123370486Y-46523681D01*
X123369807Y-46530133D01*
X123369806Y-46530142D01*
X123355929Y-46662180D01*
X123351954Y-46700000D01*
X123352633Y-46706460D01*
X123369806Y-46869857D01*
X123369807Y-46869864D01*
X123370486Y-46876319D01*
X123425271Y-47044931D01*
X123513916Y-47198469D01*
X123632546Y-47330221D01*
X123733121Y-47403292D01*
X123769903Y-47445743D01*
X123784183Y-47500071D01*
X123773025Y-47555125D01*
X123763279Y-47576463D01*
X123754807Y-47591978D01*
X123740047Y-47614947D01*
X123737549Y-47623451D01*
X123737544Y-47623464D01*
X123732353Y-47641143D01*
X123726175Y-47657709D01*
X123718521Y-47674471D01*
X123714835Y-47682543D01*
X123713573Y-47691312D01*
X123713572Y-47691319D01*
X123710949Y-47709565D01*
X123707191Y-47726844D01*
X123701999Y-47744528D01*
X123699500Y-47753039D01*
X123699500Y-47789201D01*
X123699500Y-48003039D01*
X123699500Y-48146961D01*
X123701997Y-48155467D01*
X123701998Y-48155471D01*
X123704816Y-48165069D01*
X123704816Y-48234928D01*
X123699500Y-48253039D01*
X123699500Y-48261907D01*
X123699500Y-48646961D01*
X123698386Y-48646961D01*
X123694677Y-48691693D01*
X123666460Y-48739435D01*
X123620253Y-48770103D01*
X123565300Y-48777561D01*
X123534425Y-48774755D01*
X123534419Y-48774754D01*
X123531616Y-48774500D01*
X122868384Y-48774500D01*
X122865581Y-48774754D01*
X122865574Y-48774755D01*
X122804338Y-48780320D01*
X122804335Y-48780320D01*
X122797804Y-48780914D01*
X122791553Y-48782861D01*
X122791542Y-48782864D01*
X122642550Y-48829292D01*
X122635394Y-48831522D01*
X122628982Y-48835398D01*
X122628978Y-48835400D01*
X122496228Y-48915650D01*
X122496221Y-48915655D01*
X122489815Y-48919528D01*
X122484520Y-48924821D01*
X122484512Y-48924829D01*
X122484098Y-48925244D01*
X122483573Y-48925565D01*
X122478606Y-48929457D01*
X122478157Y-48928883D01*
X122434735Y-48955488D01*
X122377023Y-48960028D01*
X122323539Y-48937873D01*
X122229281Y-48869391D01*
X122229280Y-48869390D01*
X122224023Y-48865571D01*
X122208117Y-48858489D01*
X122068003Y-48796105D01*
X122067998Y-48796103D01*
X122062061Y-48793460D01*
X122055705Y-48792109D01*
X122055699Y-48792107D01*
X121895008Y-48757952D01*
X121895003Y-48757951D01*
X121888645Y-48756600D01*
X121711355Y-48756600D01*
X121704997Y-48757951D01*
X121704991Y-48757952D01*
X121544300Y-48792107D01*
X121544291Y-48792109D01*
X121537939Y-48793460D01*
X121532004Y-48796102D01*
X121531996Y-48796105D01*
X121381914Y-48862927D01*
X121381909Y-48862929D01*
X121375977Y-48865571D01*
X121370723Y-48869387D01*
X121370718Y-48869391D01*
X121237805Y-48965957D01*
X121237798Y-48965962D01*
X121232546Y-48969779D01*
X121228201Y-48974604D01*
X121228196Y-48974609D01*
X121137354Y-49075500D01*
X121113916Y-49101531D01*
X121110671Y-49107151D01*
X121110667Y-49107157D01*
X121028519Y-49249442D01*
X121028516Y-49249447D01*
X121025271Y-49255069D01*
X121023265Y-49261241D01*
X121023263Y-49261247D01*
X120972494Y-49417500D01*
X120970486Y-49423681D01*
X120969807Y-49430133D01*
X120969806Y-49430142D01*
X120953035Y-49589709D01*
X120951954Y-49600000D01*
X120952633Y-49606460D01*
X120969806Y-49769857D01*
X120969807Y-49769864D01*
X120970486Y-49776319D01*
X120972494Y-49782499D01*
X121018459Y-49923968D01*
X121025271Y-49944931D01*
X121028518Y-49950555D01*
X121028519Y-49950557D01*
X121093155Y-50062511D01*
X121113916Y-50098469D01*
X121232546Y-50230221D01*
X121237804Y-50234041D01*
X121237805Y-50234042D01*
X121263570Y-50252761D01*
X121375977Y-50334429D01*
X121537939Y-50406540D01*
X121711355Y-50443400D01*
X121882142Y-50443400D01*
X121888645Y-50443400D01*
X122062061Y-50406540D01*
X122224023Y-50334429D01*
X122236659Y-50325247D01*
X122290145Y-50303092D01*
X122347863Y-50307634D01*
X122397227Y-50337884D01*
X122471662Y-50412319D01*
X122503756Y-50467906D01*
X122503756Y-50532094D01*
X122471662Y-50587681D01*
X122374831Y-50684511D01*
X122374827Y-50684515D01*
X122369528Y-50689815D01*
X122365651Y-50696227D01*
X122365648Y-50696232D01*
X122285400Y-50828978D01*
X122285398Y-50828982D01*
X122281522Y-50835394D01*
X122279292Y-50842548D01*
X122279292Y-50842550D01*
X122232864Y-50991542D01*
X122232861Y-50991553D01*
X122230914Y-50997804D01*
X122224500Y-51068384D01*
X122224500Y-51581616D01*
X122224754Y-51584419D01*
X122224755Y-51584425D01*
X122230320Y-51645661D01*
X122230914Y-51652196D01*
X122232862Y-51658448D01*
X122232864Y-51658457D01*
X122271729Y-51783178D01*
X122281522Y-51814606D01*
X122285399Y-51821020D01*
X122285400Y-51821021D01*
X122365647Y-51953766D01*
X122369528Y-51960185D01*
X122374831Y-51965488D01*
X122381138Y-51971795D01*
X122414031Y-52030528D01*
X122411388Y-52097793D01*
X122372495Y-52217496D01*
X122372494Y-52217500D01*
X122370486Y-52223681D01*
X122369807Y-52230133D01*
X122369806Y-52230142D01*
X122358817Y-52334699D01*
X122351954Y-52400000D01*
X122352633Y-52406460D01*
X122369806Y-52569857D01*
X122369807Y-52569864D01*
X122370486Y-52576319D01*
X122372494Y-52582499D01*
X122417426Y-52720788D01*
X122425271Y-52744931D01*
X122430035Y-52753182D01*
X122463936Y-52811901D01*
X122480548Y-52873901D01*
X122463935Y-52935900D01*
X122418548Y-52981287D01*
X122356548Y-52997900D01*
X114497900Y-52997900D01*
X114497900Y-53014226D01*
X114497900Y-55726700D01*
X114481287Y-55788700D01*
X114435900Y-55834087D01*
X114373900Y-55850700D01*
X113450082Y-55850700D01*
X113443485Y-55851053D01*
X113394932Y-55856273D01*
X113379958Y-55859811D01*
X113260822Y-55904247D01*
X113245410Y-55912662D01*
X113144507Y-55988198D01*
X113132098Y-56000607D01*
X113056562Y-56101510D01*
X113048147Y-56116922D01*
X113003711Y-56236058D01*
X113000173Y-56251032D01*
X112994953Y-56299585D01*
X112994600Y-56306182D01*
X112994600Y-56833674D01*
X112998050Y-56846549D01*
X113010926Y-56850000D01*
X115322400Y-56850000D01*
X115384400Y-56866613D01*
X115429787Y-56912000D01*
X115446400Y-56974000D01*
X115446400Y-57226000D01*
X115429787Y-57288000D01*
X115384400Y-57333387D01*
X115322400Y-57350000D01*
X113010926Y-57350000D01*
X112998050Y-57353450D01*
X112994600Y-57366326D01*
X112994600Y-57893818D01*
X112994953Y-57900414D01*
X113000173Y-57948967D01*
X113003711Y-57963941D01*
X113048147Y-58083077D01*
X113056562Y-58098489D01*
X113132098Y-58199392D01*
X113144507Y-58211801D01*
X113245410Y-58287337D01*
X113260822Y-58295752D01*
X113379958Y-58340188D01*
X113394932Y-58343726D01*
X113443485Y-58348946D01*
X113450082Y-58349300D01*
X114373900Y-58349300D01*
X114435900Y-58365913D01*
X114481287Y-58411300D01*
X114497900Y-58473300D01*
X114497900Y-61202100D01*
X116887250Y-61202100D01*
X116953571Y-61221326D01*
X116999325Y-61273042D01*
X117010326Y-61341212D01*
X116983160Y-61404695D01*
X116926254Y-61443806D01*
X116798371Y-61486181D01*
X116785366Y-61492246D01*
X116653419Y-61573632D01*
X116642157Y-61582537D01*
X116532537Y-61692157D01*
X116523632Y-61703419D01*
X116442246Y-61835366D01*
X116436180Y-61848374D01*
X116387272Y-61995969D01*
X116384456Y-62009125D01*
X116375319Y-62098555D01*
X116375000Y-62104832D01*
X116375000Y-62133674D01*
X116378450Y-62146549D01*
X116391326Y-62150000D01*
X117451000Y-62150000D01*
X117513000Y-62166613D01*
X117558387Y-62212000D01*
X117575000Y-62274000D01*
X117575000Y-62526000D01*
X117558387Y-62588000D01*
X117513000Y-62633387D01*
X117451000Y-62650000D01*
X116391327Y-62650000D01*
X116378451Y-62653450D01*
X116375001Y-62666326D01*
X116375001Y-62695165D01*
X116375321Y-62701447D01*
X116384455Y-62790867D01*
X116387274Y-62804036D01*
X116436180Y-62951625D01*
X116442246Y-62964633D01*
X116523632Y-63096580D01*
X116532537Y-63107842D01*
X116642157Y-63217462D01*
X116653419Y-63226367D01*
X116785366Y-63307753D01*
X116798374Y-63313819D01*
X116901382Y-63347952D01*
X116956981Y-63385492D01*
X116984890Y-63446497D01*
X116976940Y-63513111D01*
X116928754Y-63629441D01*
X116928752Y-63629446D01*
X116925644Y-63636951D01*
X116924584Y-63645002D01*
X116924582Y-63645010D01*
X116911164Y-63746936D01*
X116905824Y-63787500D01*
X116906885Y-63795559D01*
X116909739Y-63817238D01*
X116910800Y-63833423D01*
X116910800Y-68001501D01*
X116894187Y-68063501D01*
X116848800Y-68108888D01*
X116786800Y-68125501D01*
X116735628Y-68125501D01*
X116732350Y-68125853D01*
X116732338Y-68125854D01*
X116683731Y-68131079D01*
X116683725Y-68131080D01*
X116676017Y-68131909D01*
X116668752Y-68134618D01*
X116668746Y-68134620D01*
X116549480Y-68179104D01*
X116549478Y-68179104D01*
X116541169Y-68182204D01*
X116534072Y-68187516D01*
X116534068Y-68187519D01*
X116433050Y-68263141D01*
X116433046Y-68263144D01*
X116425954Y-68268454D01*
X116420644Y-68275546D01*
X116420641Y-68275550D01*
X116345019Y-68376568D01*
X116345016Y-68376572D01*
X116339704Y-68383669D01*
X116336604Y-68391978D01*
X116336604Y-68391980D01*
X116292120Y-68511247D01*
X116292119Y-68511250D01*
X116289409Y-68518517D01*
X116288579Y-68526227D01*
X116288579Y-68526232D01*
X116283355Y-68574819D01*
X116283354Y-68574831D01*
X116283000Y-68578127D01*
X116283000Y-68581449D01*
X116283000Y-69719613D01*
X116263454Y-69786436D01*
X116210979Y-69832192D01*
X116143574Y-69842240D01*
X116143566Y-69842366D01*
X116142996Y-69842327D01*
X116142118Y-69842458D01*
X116139349Y-69842077D01*
X116139337Y-69842076D01*
X116135145Y-69841500D01*
X115839855Y-69841500D01*
X115835658Y-69842076D01*
X115835655Y-69842077D01*
X115551509Y-69881131D01*
X115551502Y-69881132D01*
X115547314Y-69881708D01*
X115543249Y-69882846D01*
X115543239Y-69882849D01*
X115267044Y-69960236D01*
X115267039Y-69960237D01*
X115262973Y-69961377D01*
X115259103Y-69963057D01*
X115259086Y-69963064D01*
X114992824Y-70078718D01*
X114944834Y-70088976D01*
X114896623Y-70079813D01*
X114855742Y-70052665D01*
X113407942Y-68604865D01*
X113380383Y-68562964D01*
X113371676Y-68513574D01*
X113383236Y-68464803D01*
X113387003Y-68458697D01*
X113440349Y-68297708D01*
X113450500Y-68198345D01*
X113450499Y-67601656D01*
X113440349Y-67502292D01*
X113387003Y-67341303D01*
X113309157Y-67215096D01*
X113290695Y-67149999D01*
X113309155Y-67084906D01*
X113387003Y-66958697D01*
X113440349Y-66797708D01*
X113450500Y-66698345D01*
X113450499Y-66101656D01*
X113440349Y-66002292D01*
X113387003Y-65841303D01*
X113297968Y-65696956D01*
X113178044Y-65577032D01*
X113171894Y-65573238D01*
X113171892Y-65573237D01*
X113064402Y-65506936D01*
X113021221Y-65461829D01*
X113005499Y-65401401D01*
X113005499Y-64950820D01*
X113002665Y-64914796D01*
X112957869Y-64760607D01*
X112876135Y-64622402D01*
X112762598Y-64508865D01*
X112682371Y-64461419D01*
X112631108Y-64431102D01*
X112631106Y-64431101D01*
X112624393Y-64427131D01*
X112616900Y-64424954D01*
X112476292Y-64384103D01*
X112476285Y-64384101D01*
X112470204Y-64382335D01*
X112463893Y-64381838D01*
X112463886Y-64381837D01*
X112436615Y-64379691D01*
X112436600Y-64379690D01*
X112434181Y-64379500D01*
X112431735Y-64379500D01*
X112038243Y-64379500D01*
X112038217Y-64379500D01*
X112035820Y-64379501D01*
X112033406Y-64379690D01*
X112033403Y-64379691D01*
X112006111Y-64381838D01*
X112006109Y-64381838D01*
X111999796Y-64382335D01*
X111993718Y-64384100D01*
X111993711Y-64384102D01*
X111853099Y-64424954D01*
X111853096Y-64424955D01*
X111845607Y-64427131D01*
X111838897Y-64431099D01*
X111838893Y-64431101D01*
X111787628Y-64461419D01*
X111724507Y-64478686D01*
X111661387Y-64461418D01*
X111610908Y-64431565D01*
X111596700Y-64425417D01*
X111478856Y-64391180D01*
X111467590Y-64390605D01*
X111465000Y-64401585D01*
X111465000Y-64939591D01*
X111464750Y-64945953D01*
X111464787Y-64945955D01*
X111464691Y-64948384D01*
X111464500Y-64950819D01*
X111464500Y-65198697D01*
X111464501Y-65326000D01*
X111447888Y-65388000D01*
X111402501Y-65433387D01*
X111340501Y-65450000D01*
X110462221Y-65450000D01*
X110447595Y-65454124D01*
X110426512Y-65476932D01*
X110400555Y-65498298D01*
X110278416Y-65573635D01*
X110267157Y-65582537D01*
X110157537Y-65692157D01*
X110148632Y-65703419D01*
X110067246Y-65835366D01*
X110061180Y-65848374D01*
X110012272Y-65995969D01*
X110009456Y-66009125D01*
X110000319Y-66098555D01*
X110000000Y-66104832D01*
X110000000Y-66133674D01*
X108000500Y-66133674D01*
X108000500Y-64932901D01*
X110446414Y-64932901D01*
X110449078Y-64946293D01*
X110462221Y-64950000D01*
X110948674Y-64950000D01*
X110961549Y-64946549D01*
X110965000Y-64933674D01*
X110965000Y-64401585D01*
X110962409Y-64390605D01*
X110951143Y-64391180D01*
X110833299Y-64425417D01*
X110819092Y-64431565D01*
X110694428Y-64505291D01*
X110682192Y-64514782D01*
X110579782Y-64617192D01*
X110570291Y-64629428D01*
X110496565Y-64754092D01*
X110490417Y-64768299D01*
X110449601Y-64908787D01*
X110447335Y-64921191D01*
X110446414Y-64932901D01*
X108000500Y-64932901D01*
X108000500Y-43833674D01*
X124175000Y-43833674D01*
X124178450Y-43846549D01*
X124191326Y-43850000D01*
X124858674Y-43850000D01*
X124871549Y-43846549D01*
X124875000Y-43833674D01*
X124875000Y-43141327D01*
X124871549Y-43128451D01*
X124858674Y-43125001D01*
X124854835Y-43125001D01*
X124848552Y-43125321D01*
X124759132Y-43134455D01*
X124745963Y-43137274D01*
X124598374Y-43186180D01*
X124585366Y-43192246D01*
X124453419Y-43273632D01*
X124442157Y-43282537D01*
X124332537Y-43392157D01*
X124323632Y-43403419D01*
X124242246Y-43535366D01*
X124236180Y-43548374D01*
X124187272Y-43695969D01*
X124184456Y-43709125D01*
X124175319Y-43798555D01*
X124175000Y-43804832D01*
X124175000Y-43833674D01*
X108000500Y-43833674D01*
X108000500Y-24547098D01*
X126696414Y-24547098D01*
X126697335Y-24558808D01*
X126699601Y-24571212D01*
X126740417Y-24711700D01*
X126746565Y-24725907D01*
X126820291Y-24850571D01*
X126829782Y-24862807D01*
X126932192Y-24965217D01*
X126944428Y-24974708D01*
X127069092Y-25048434D01*
X127083299Y-25054582D01*
X127201143Y-25088819D01*
X127212409Y-25089394D01*
X127215000Y-25078415D01*
X127215000Y-24546326D01*
X127211549Y-24533450D01*
X127198674Y-24530000D01*
X126712221Y-24530000D01*
X126699078Y-24533706D01*
X126696414Y-24547098D01*
X108000500Y-24547098D01*
X108000500Y-22803674D01*
X126250000Y-22803674D01*
X126253450Y-22816549D01*
X126266326Y-22820000D01*
X126933674Y-22820000D01*
X126946549Y-22816549D01*
X126950000Y-22803674D01*
X126950000Y-21816326D01*
X126946549Y-21803450D01*
X126933674Y-21800000D01*
X126266327Y-21800000D01*
X126253451Y-21803450D01*
X126250001Y-21816326D01*
X126250001Y-21845165D01*
X126250321Y-21851447D01*
X126259455Y-21940867D01*
X126262274Y-21954036D01*
X126311180Y-22101625D01*
X126317246Y-22114633D01*
X126397597Y-22244902D01*
X126416059Y-22309999D01*
X126397598Y-22375095D01*
X126317245Y-22505368D01*
X126311180Y-22518374D01*
X126262272Y-22665969D01*
X126259456Y-22679125D01*
X126250319Y-22768555D01*
X126250000Y-22774832D01*
X126250000Y-22803674D01*
X108000500Y-22803674D01*
X108000500Y-20924335D01*
X109299500Y-20924335D01*
X109300343Y-20929387D01*
X109300344Y-20929398D01*
X109338679Y-21159125D01*
X109340429Y-21169614D01*
X109342093Y-21174461D01*
X109342094Y-21174465D01*
X109419507Y-21399962D01*
X109419510Y-21399969D01*
X109421172Y-21404810D01*
X109423607Y-21409310D01*
X109423610Y-21409316D01*
X109508326Y-21565857D01*
X109539526Y-21623509D01*
X109692262Y-21819744D01*
X109696029Y-21823211D01*
X109696032Y-21823215D01*
X109823837Y-21940867D01*
X109875215Y-21988164D01*
X109940513Y-22030825D01*
X110079099Y-22121368D01*
X110079102Y-22121369D01*
X110083393Y-22124173D01*
X110311119Y-22224063D01*
X110552179Y-22285108D01*
X110737933Y-22300500D01*
X110859497Y-22300500D01*
X110862067Y-22300500D01*
X111047821Y-22285108D01*
X111288881Y-22224063D01*
X111516607Y-22124173D01*
X111724785Y-21988164D01*
X111907738Y-21819744D01*
X112060474Y-21623509D01*
X112178828Y-21404810D01*
X112220414Y-21283674D01*
X126250000Y-21283674D01*
X126253450Y-21296549D01*
X126266326Y-21300000D01*
X126933674Y-21300000D01*
X126946549Y-21296549D01*
X126950000Y-21283674D01*
X126950000Y-20591327D01*
X126946549Y-20578451D01*
X126933674Y-20575001D01*
X126929835Y-20575001D01*
X126923552Y-20575321D01*
X126834132Y-20584455D01*
X126820963Y-20587274D01*
X126673374Y-20636180D01*
X126660366Y-20642246D01*
X126528419Y-20723632D01*
X126517157Y-20732537D01*
X126407537Y-20842157D01*
X126398632Y-20853419D01*
X126317246Y-20985366D01*
X126311180Y-20998374D01*
X126262272Y-21145969D01*
X126259456Y-21159125D01*
X126250319Y-21248555D01*
X126250000Y-21254832D01*
X126250000Y-21283674D01*
X112220414Y-21283674D01*
X112259571Y-21169614D01*
X112300500Y-20924335D01*
X112300500Y-20675665D01*
X112259571Y-20430386D01*
X112178828Y-20195190D01*
X112060474Y-19976491D01*
X111907738Y-19780256D01*
X111903970Y-19776787D01*
X111903967Y-19776784D01*
X111728560Y-19615311D01*
X111728559Y-19615310D01*
X111724785Y-19611836D01*
X111716885Y-19606675D01*
X111520900Y-19478631D01*
X111520893Y-19478627D01*
X111516607Y-19475827D01*
X111511916Y-19473769D01*
X111511910Y-19473766D01*
X111293577Y-19377997D01*
X111293578Y-19377997D01*
X111288881Y-19375937D01*
X111283911Y-19374678D01*
X111283910Y-19374678D01*
X111052795Y-19316151D01*
X111052788Y-19316149D01*
X111047821Y-19314892D01*
X111042709Y-19314468D01*
X111042701Y-19314467D01*
X110864633Y-19299712D01*
X110864617Y-19299711D01*
X110862067Y-19299500D01*
X110737933Y-19299500D01*
X110735383Y-19299711D01*
X110735366Y-19299712D01*
X110557298Y-19314467D01*
X110557288Y-19314468D01*
X110552179Y-19314892D01*
X110547213Y-19316149D01*
X110547204Y-19316151D01*
X110316089Y-19374678D01*
X110316084Y-19374679D01*
X110311119Y-19375937D01*
X110306425Y-19377995D01*
X110306422Y-19377997D01*
X110088089Y-19473766D01*
X110088077Y-19473772D01*
X110083393Y-19475827D01*
X110079111Y-19478624D01*
X110079099Y-19478631D01*
X109879512Y-19609028D01*
X109879506Y-19609031D01*
X109875215Y-19611836D01*
X109871446Y-19615305D01*
X109871439Y-19615311D01*
X109696032Y-19776784D01*
X109696023Y-19776793D01*
X109692262Y-19780256D01*
X109689113Y-19784301D01*
X109689111Y-19784304D01*
X109542678Y-19972440D01*
X109542672Y-19972448D01*
X109539526Y-19976491D01*
X109537088Y-19980995D01*
X109537084Y-19981002D01*
X109423610Y-20190683D01*
X109423605Y-20190693D01*
X109421172Y-20195190D01*
X109419511Y-20200026D01*
X109419507Y-20200037D01*
X109342094Y-20425534D01*
X109342092Y-20425541D01*
X109340429Y-20430386D01*
X109339585Y-20435441D01*
X109339585Y-20435443D01*
X109300344Y-20670601D01*
X109300343Y-20670613D01*
X109299500Y-20675665D01*
X109299500Y-20924335D01*
X108000500Y-20924335D01*
X108000500Y-18124500D01*
X108017113Y-18062500D01*
X108062500Y-18017113D01*
X108124500Y-18000500D01*
X167875500Y-18000500D01*
X167937500Y-18017113D01*
G37*
%TD.AperFunction*%
%TD*%
M02*
